<svg width="1058" height="785" viewBox="0 0 1058 785" fill="none" xmlns="http://www.w3.org/2000/svg">
<g id="bike" clip-path="url(#clip0)">
<path id="Vector" d="M209.73 115.43C204.25 122.08 202.14 131.43 199.78 140.22C180.78 211.06 133.96 268.04 80.6398 308.74C58.0598 325.98 30.5698 349.1 35.5098 380.01C38.1698 396.61 49.8398 408.83 58.5098 422.35C76.6998 450.66 82.5998 489.14 73.9298 523.03C64.0698 561.59 36.5098 597.57 45.0398 636.56C50.2998 660.56 68.1598 677.64 85.3298 692.32C112.116 715.207 139.756 736.647 168.25 756.64C187.35 770.04 207.67 783.08 229.93 784.78C249.53 786.28 268.73 778.83 287.34 771.48C303.6 765.05 320.27 758.36 333.4 745.48C341.97 737.07 348.8 726.22 358.32 719.34C380.68 703.18 409.4 713.42 435.04 720.34C495.54 736.58 560.29 730.65 617.86 703.6C706.17 662.1 773.48 574.95 859.86 528.19C897 508.08 937.4 495.6 971.79 469.7C991.165 454.954 1007.81 436.936 1020.99 416.46C1046.99 376.35 1061.05 325.21 1056.99 275.15C1052.93 225.09 1020.99 193 994.45 148.59C956.2 118.34 907.89 112.69 864.37 94.5302C819.43 75.7702 779.45 43.5302 734.94 23.4002C698.924 7.15686 659.728 -0.816947 620.228 0.0638277C580.728 0.944602 541.926 10.6576 506.67 28.4902C458.23 52.9902 409.13 110.15 355.18 114.49C316.74 117.49 239.75 79.0102 209.73 115.43Z" fill="url(#paint0_linear)"/>
<g id="man-bike">
<path id="Vector_2" d="M387 554.303L344.293 512.159L330.947 525.683L373.654 567.827L387 554.303Z" fill="#6D6C72"/>
<path id="Vector_3" d="M354.48 491.99C354.48 491.99 379.27 478.91 388.85 470.49C394.618 465.445 400.818 460.917 407.38 456.96L438.48 438.03L503.48 433.03L506.48 444.03C506.48 444.03 511.48 460.03 461.48 474.03C411.48 488.03 386.48 510.03 386.48 510.03C386.48 510.03 354.48 520.99 354.48 491.99Z" fill="#DB8B8B"/>
<path id="Vector_4" opacity="0.1" d="M389.13 507.86C387.36 509.21 386.48 509.99 386.48 509.99C386.48 509.99 354.48 520.99 354.48 491.99C354.48 491.99 356.03 491.17 358.48 489.8C360.956 493.83 364.423 497.159 368.551 499.469C372.679 501.778 377.33 502.99 382.06 502.99H385.45L389.13 507.86Z" fill="black"/>
<path id="Vector_5" opacity="0.05" d="M505.54 449.55C502.76 455.44 493.17 465.12 461.48 473.99C420.87 485.36 396.75 501.99 389.13 507.86C387.36 509.21 386.48 509.99 386.48 509.99C386.48 509.99 354.48 520.99 354.48 491.99C354.48 491.99 356.03 491.17 358.48 489.8C365.91 485.73 381.64 476.8 388.82 470.45C394.586 465.403 400.787 460.875 407.35 456.92L438.45 437.99L450.03 437.1L503.45 432.99L506.45 443.99C506.45 443.99 507.15 446.14 505.54 449.55Z" fill="black"/>
<path id="Vector_6" d="M354.98 485.49L328.48 502.99L406.08 567.99C406.08 567.99 417.48 560.99 411.48 552.99C411.48 552.99 391.48 535.99 390.48 511.99L384.48 503.99H381.09C375.358 503.991 369.767 502.211 365.09 498.897C360.413 495.583 356.88 490.899 354.98 485.49V485.49Z" fill="#ABB1D1"/>
<path id="Vector_7" opacity="0.1" d="M505.54 449.55C489.54 441.82 450.48 440.99 450.48 440.99L450.06 437.1L503.48 432.99L506.48 443.99C506.48 443.99 507.15 446.14 505.54 449.55Z" fill="black"/>
<path id="Vector_8" d="M450.48 438.99C450.48 438.99 497.48 439.99 509.48 449.99L503.48 328.99H438.48L450.48 438.99Z" fill="#ABB1D1"/>
<path id="Vector_9" opacity="0.05" d="M450.48 438.49C450.48 438.49 497.48 439.49 509.48 449.49L503.48 328.49H438.48L450.48 438.49Z" fill="black"/>
<path id="Vector_10" d="M488.24 364.95C488.24 364.95 605.89 360.95 608.29 376.16C610.69 391.37 490.64 384.96 490.64 384.96C490.64 384.96 481.04 375.35 488.24 364.95Z" fill="#535461"/>
<path id="Vector_11" opacity="0.05" d="M488.24 364.95C488.24 364.95 605.89 360.95 608.29 376.16C610.69 391.37 490.64 384.96 490.64 384.96C490.64 384.96 481.04 375.35 488.24 364.95Z" fill="black"/>
<path id="Vector_12" d="M393 425.78H372.19V606.66H393V425.78Z" fill="#818187"/>
<path id="Vector_13" opacity="0.1" d="M393 425.77V439.7C386.08 440.6 379 441.17 372.19 441.39V425.77H393Z" fill="black"/>
<path id="Vector_14" d="M391.44 410.78C388.52 410.554 385.616 410.164 382.74 409.61C371.46 407.45 343.02 402.92 335.37 410.61C325.77 420.21 328.97 437.02 354.58 439.42C380.19 441.82 424.21 435.42 433.02 425.81C433.02 425.77 417.09 412.75 391.44 410.78Z" fill="#535461"/>
<path id="Vector_15" d="M387.4 475.4L605.9 407.37L613.1 424.18L389 501.01L387.4 475.4Z" fill="#7E7E84"/>
<path id="Vector_16" d="M452.23 582.65L609.9 427.38L618.7 440.18L543.465 518.615L468.23 597.05L452.23 582.65Z" fill="#818086"/>
<path id="Vector_17" opacity="0.1" d="M653.58 529.85C648.584 531.142 643.712 532.872 639.02 535.02L629.46 508.31C634.477 506.123 639.644 504.295 644.92 502.84L653.58 529.85Z" fill="black"/>
<path id="Vector_18" d="M680.33 608.26L669.13 614.66L590.99 396.33L587.49 386.56L605.9 376.15L610.51 390.53L680.33 608.26Z" fill="#76757E"/>
<path id="Vector_19" opacity="0.1" d="M610.51 390.53L590.99 396.33L587.49 386.56L605.9 376.15L610.51 390.53Z" fill="black"/>
<path id="Vector_20" d="M491.44 407.37L601.09 369.75C601.09 369.75 620.3 372.15 613.09 388.16L502.65 420.97C502.65 420.97 485.85 422.57 491.44 407.37Z" fill="#535461"/>
<path id="Vector_21" opacity="0.1" d="M367.79 615.86C367.789 621.994 367.314 628.119 366.37 634.18C356.77 633.49 346.85 632.49 337.13 631.49C339.289 619.599 339.021 607.394 336.34 595.61C345.81 593.61 355.48 591.7 364.92 589.97C366.833 598.467 367.795 607.15 367.79 615.86V615.86Z" fill="black"/>
<path id="Vector_22" opacity="0.1" d="M393 585.38V606.65H372.19V588.65C379.39 587.4 386.39 586.29 393 585.38Z" fill="black"/>
<path id="Vector_23" d="M258.54 615.49C258.54 615.49 426.62 571.49 440.22 588.28C453.82 605.07 468.23 627.49 425.85 635.49C383.47 643.49 255.37 621.88 255.37 621.88L258.54 615.49Z" fill="#757579"/>
<path id="Vector_24" opacity="0.1" d="M341.21 541.37L319.85 560.92C316.067 556.064 311.791 551.613 307.09 547.64L327.03 526.81C332.164 531.249 336.908 536.12 341.21 541.37V541.37Z" fill="black"/>
<path id="Vector_25" d="M252.94 606.66L378.59 475.4L382.6 505.81L259.34 618.66L252.94 606.66Z" fill="#7C7B8B"/>
<path id="Vector_26" opacity="0.1" d="M251.34 628.27C258.415 628.27 264.15 622.535 264.15 615.46C264.15 608.386 258.415 602.65 251.34 602.65C244.266 602.65 238.53 608.386 238.53 615.46C238.53 622.535 244.266 628.27 251.34 628.27Z" fill="black"/>
<path id="Vector_27" opacity="0.1" d="M675.13 627.07C682.205 627.07 687.94 621.335 687.94 614.26C687.94 607.185 682.205 601.45 675.13 601.45C668.056 601.45 662.32 607.185 662.32 614.26C662.32 621.335 668.056 627.07 675.13 627.07Z" fill="black"/>
<path id="Vector_28" opacity="0.1" d="M448.22 628.27C462.364 628.27 473.83 616.804 473.83 602.66C473.83 588.516 462.364 577.05 448.22 577.05C434.076 577.05 422.61 588.516 422.61 602.66C422.61 616.804 434.076 628.27 448.22 628.27Z" fill="black"/>
<path id="Vector_29" d="M449.83 628.27C463.974 628.27 475.44 616.804 475.44 602.66C475.44 588.516 463.974 577.05 449.83 577.05C435.686 577.05 424.22 588.516 424.22 602.66C424.22 616.804 435.686 628.27 449.83 628.27Z" fill="#535461"/>
<path id="Vector_30" d="M442.992 600.736L442.984 600.742C439.976 602.991 439.361 607.253 441.61 610.26L461.937 637.441C464.186 640.448 468.447 641.063 471.455 638.814L471.463 638.808C474.47 636.559 475.085 632.297 472.836 629.29L452.51 602.109C450.261 599.102 445.999 598.487 442.992 600.736Z" fill="#6C63FF"/>
<path id="Vector_31" d="M565.48 246.99L563.1 277.1C562.826 280.914 562.876 284.745 563.25 288.55C563.56 291.92 563.25 297.82 559.95 306.82C555.713 318.317 553.523 330.468 553.48 342.72V376.99L530.48 372.99C530.48 372.99 531.48 324.99 527.48 316.99C523.48 308.99 530.48 237.99 530.48 237.99L565.48 246.99Z" fill="#DB8B8B"/>
<path id="Vector_32" opacity="0.05" d="M564.3 261.91L563.1 277.1C562.83 280.911 562.884 284.738 563.26 288.54C563.57 291.91 563.26 297.81 559.96 306.82C555.723 318.317 553.534 330.468 553.49 342.72V376.99L530.49 372.99C530.49 372.99 531.49 324.99 527.49 316.99C524.66 311.32 527.34 274.05 529.15 252.78C529.9 244.03 530.49 237.99 530.49 237.99L565.49 246.99L564.3 261.91Z" fill="black"/>
<path id="Vector_33" d="M451.5 476.99L442.85 526.19C441.759 532.758 440.086 539.217 437.85 545.49C432.78 559.35 436.02 578.78 438.48 589.38C439.57 594.06 440.48 597.02 440.48 597.02L414.48 611.02L406.48 605.02V601.02L405.48 512.02C399.48 498.02 401.48 477.02 405.48 469.02C406.618 466.391 407.417 463.629 407.86 460.8C409.86 450.08 410.48 435.02 410.48 435.02C410.48 435.02 426.48 408.02 445.48 426.02C452.48 432.65 455.14 441.32 455.7 449.62C456.68 463.83 451.5 476.99 451.5 476.99Z" fill="#DB8B8B"/>
<path id="Vector_34" opacity="0.1" d="M455.7 449.59C441.83 457.83 417.7 460.16 407.86 460.77C409.86 450.05 410.48 434.99 410.48 434.99C410.48 434.99 426.48 407.99 445.48 425.99C452.48 432.62 455.14 441.29 455.7 449.59Z" fill="black"/>
<path id="Vector_35" d="M489.48 424.99C478.846 430.653 468.797 437.352 459.48 444.99C443.48 457.99 403.48 458.99 403.48 458.99V443.99C404.48 425.99 387.48 405.99 364.48 349.99C349.79 314.23 353.86 293.99 358.72 283.99C361.48 278.34 364.48 275.99 364.48 275.99L489.48 299.99L493.95 313.39L503.48 341.99C503.48 341.99 468.48 343.99 462.48 346.99C456.48 349.99 460.48 376.99 460.48 376.99C454.48 404.99 489.48 424.99 489.48 424.99Z" fill="#ABB1D1"/>
<path id="Vector_36" opacity="0.1" d="M565.48 246.99L564.3 261.91C546.9 266.91 534.48 250.99 534.48 250.99C532.665 251.477 530.881 252.075 529.14 252.78C529.89 244.03 530.48 237.99 530.48 237.99L565.48 246.99Z" fill="black"/>
<path id="Vector_37" opacity="0.1" d="M493.95 313.39C493.48 318.06 493.48 320.99 493.48 320.99C493.48 320.99 470.48 339.99 431.48 310.99C392.48 281.99 357.48 289.99 357.48 289.99C357.48 289.99 357.89 287.67 358.72 283.99C361.48 278.34 364.48 275.99 364.48 275.99L489.48 299.99L493.95 313.39Z" fill="black"/>
<path id="Vector_38" d="M578.96 207.94C576.35 228.29 575.48 253.94 575.48 253.94C552.48 271.94 534.48 248.94 534.48 248.94C512.76 254.77 502.55 273.78 497.74 290.37C495.164 299.344 493.733 308.607 493.48 317.94C493.48 317.94 487.4 322.94 476.2 323.94C465.61 324.83 450.43 322.07 431.48 307.94C392.48 278.94 357.48 286.94 357.48 286.94C357.48 286.94 364.48 246.94 380.48 234.94C396.48 222.94 408.48 207.94 428.48 161.94C448.48 115.94 489.48 126.94 489.48 126.94C489.48 126.94 491.48 117.94 528.48 126.94C537.492 129.302 545.834 133.721 552.85 139.85C572.64 156.49 582.24 182.3 578.96 207.94Z" fill="white"/>
<path id="Vector_39" d="M541.85 149.49C541.8 150.82 541.69 152.3 541.51 153.95C539.51 171.95 537.51 169.95 515.51 173.95C501.83 176.44 494.72 165.01 491.3 156.01C490.062 152.75 489.128 149.382 488.51 145.95L536.51 137.95C536.51 137.95 542.26 136.34 541.85 149.49Z" fill="#DB8B8B"/>
<path id="Vector_40" opacity="0.05" d="M497.74 290.42C495.164 299.394 493.733 308.657 493.48 317.99C493.48 317.99 487.4 322.99 476.2 323.99C475.885 323.353 475.643 322.682 475.48 321.99C473.48 312.99 458.48 296.99 458.48 296.99C448.48 287.99 446.48 271.99 446.48 271.99L429.98 223.49L424.48 218.99C424.48 218.99 447.48 200.99 467.48 215.99C487.48 230.99 481.48 262.99 481.48 262.99L485.48 273.99C489.63 277.49 493.85 283.66 497.74 290.42Z" fill="black"/>
<path id="Vector_41" d="M427.48 217.99L449.48 270.99C449.48 270.99 451.48 286.99 461.48 295.99C461.48 295.99 476.48 311.99 478.48 320.99C480.48 329.99 508.48 353.99 508.48 353.99C508.48 353.99 534.48 377.99 536.48 386.99C536.48 386.99 560.48 393.99 557.48 407.99C557.48 407.99 575.48 389.99 557.48 372.99C539.48 355.99 515.48 320.99 515.48 320.99C515.48 320.99 501.48 283.99 488.48 272.99L484.48 261.99C484.48 261.99 490.48 229.99 470.48 214.99C450.48 199.99 427.48 217.99 427.48 217.99Z" fill="#DB8B8B"/>
<path id="Vector_42" opacity="0.1" d="M440.48 596.99L414.48 610.99L406.48 604.99V600.99C415.465 600.352 424.193 597.718 432.03 593.28C434.43 591.92 436.69 590.58 438.5 589.4C439.55 594.03 440.48 596.99 440.48 596.99Z" fill="black"/>
<path id="Vector_43" opacity="0.1" d="M470.48 175.99L484.48 230.99C484.48 230.99 441.48 237.99 432.48 230.99C423.48 223.99 406.48 221.99 406.48 221.99C406.48 221.99 424.48 169.99 434.48 163.99C444.48 157.99 470.48 175.99 470.48 175.99Z" fill="black"/>
<path id="Vector_44" d="M470.48 173.99L484.48 228.99C484.48 228.99 441.48 235.99 432.48 228.99C423.48 221.99 406.48 219.99 406.48 219.99C406.48 219.99 424.48 167.99 434.48 161.99C444.48 155.99 470.48 173.99 470.48 173.99Z" fill="white"/>
<path id="Vector_45" opacity="0.1" d="M541.85 148.49C539.049 152.356 535.487 155.609 531.382 158.047C527.278 160.485 522.718 162.058 517.983 162.669C513.248 163.28 508.438 162.915 503.85 161.598C499.261 160.281 494.99 158.039 491.3 155.01C490.062 151.75 489.128 148.382 488.51 144.95L536.51 136.95C536.51 136.95 542.26 135.34 541.85 148.49Z" fill="black"/>
<path id="Vector_46" d="M548.48 126.99C548.48 136.273 544.793 145.175 538.229 151.739C531.665 158.303 522.763 161.99 513.48 161.99C504.198 161.99 495.296 158.303 488.732 151.739C482.168 145.175 478.48 136.273 478.48 126.99C478.48 126.41 478.48 125.83 478.48 125.25C478.711 115.968 482.62 107.157 489.347 100.756C496.074 94.3557 505.068 90.8895 514.35 91.1202C523.633 91.3509 532.444 95.2597 538.844 101.987C545.245 108.714 548.711 117.708 548.48 126.99V126.99Z" fill="#DB8B8B"/>
<path id="Vector_47" opacity="0.1" d="M548.48 126.99C548.483 130.216 548.039 133.426 547.16 136.53C544.455 137.12 541.634 136.861 539.08 135.79C535.34 134.32 532.13 131.79 528.54 129.97C518.43 124.85 506.4 125.86 495.2 127.55C489.64 128.39 483.33 129.17 478.96 125.63C478.81 125.512 478.666 125.385 478.53 125.25C478.761 115.968 482.67 107.157 489.397 100.756C496.124 94.3557 505.118 90.8895 514.4 91.1202C523.683 91.3509 532.494 95.2597 538.894 101.987C545.295 108.714 548.761 117.708 548.53 126.99H548.48Z" fill="black"/>
<path id="Vector_48" opacity="0.05" d="M384.98 234.49C384.98 234.49 410.98 241.49 418.98 259.49C426.98 277.49 448.62 280.78 448.62 280.78" fill="black"/>
<path id="Vector_49" d="M482.98 630.49H422.98V649.49H482.98V630.49Z" fill="#6C63FF"/>
<path id="Vector_50" opacity="0.1" d="M482.98 630.49H422.98V649.49H482.98V630.49Z" fill="black"/>
<path id="Vector_51" d="M431.99 595.23C437.36 592.23 442.07 589.23 442.48 587.99C442.48 587.99 456.03 602.29 468.1 606.73C472.159 608.23 476.045 610.161 479.69 612.49C484.47 615.49 491.29 619.02 497.48 619.02C497.48 619.02 511.48 631.02 484.48 633.02C457.48 635.02 394.48 628.02 394.48 628.02L398.48 603.02C410.168 603.706 421.804 601.001 431.99 595.23Z" fill="#ABB1D1"/>
</g>
<g id="Rwheel">
<path id="Vector_52" d="M259.725 719.779L253.455 621.839L253.325 621.628L247.005 623.828L217.925 708.679L171.675 675.888L245.345 622.479L245.415 622.268L245.835 622.119L250.585 618.669L173.345 575.359L154.425 596.159L157.425 615.659L246.245 617.279V619.279L155.765 617.659L152.345 595.518L178.245 567.059L216.995 521.859L217.685 523.729L225.885 514.729L256.345 520.188V518.979L258.345 519.039V520.549L303.705 528.669L261.415 613.279L255.245 617.748V618.248V618.809L353.045 584.729L341.435 675.938L258.435 623.068L255.515 621.429L304.455 700.309L259.725 719.779ZM255.725 625.438L261.575 716.818L301.625 699.438L255.725 625.438ZM175.145 675.869L216.935 705.498L244.275 625.758L175.145 675.869ZM257.465 620.208L259.555 621.378L339.905 672.578L350.705 587.708L257.465 620.208ZM250.365 613.008L252.875 617.059L253.315 616.739L256.315 522.208L226.575 516.888L218.415 525.888L250.365 613.008ZM174.945 573.948L249.785 615.948L248.485 613.818L216.905 527.549L179.715 568.419L174.945 573.948ZM258.345 522.559L255.345 615.279L259.865 611.998L300.775 530.179L258.345 522.559Z" fill="#535461"/>
<path id="Vector_53" d="M369.415 592.738C365.405 574.919 357.285 558.283 345.705 544.158C341.406 538.909 336.666 534.038 331.535 529.598C311.809 512.567 286.986 502.568 260.962 501.17C234.938 499.771 209.187 507.053 187.749 521.873C166.311 536.693 150.401 558.211 142.515 583.05C134.629 607.89 135.214 634.645 144.178 659.116C153.142 683.587 169.978 704.39 192.042 718.258C214.107 732.127 240.152 738.277 266.09 735.743C292.028 733.208 316.39 722.134 335.353 704.257C354.317 686.379 366.807 662.712 370.865 636.968C371.809 630.907 372.284 624.783 372.285 618.648C372.292 609.932 371.329 601.242 369.415 592.738ZM254.225 707.088C235.993 707.069 218.209 701.435 203.292 690.953C188.374 680.47 177.047 665.648 170.851 648.501C164.655 631.354 163.89 612.715 168.66 595.118C173.43 577.521 183.505 561.82 197.513 550.15C211.521 538.48 228.783 531.408 246.953 529.895C265.122 528.381 283.316 532.501 299.062 541.693C314.807 550.884 327.34 564.703 334.956 581.268C342.571 597.834 344.9 616.343 341.625 634.278C337.875 654.722 327.076 673.203 311.107 686.506C295.137 699.809 275.01 707.093 254.225 707.088V707.088Z" fill="#535461"/>
<path id="Vector_54" d="M254.225 631.058C261.3 631.058 267.035 625.323 267.035 618.248C267.035 611.174 261.3 605.438 254.225 605.438C247.15 605.438 241.415 611.174 241.415 618.248C241.415 625.323 247.15 631.058 254.225 631.058Z" fill="#535461"/>
</g>
<g id="Fwheel">
<path id="Vector_55" d="M682.37 714.03L676.11 616.13L675.98 615.92L669.66 618.12L640.57 702.93L594.32 670.13L668.01 616.72L668.08 616.51L668.5 616.36L673.25 612.91L596.01 569.6L577.08 590.4L580.08 609.9L668.88 611.48V613.48L578.4 611.86L575 589.75L600.89 561.3L639.61 516.13L640.3 518L648.5 509L679.04 514.47V513.26L681.04 513.32V514.83L726.4 522.95L684.07 607.6L677.9 612.07V612.57V613.13L775.71 579.05L764.1 670.26L681.1 617.39L678.18 615.75L727.12 694.64L682.37 714.03ZM678.37 619.69L684.22 711.07L724.27 693.69L678.37 619.69ZM597.8 670.13L639.59 699.76L666.93 620.02L597.8 670.13ZM680.12 614.47L682.21 615.64L762.56 666.84L773.36 581.97L680.12 614.47ZM673.02 607.27L675.53 611.32L675.97 611L678.97 516.47L649.23 511.13L641.07 520.13L673.02 607.27ZM597.63 568.22L672.47 610.22L671.17 608.09L639.59 521.82L602.39 562.7L597.63 568.22ZM681 516.83L678 609.52L682.52 606.24L723.43 524.42L681 516.83Z" fill="#535461"/>
<path id="Vector_56" d="M677.757 498C667.144 497.988 656.578 499.415 646.347 502.24C641.071 503.695 635.904 505.523 630.887 507.71C604.157 519.297 582.674 540.387 570.594 566.898C558.514 593.41 556.697 623.459 565.492 651.233C574.287 679.008 593.071 702.533 618.209 717.259C643.348 731.984 673.054 736.863 701.582 730.952C730.109 725.04 755.431 708.759 772.648 685.257C789.865 661.755 797.754 632.702 794.789 603.72C791.823 574.738 778.215 547.885 756.595 528.356C734.975 508.828 706.881 498.012 677.747 498H677.757ZM677.357 704.09C657.076 704.082 637.408 697.137 621.62 684.407C605.831 671.678 594.872 653.931 590.562 634.113C586.252 614.295 588.851 593.599 597.928 575.463C607.004 557.326 622.011 542.84 640.457 534.41C645.149 532.262 650.021 530.532 655.017 529.24C667.229 526.07 679.977 525.537 692.411 527.678C704.845 529.818 716.681 534.581 727.13 541.652C737.58 548.722 746.404 557.937 753.015 568.683C759.627 579.429 763.873 591.46 765.473 603.975C767.073 616.49 765.989 629.202 762.293 641.265C758.598 653.329 752.375 664.467 744.04 673.939C735.704 683.41 725.447 690.998 713.951 696.196C702.455 701.395 689.984 704.086 677.367 704.09H677.357Z" fill="#535461"/>
<path id="Vector_57" d="M677.454 625.92C684.528 625.92 690.264 620.185 690.264 613.11C690.264 606.035 684.528 600.3 677.454 600.3C670.379 600.3 664.644 606.035 664.644 613.11C664.644 620.185 670.379 625.92 677.454 625.92Z" fill="#535461"/>
</g>
<g id="Hat">
<path id="Vector_58" d="M452.624 106.927C454.754 113.607 464.984 113.817 470.234 118.737C472.964 121.297 474.234 125.077 477.234 127.357C481.404 130.537 487.424 129.837 492.734 129.077C503.424 127.557 514.904 126.647 524.544 131.257C527.964 132.887 531.034 135.167 534.604 136.497C538.174 137.827 542.604 137.987 545.504 135.627C547.824 133.737 548.674 130.627 550.774 128.547C552.404 126.907 554.674 125.987 556.534 124.547C560.614 121.467 562.374 116.447 563.534 111.647C565.934 101.767 566.624 91.1167 562.534 81.7467C558.444 72.3767 548.604 64.7467 537.864 65.2367C534.574 65.3867 531.364 66.2367 528.084 66.5967C519.534 67.4667 511.084 64.5967 502.504 64.1067C500.015 63.8039 497.49 64.1483 495.174 65.1067C493.427 66.0775 491.92 67.4273 490.764 69.0567C486.836 74.2021 484.146 80.1836 482.904 86.5367C481.904 91.3267 481.854 95.6667 475.984 96.4067C469.314 97.2867 448.114 92.7967 452.624 106.927Z" fill="#472727"/>
</g>
</g>
<defs>
<linearGradient id="paint0_linear" x1="1045.5" y1="171" x2="18" y2="626.5" gradientUnits="userSpaceOnUse">
<stop offset="0.0001" stop-color="#2A509D" stop-opacity="0.52"/>
<stop offset="0.0002" stop-color="#286E90" stop-opacity="0.87"/>
<stop offset="0.0003" stop-color="#196D6D" stop-opacity="0.15"/>
<stop offset="0.0326855" stop-color="#2AD698"/>
<stop offset="1" stop-color="#25937F"/>
</linearGradient>
<clipPath id="clip0">
<rect width="1057.7" height="784.98" fill="white"/>
</clipPath>
</defs>
</svg>
