<?xml version="1.0" standalone="no"?>
<!DOCTYPE svg PUBLIC "-//W3C//DTD SVG 20010904//EN"
 "http://www.w3.org/TR/2001/REC-SVG-20010904/DTD/svg10.dtd">
<svg version="1.0" xmlns="http://www.w3.org/2000/svg"
 width="3280.000000pt" height="1848.000000pt" viewBox="0 0 3280.000000 1848.000000"
 preserveAspectRatio="xMidYMid meet">
<metadata>
Created by potrace 1.16, written by Peter Selinger 2001-2019
</metadata>
<g transform="translate(0.000000,1848.000000) scale(0.100000,-0.100000)"
fill="#ffffff" stroke="none">
<path d="M0 9240 l0 -9240 16400 0 16400 0 0 9240 0 9240 -16400 0 -16400 0 0
-9240z m14735 7130 c3 -5 40 -10 81 -10 43 0 74 -4 74 -10 0 -5 15 -10 34 -10
19 0 37 -4 40 -9 3 -5 35 -12 71 -16 36 -3 67 -11 70 -16 4 -5 17 -9 30 -9 13
0 27 -4 30 -10 3 -5 17 -10 30 -10 13 0 27 -4 30 -10 3 -5 15 -10 25 -10 11 0
35 -9 55 -20 20 -11 44 -20 55 -20 11 0 20 -4 20 -10 0 -5 9 -10 20 -10 11 0
20 -4 20 -10 0 -5 9 -10 19 -10 11 0 36 -9 58 -19 89 -45 148 -71 158 -71 17
0 65 -24 65 -32 0 -5 9 -8 19 -8 11 0 21 -4 23 -8 2 -4 37 -25 80 -45 42 -21
82 -44 88 -52 7 -8 17 -15 23 -15 15 0 121 -53 125 -62 2 -4 12 -8 22 -8 10 0
20 -4 22 -8 2 -4 29 -20 60 -36 32 -15 60 -32 63 -37 4 -5 27 -18 53 -30 90
-39 137 -63 157 -80 11 -9 35 -22 53 -30 17 -8 32 -17 32 -21 0 -5 9 -8 19 -8
11 0 21 -3 23 -7 3 -8 59 -39 218 -119 52 -27 97 -52 98 -56 2 -4 12 -8 22 -8
10 0 20 -3 22 -8 3 -7 22 -16 233 -118 55 -27 102 -52 103 -56 2 -4 12 -8 21
-8 10 0 53 -18 96 -40 43 -22 85 -40 94 -40 9 0 29 -7 45 -15 15 -8 37 -15 47
-15 11 0 19 -3 19 -7 0 -11 50 -33 71 -33 10 0 21 -4 24 -10 3 -5 17 -10 30
-10 13 0 27 -4 30 -10 3 -5 17 -10 30 -10 13 0 27 -4 30 -10 3 -5 17 -10 31
-10 13 0 24 -4 24 -10 0 -5 14 -10 30 -10 17 0 30 -4 30 -10 0 -5 15 -10 33
-10 18 0 38 -5 43 -10 6 -6 41 -13 78 -17 36 -3 69 -10 72 -14 3 -5 23 -9 44
-9 21 0 42 -4 45 -10 3 -5 35 -10 71 -10 36 0 64 -4 64 -10 0 -6 73 -10 199
-10 123 0 202 4 206 10 3 6 31 10 61 10 30 0 54 5 54 10 0 6 15 10 34 10 19 0
38 5 41 10 3 6 21 10 38 10 18 0 45 7 61 15 15 8 37 15 47 15 11 0 19 5 19 10
0 6 9 10 19 10 11 0 21 4 23 8 2 4 47 29 100 55 53 27 102 55 108 63 7 8 18
14 24 14 7 0 27 16 46 35 32 33 80 48 80 25 0 -5 -4 -10 -10 -10 -5 0 -10 -9
-10 -20 0 -11 -4 -20 -8 -20 -5 0 -19 -20 -31 -45 -12 -24 -26 -47 -32 -50 -5
-4 -18 -26 -29 -50 -11 -24 -24 -47 -30 -50 -5 -3 -17 -23 -26 -43 -10 -20
-24 -45 -32 -55 -16 -18 -35 -50 -51 -82 -5 -11 -21 -31 -35 -44 -14 -14 -26
-29 -26 -35 0 -14 -252 -266 -266 -266 -6 0 -19 -9 -29 -20 -10 -11 -24 -20
-30 -20 -7 0 -18 -7 -25 -15 -12 -15 -36 -27 -127 -66 -18 -8 -33 -17 -33 -21
0 -5 -9 -8 -20 -8 -11 0 -20 -4 -20 -10 0 -5 -13 -10 -30 -10 -16 0 -30 -3
-30 -7 0 -11 -50 -33 -71 -33 -10 0 -21 -4 -24 -10 -3 -5 -17 -10 -30 -10 -13
0 -27 -4 -30 -10 -3 -5 -22 -10 -41 -10 -19 0 -34 -4 -34 -10 0 -5 -15 -10
-33 -10 -18 0 -37 -4 -43 -10 -5 -5 -92 -13 -192 -17 -100 -3 -182 -10 -182
-15 0 -11 -147 -11 -154 0 -3 5 -60 12 -127 15 -67 3 -127 11 -133 17 -5 5
-25 10 -42 10 -18 0 -36 5 -39 10 -3 6 -17 10 -30 10 -13 0 -27 5 -30 10 -3 6
-17 10 -31 10 -13 0 -24 5 -24 10 0 6 -11 10 -24 10 -14 0 -28 5 -31 10 -3 6
-17 10 -30 10 -13 0 -27 5 -30 10 -3 6 -15 10 -25 10 -11 0 -35 9 -55 20 -20
11 -42 20 -50 20 -8 0 -35 11 -61 25 -26 14 -52 25 -58 25 -11 0 -297 140
-306 150 -3 3 -16 10 -30 17 -138 64 -240 116 -249 126 -5 7 -26 19 -46 27
-19 7 -35 17 -35 22 0 4 -9 8 -20 8 -11 0 -20 5 -20 10 0 6 -5 10 -11 10 -15
0 -97 39 -104 49 -3 5 -52 33 -109 61 -57 28 -109 57 -115 64 -7 8 -24 17 -39
21 -15 4 -29 10 -32 14 -3 4 -49 28 -102 55 -54 26 -100 52 -103 56 -3 5 -31
21 -63 36 -31 16 -58 32 -60 36 -2 4 -10 8 -17 8 -7 0 -61 25 -120 55 -59 30
-113 55 -120 55 -16 0 -99 42 -103 53 -2 4 -12 7 -23 7 -10 0 -19 4 -19 10 0
5 -17 12 -37 16 -21 4 -53 15 -71 26 -18 10 -39 18 -47 18 -8 0 -30 9 -50 20
-20 11 -44 20 -55 20 -11 0 -20 5 -20 10 0 6 -9 10 -20 10 -11 0 -20 5 -20 10
0 6 -11 10 -24 10 -14 0 -28 5 -31 10 -3 6 -17 10 -30 10 -13 0 -27 5 -30 10
-3 6 -17 10 -30 10 -13 0 -26 4 -30 9 -3 5 -30 13 -60 16 -31 4 -58 11 -61 16
-3 5 -16 9 -29 9 -13 0 -27 5 -30 10 -3 6 -26 10 -50 10 -24 0 -47 5 -50 10
-3 6 -26 10 -51 10 -24 0 -44 5 -44 10 0 6 -24 10 -54 10 -30 0 -58 5 -61 10
-4 6 -92 10 -231 10 -143 0 -224 -4 -224 -10 0 -5 -20 -10 -44 -10 -25 0 -48
-4 -51 -10 -3 -5 -21 -10 -40 -10 -19 0 -37 -4 -40 -10 -3 -5 -19 -10 -34 -10
-30 0 -81 -20 -81 -32 0 -5 -10 -8 -22 -8 -25 0 -221 -94 -238 -115 -7 -8 -18
-15 -25 -15 -6 0 -20 -9 -30 -20 -10 -11 -23 -20 -30 -20 -6 0 -22 -11 -35
-25 -44 -47 -65 -26 -30 30 11 17 28 49 40 72 11 23 24 45 30 48 6 3 19 26 30
50 11 24 24 47 30 50 6 3 19 25 31 48 30 61 44 85 62 105 10 10 17 22 17 25 0
4 14 21 30 39 17 17 30 35 30 39 0 11 217 229 227 229 4 0 19 12 34 26 32 31
33 31 204 118 72 36 138 66 148 66 9 0 17 5 17 10 0 6 11 10 24 10 14 0 28 5
31 10 3 6 17 10 30 10 13 0 26 4 30 10 3 5 33 12 66 16 32 4 62 11 65 15 3 5
36 9 74 9 38 0 72 5 75 10 4 6 53 10 115 10 62 0 111 4 115 10 3 6 50 10 105
10 55 0 102 -4 105 -10z m-6780 -800 c3 -5 33 -10 65 -10 32 0 61 -4 64 -9 3
-5 35 -12 71 -16 36 -3 67 -11 70 -16 4 -5 17 -9 30 -9 13 0 27 -4 30 -10 3
-5 19 -10 35 -10 16 0 45 -9 65 -20 20 -11 44 -20 55 -20 11 0 20 -4 20 -10 0
-5 14 -10 30 -10 17 0 30 -4 30 -10 0 -5 9 -10 20 -10 11 0 20 -4 20 -10 0 -5
8 -10 18 -10 10 0 49 -16 88 -35 38 -19 76 -35 85 -35 20 0 69 -23 69 -32 0
-5 9 -8 19 -8 11 0 21 -4 23 -8 2 -6 202 -107 308 -155 14 -7 32 -19 40 -27 8
-9 67 -42 130 -74 177 -89 235 -120 238 -128 2 -5 12 -8 23 -8 10 0 19 -4 19
-8 0 -5 16 -15 35 -22 20 -8 41 -20 47 -27 9 -11 58 -36 208 -106 14 -7 34
-20 44 -29 11 -10 26 -18 33 -18 7 0 13 -4 13 -10 0 -5 9 -10 19 -10 11 0 21
-4 23 -8 2 -4 48 -29 103 -56 211 -102 230 -111 233 -118 2 -5 12 -8 23 -8 10
0 19 -4 19 -10 0 -5 8 -10 19 -10 10 0 52 -17 93 -38 41 -22 89 -42 107 -45
18 -4 45 -16 61 -27 15 -11 35 -20 44 -20 8 0 31 -9 51 -20 20 -11 44 -20 55
-20 10 0 22 -4 25 -10 3 -5 17 -10 30 -10 13 0 27 -4 30 -10 3 -5 17 -10 31
-10 13 0 24 -4 24 -10 0 -5 11 -10 24 -10 14 0 28 -4 31 -10 3 -5 17 -10 30
-10 13 0 27 -4 30 -10 3 -5 21 -10 40 -10 19 0 36 -4 39 -9 3 -5 35 -12 71
-16 36 -3 67 -11 70 -16 4 -5 26 -9 50 -9 24 0 47 -4 50 -10 3 -5 37 -10 75
-10 38 0 72 -4 75 -10 4 -6 77 -10 185 -10 108 0 181 4 185 10 3 6 28 10 55
10 27 0 52 5 55 10 3 6 26 10 50 10 24 0 46 4 49 9 4 5 29 12 56 16 28 4 50
11 50 16 0 5 8 9 18 9 45 0 172 85 172 115 0 6 14 24 30 40 17 16 30 33 30 39
0 14 212 226 225 226 6 0 24 14 40 30 16 17 34 30 41 30 6 0 17 7 24 15 13 16
130 75 149 75 6 0 11 5 11 10 0 6 9 10 20 10 11 0 20 3 20 8 0 10 50 32 71 32
10 0 21 5 24 10 3 6 17 10 30 10 13 0 27 5 30 10 3 6 17 10 30 10 13 0 27 5
30 10 3 6 17 10 31 10 13 0 24 5 24 10 0 6 15 10 34 10 19 0 38 5 41 10 3 6
35 10 70 10 35 0 67 5 70 10 4 6 55 10 120 10 65 0 116 4 120 10 3 6 48 10
100 10 52 0 97 -4 100 -10 3 -5 39 -10 80 -10 41 0 77 -4 80 -10 3 -5 24 -10
45 -10 21 0 42 -4 45 -10 3 -5 21 -10 40 -10 19 0 37 -4 40 -10 3 -5 17 -10
30 -10 13 0 27 -4 30 -10 3 -5 17 -10 31 -10 13 0 24 -4 24 -10 0 -5 11 -10
24 -10 14 0 28 -4 31 -10 3 -5 15 -10 25 -10 11 0 35 -9 55 -20 20 -11 42 -20
49 -20 8 0 27 -7 42 -15 16 -8 36 -15 45 -15 20 0 69 -23 69 -32 0 -5 9 -8 20
-8 11 0 20 -3 20 -7 0 -9 48 -33 65 -33 6 0 69 -29 140 -65 72 -36 135 -65
142 -65 7 0 13 -4 13 -8 0 -5 16 -15 35 -22 20 -8 41 -20 46 -27 6 -7 59 -35
117 -64 59 -28 117 -56 129 -61 13 -6 31 -18 40 -27 10 -9 62 -38 115 -65 54
-26 101 -52 104 -57 5 -8 34 -23 122 -60 17 -8 32 -17 32 -21 0 -5 9 -8 20 -8
11 0 20 -4 20 -8 0 -5 16 -15 35 -22 20 -8 41 -20 47 -27 9 -12 126 -70 206
-104 17 -8 32 -17 32 -21 0 -5 9 -8 19 -8 11 0 21 -3 23 -8 4 -9 209 -112 224
-112 16 0 64 -24 64 -32 0 -5 8 -8 18 -8 10 0 27 -7 38 -15 10 -8 26 -15 35
-15 10 0 43 -13 74 -30 31 -16 65 -30 75 -30 11 0 22 -4 25 -10 3 -5 14 -10
24 -10 21 0 71 -22 71 -32 0 -5 11 -8 24 -8 14 0 28 -4 31 -10 3 -5 17 -10 30
-10 13 0 26 -4 29 -9 4 -5 29 -12 56 -16 27 -4 52 -11 56 -16 3 -5 21 -9 40
-9 19 0 34 -4 34 -10 0 -5 15 -10 34 -10 19 0 38 -4 41 -10 3 -5 21 -10 40
-10 19 0 37 -4 40 -10 3 -5 28 -10 55 -10 27 0 52 -4 55 -10 3 -5 35 -10 70
-10 35 0 67 -4 70 -10 4 -6 75 -10 180 -10 105 0 176 4 180 10 3 6 28 10 55
10 27 0 52 5 55 10 3 6 26 10 50 10 24 0 47 5 50 10 3 6 17 10 31 10 13 0 24
5 24 10 0 6 14 10 30 10 17 0 30 5 30 10 0 6 9 10 20 10 11 0 28 4 38 9 9 6
57 29 105 51 49 23 91 48 94 56 3 8 13 14 22 14 9 0 23 9 31 20 8 11 19 20 25
20 6 0 20 8 31 19 11 10 30 22 42 25 12 4 22 12 22 17 0 5 5 9 10 9 17 0 11
-26 -9 -44 -11 -10 -23 -31 -26 -46 -3 -16 -13 -34 -21 -41 -8 -6 -28 -40 -44
-74 -16 -34 -37 -68 -45 -75 -8 -7 -15 -18 -15 -25 0 -6 -9 -20 -20 -30 -11
-10 -20 -24 -20 -32 0 -7 -4 -13 -9 -13 -5 0 -12 -11 -15 -25 -4 -14 -11 -25
-16 -25 -6 0 -10 -7 -10 -15 0 -8 -13 -27 -29 -42 -15 -16 -30 -34 -32 -41 -6
-18 -240 -252 -252 -252 -5 0 -20 -11 -33 -25 -13 -14 -30 -25 -39 -25 -8 0
-15 -4 -15 -10 0 -5 -6 -10 -14 -10 -7 0 -19 -6 -26 -14 -13 -17 -189 -106
-207 -106 -7 0 -28 -9 -48 -20 -19 -11 -53 -23 -75 -26 -22 -4 -43 -11 -46
-15 -3 -5 -16 -9 -29 -9 -13 0 -27 -4 -30 -10 -3 -5 -26 -10 -50 -10 -24 0
-47 -4 -50 -10 -3 -5 -37 -10 -75 -10 -38 0 -72 -4 -75 -10 -4 -6 -105 -10
-271 -10 -169 0 -264 4 -264 10 0 6 -20 10 -44 10 -25 0 -48 5 -51 10 -3 6
-21 10 -40 10 -19 0 -37 5 -40 10 -3 6 -19 10 -35 10 -16 0 -31 4 -34 9 -4 5
-29 12 -56 16 -27 4 -52 11 -56 16 -3 5 -14 9 -24 9 -11 0 -35 9 -55 20 -20
11 -44 20 -55 20 -11 0 -20 5 -20 10 0 6 -9 10 -20 10 -11 0 -20 5 -20 10 0 6
-8 10 -18 10 -10 0 -58 20 -107 45 -50 25 -97 45 -106 45 -20 0 -69 23 -69 33
0 4 -9 7 -19 7 -11 0 -21 4 -23 8 -1 4 -55 34 -118 66 -154 77 -194 100 -198
109 -2 4 -12 7 -22 7 -10 0 -20 4 -22 8 -1 4 -38 25 -80 46 -43 21 -80 42 -83
47 -3 4 -36 22 -73 39 -37 17 -78 37 -92 43 -14 7 -32 20 -41 29 -9 10 -24 18
-33 18 -9 0 -16 5 -16 10 0 6 -9 10 -19 10 -11 0 -21 4 -23 8 -2 4 -37 25 -78
46 -170 86 -235 121 -238 128 -2 5 -12 8 -22 8 -10 0 -20 4 -22 8 -1 4 -48 29
-103 56 -211 102 -230 111 -233 118 -2 5 -12 8 -21 8 -10 0 -53 18 -96 40 -43
22 -84 40 -91 40 -7 0 -29 9 -49 20 -20 11 -44 20 -53 20 -10 0 -27 7 -38 15
-10 8 -29 15 -41 15 -12 0 -25 5 -28 10 -3 6 -17 10 -30 10 -13 0 -27 5 -30
10 -3 6 -17 10 -30 10 -13 0 -27 5 -30 10 -3 6 -17 10 -31 10 -13 0 -24 5 -24
10 0 6 -11 10 -24 10 -14 0 -28 5 -31 10 -3 6 -17 10 -30 10 -13 0 -27 5 -30
10 -3 6 -21 10 -40 10 -19 0 -37 5 -40 10 -3 6 -22 10 -41 10 -19 0 -34 4 -34
9 0 5 -45 13 -100 17 -55 3 -103 11 -106 15 -7 12 -491 12 -498 0 -3 -5 -39
-12 -81 -16 -41 -4 -77 -11 -81 -16 -3 -5 -16 -9 -29 -9 -13 0 -27 -4 -30 -10
-3 -5 -15 -10 -25 -10 -11 0 -35 -9 -55 -20 -20 -11 -44 -20 -55 -20 -11 0
-20 -4 -20 -10 0 -5 -9 -10 -20 -10 -13 0 -20 -7 -20 -18 0 -10 -9 -24 -20
-32 -11 -8 -20 -19 -20 -25 0 -6 -15 -27 -34 -47 -18 -19 -35 -40 -37 -46 -7
-18 -179 -192 -190 -192 -6 0 -24 -13 -39 -30 -15 -16 -34 -30 -40 -30 -7 0
-20 -8 -29 -17 -9 -10 -25 -23 -36 -30 -44 -27 -161 -83 -172 -83 -7 0 -28 -9
-48 -20 -20 -11 -44 -20 -55 -20 -11 0 -20 -4 -20 -10 0 -5 -9 -10 -20 -10
-11 0 -20 -4 -20 -10 0 -5 -11 -10 -24 -10 -14 0 -28 -4 -31 -10 -3 -5 -21
-10 -39 -10 -17 0 -37 -5 -42 -10 -6 -6 -57 -13 -113 -17 -56 -3 -104 -10
-107 -15 -7 -11 -531 -11 -538 1 -3 4 -38 11 -78 15 -40 4 -77 11 -82 16 -6 6
-25 10 -42 10 -18 0 -36 5 -39 10 -3 6 -17 10 -30 10 -13 0 -27 5 -30 10 -3 6
-17 10 -31 10 -13 0 -24 5 -24 10 0 6 -13 10 -30 10 -16 0 -30 3 -30 8 0 8
-49 32 -67 32 -7 0 -28 9 -48 20 -20 11 -42 20 -50 20 -9 0 -23 4 -33 9 -44
24 -87 41 -103 41 -9 0 -19 3 -21 8 -4 10 -350 182 -366 182 -6 0 -12 5 -12
10 0 6 -6 10 -14 10 -7 0 -19 6 -25 14 -7 8 -65 41 -129 73 -64 31 -123 63
-130 70 -7 7 -20 13 -28 13 -8 0 -14 5 -14 10 0 6 -9 10 -19 10 -11 0 -21 4
-23 8 -1 4 -38 25 -80 46 -43 21 -80 42 -83 47 -5 8 -85 48 -162 80 -18 8 -33
17 -33 21 0 5 -9 8 -19 8 -10 0 -21 6 -24 14 -5 12 -188 107 -284 147 -18 8
-33 17 -33 21 0 5 -9 8 -19 8 -11 0 -21 3 -23 8 -4 9 -169 92 -185 92 -12 0
-95 41 -103 51 -3 4 -20 10 -39 14 -19 4 -50 16 -68 26 -19 11 -40 19 -48 19
-8 0 -30 9 -50 20 -20 11 -44 20 -55 20 -10 0 -22 5 -25 10 -3 6 -17 10 -31
10 -13 0 -24 5 -24 10 0 6 -11 10 -24 10 -14 0 -28 5 -31 10 -3 6 -17 10 -30
10 -13 0 -27 5 -30 10 -3 6 -17 10 -30 10 -13 0 -26 4 -30 9 -3 5 -30 13 -60
16 -31 4 -58 11 -61 16 -3 5 -20 9 -39 9 -19 0 -37 5 -40 10 -3 6 -26 10 -50
10 -24 0 -47 5 -50 10 -3 6 -28 10 -55 10 -27 0 -52 5 -55 10 -4 6 -95 10
-240 10 -145 0 -236 -4 -240 -10 -3 -5 -31 -10 -61 -10 -30 0 -54 -4 -54 -10
0 -5 -15 -10 -34 -10 -19 0 -38 -4 -41 -10 -3 -5 -17 -10 -30 -10 -13 0 -27
-4 -30 -10 -3 -5 -15 -10 -26 -10 -24 0 -99 -32 -99 -42 0 -5 -13 -8 -29 -8
-16 0 -31 -6 -34 -15 -3 -8 -26 -23 -50 -34 -24 -11 -50 -27 -57 -36 -7 -8
-18 -15 -25 -15 -6 0 -20 -9 -30 -20 -10 -11 -23 -20 -30 -20 -6 0 -22 -11
-35 -25 -22 -24 -60 -34 -60 -17 0 14 30 71 40 77 5 3 17 23 27 43 9 20 25 44
35 53 10 9 18 24 18 33 0 9 3 16 8 16 8 0 12 8 49 82 12 25 29 51 38 58 8 7
15 18 15 25 0 6 9 20 20 30 11 10 20 23 20 30 0 6 14 24 30 40 17 16 30 33 30
39 0 13 211 226 224 226 6 0 22 12 37 26 26 25 53 41 169 100 30 16 57 32 58
36 2 4 12 8 23 8 10 0 19 5 19 10 0 6 9 10 20 10 11 0 35 9 55 20 20 11 44 20
55 20 10 0 22 5 25 10 3 6 15 10 26 10 10 0 28 5 39 10 11 6 29 15 40 20 12 6
63 13 116 17 52 3 97 10 100 15 3 4 50 8 105 8 59 0 99 4 99 10 0 6 55 10 144
10 86 0 147 -4 151 -10z m-870 -1840 c3 -5 30 -10 60 -10 30 0 57 -4 60 -10 3
-5 21 -10 40 -10 19 0 37 -4 40 -10 3 -5 22 -10 41 -10 19 0 34 -4 34 -10 0
-5 11 -10 24 -10 14 0 28 -4 31 -10 3 -5 17 -10 30 -10 13 0 27 -4 30 -10 3
-5 14 -10 25 -10 10 0 35 -9 57 -19 66 -33 111 -51 126 -51 8 0 41 -13 72 -30
31 -16 63 -30 70 -30 16 0 99 -42 103 -52 2 -5 12 -8 23 -8 10 0 19 -4 19 -10
0 -5 9 -10 20 -10 11 0 20 -3 20 -8 0 -4 15 -13 33 -21 69 -29 222 -106 225
-113 2 -4 12 -8 23 -8 10 0 19 -4 19 -10 0 -5 9 -10 19 -10 10 0 21 -6 24 -14
5 -13 26 -24 179 -95 37 -18 70 -36 73 -41 3 -5 31 -21 63 -36 31 -16 59 -32
60 -36 2 -4 12 -8 22 -8 10 0 20 -3 22 -7 4 -9 44 -32 198 -109 63 -32 117
-62 118 -66 2 -4 11 -8 21 -8 9 0 23 -9 31 -20 8 -11 19 -20 25 -20 5 0 68
-29 140 -65 71 -36 137 -65 147 -65 10 0 18 -4 18 -10 0 -5 9 -10 19 -10 11 0
21 -4 23 -8 2 -4 30 -20 63 -36 33 -15 68 -31 77 -37 10 -5 24 -9 33 -9 8 0
30 -9 50 -20 20 -11 44 -20 55 -20 11 0 20 -4 20 -10 0 -5 9 -10 20 -10 11 0
20 -4 20 -10 0 -5 9 -10 20 -10 11 0 35 -9 55 -20 20 -11 44 -20 55 -20 10 0
22 -4 25 -10 3 -5 17 -10 30 -10 13 0 26 -4 29 -9 3 -5 26 -12 51 -15 24 -4
47 -11 50 -17 4 -5 21 -9 40 -9 19 0 37 -4 40 -10 3 -5 17 -10 30 -10 13 0 27
-4 30 -10 3 -5 26 -10 51 -10 24 0 44 -4 44 -10 0 -5 15 -10 34 -10 19 0 38
-4 41 -10 3 -5 35 -10 71 -10 36 0 64 -4 64 -10 0 -6 85 -10 234 -10 146 0
237 4 241 10 3 6 26 10 51 10 24 0 44 5 44 10 0 6 15 10 34 10 19 0 38 5 41
10 3 6 17 10 30 10 13 0 27 5 30 10 3 6 17 10 30 10 13 0 27 5 30 10 3 6 13
10 22 10 22 0 178 77 193 95 7 8 18 15 25 15 7 0 19 7 26 16 7 9 24 20 36 25
13 5 28 20 33 33 5 13 13 27 19 30 6 4 18 24 27 44 10 20 24 45 32 55 17 19
36 50 50 82 6 11 22 29 36 40 14 11 26 26 26 33 0 14 234 252 248 252 5 0 22
12 39 28 38 35 47 40 178 106 61 31 118 56 128 56 9 0 17 5 17 10 0 6 9 10 20
10 11 0 20 5 20 10 0 6 11 10 24 10 14 0 28 5 31 10 3 6 17 10 30 10 13 0 27
5 30 10 3 6 21 10 39 10 17 0 37 5 43 11 6 6 56 13 112 16 56 3 104 10 107 14
7 12 531 12 538 0 3 -5 39 -12 81 -16 41 -4 77 -11 81 -16 3 -5 20 -9 39 -9
19 0 37 -4 40 -10 3 -5 17 -10 31 -10 13 0 24 -4 24 -10 0 -5 11 -10 24 -10
14 0 28 -4 31 -10 3 -5 15 -10 25 -10 11 0 35 -9 55 -20 20 -11 42 -20 50 -20
8 0 30 -9 50 -20 20 -11 44 -20 55 -20 11 0 20 -4 20 -8 0 -5 17 -15 37 -23
20 -8 66 -29 102 -46 36 -18 70 -33 77 -33 15 0 98 -42 102 -52 2 -5 12 -8 22
-8 10 0 20 -3 22 -7 4 -9 44 -32 198 -109 63 -32 116 -62 118 -66 2 -4 12 -8
23 -8 10 0 19 -4 19 -10 0 -5 8 -10 18 -10 10 0 24 -9 32 -20 8 -11 19 -20 24
-20 13 0 175 -80 181 -90 3 -4 40 -25 83 -46 42 -21 79 -41 82 -44 7 -7 67
-39 220 -116 74 -38 136 -72 138 -76 2 -4 12 -8 23 -8 10 0 19 -4 19 -10 0 -5
6 -10 13 -10 6 0 79 -34 162 -75 82 -41 157 -75 167 -75 10 0 18 -3 18 -8 0
-9 74 -42 95 -42 8 0 30 -9 50 -20 20 -11 41 -20 48 -20 18 0 67 -24 67 -32 0
-5 14 -8 30 -8 17 0 30 -4 30 -10 0 -5 9 -10 20 -10 11 0 35 -9 55 -20 20 -11
44 -20 55 -20 10 0 22 -4 25 -10 3 -5 19 -10 36 -10 28 0 36 -3 85 -27 11 -6
51 -14 87 -18 37 -4 70 -11 73 -16 3 -5 25 -9 50 -9 24 0 44 -4 44 -10 0 -6
28 -10 64 -10 36 0 68 -4 71 -10 4 -6 88 -10 220 -10 132 0 216 4 220 10 3 6
31 10 61 10 30 0 54 5 54 10 0 6 15 10 34 10 19 0 37 4 40 9 4 5 29 12 56 16
27 4 52 11 56 16 3 5 16 9 29 9 13 0 25 4 27 8 2 4 37 25 80 45 42 21 82 44
88 52 7 8 18 15 25 15 7 0 18 7 25 15 7 9 32 24 54 35 23 10 50 28 60 39 18
20 46 29 46 15 0 -15 -36 -81 -52 -95 -10 -9 -18 -24 -18 -33 0 -9 -4 -16 -10
-16 -5 0 -10 -6 -10 -14 0 -7 -7 -19 -15 -26 -9 -7 -25 -32 -35 -55 -10 -23
-26 -47 -34 -54 -8 -7 -18 -25 -21 -41 -3 -15 -15 -36 -26 -46 -10 -9 -19 -22
-19 -29 0 -6 -13 -24 -30 -40 -16 -16 -30 -34 -30 -40 0 -6 -13 -24 -30 -40
-16 -16 -30 -33 -30 -39 0 -14 -131 -146 -145 -146 -6 0 -29 -18 -50 -40 -21
-22 -43 -40 -49 -40 -5 0 -18 -7 -28 -16 -17 -17 -51 -35 -158 -90 -30 -16
-56 -32 -58 -36 -2 -4 -12 -8 -23 -8 -10 0 -34 -9 -54 -20 -20 -11 -44 -20
-55 -20 -10 0 -22 -4 -25 -10 -3 -5 -17 -10 -30 -10 -13 0 -27 -4 -30 -10 -3
-5 -16 -10 -29 -10 -12 0 -27 -5 -33 -11 -5 -5 -51 -13 -102 -16 -50 -3 -94
-10 -97 -15 -3 -4 -59 -8 -125 -8 -73 0 -119 -4 -119 -10 0 -6 -41 -10 -104
-10 -59 0 -108 4 -111 10 -3 6 -37 10 -75 10 -38 0 -71 4 -74 9 -3 4 -42 12
-86 15 -44 4 -82 12 -85 17 -4 5 -17 9 -31 9 -13 0 -24 5 -24 10 0 6 -11 10
-24 10 -14 0 -28 5 -31 10 -3 6 -17 10 -30 10 -13 0 -27 5 -30 10 -3 6 -17 10
-30 10 -13 0 -27 5 -30 10 -3 6 -14 10 -24 10 -21 0 -71 22 -71 33 0 4 -13 7
-30 7 -16 0 -30 3 -30 8 0 8 -74 42 -93 42 -15 0 -221 102 -225 112 -2 5 -12
8 -22 8 -10 0 -20 3 -22 8 -3 7 -22 17 -179 91 -48 23 -92 48 -99 56 -7 8 -19
15 -26 15 -8 0 -14 5 -14 10 0 6 -9 10 -19 10 -11 0 -21 3 -23 8 -3 7 -69 42
-258 138 -52 27 -96 52 -98 56 -2 4 -11 8 -19 8 -9 0 -23 8 -32 18 -9 9 -27
22 -41 29 -138 64 -240 116 -250 128 -7 8 -19 15 -26 15 -8 0 -14 5 -14 10 0
6 -9 10 -20 10 -11 0 -20 4 -20 8 0 5 -17 15 -37 23 -20 8 -84 38 -142 67 -58
28 -113 52 -123 52 -10 0 -18 5 -18 10 0 6 -9 10 -19 10 -11 0 -21 3 -23 8 -5
11 -129 72 -147 72 -9 0 -29 7 -45 15 -15 8 -34 15 -40 15 -18 0 -66 24 -66
33 0 4 -9 7 -20 7 -11 0 -35 9 -55 20 -20 11 -44 20 -55 20 -10 0 -22 5 -25
10 -3 6 -17 10 -30 10 -13 0 -27 5 -30 10 -3 6 -17 10 -30 10 -13 0 -27 5 -30
10 -3 6 -17 10 -31 10 -13 0 -24 4 -24 9 0 5 -32 12 -70 16 -39 4 -73 11 -76
16 -3 5 -21 9 -40 9 -19 0 -34 5 -34 10 0 6 -20 10 -44 10 -25 0 -48 5 -51 10
-3 6 -35 10 -71 10 -36 0 -64 4 -64 10 0 6 -73 10 -199 10 -123 0 -202 -4
-206 -10 -3 -5 -28 -10 -55 -10 -27 0 -52 -4 -55 -10 -3 -5 -21 -10 -40 -10
-19 0 -37 -4 -40 -10 -3 -5 -21 -10 -40 -10 -19 0 -37 -4 -40 -10 -3 -5 -14
-10 -23 -10 -9 0 -30 -7 -46 -15 -15 -8 -34 -15 -40 -15 -15 0 -101 -43 -124
-62 -9 -8 -30 -20 -47 -28 -16 -8 -38 -21 -48 -29 -9 -8 -27 -19 -39 -25 -12
-6 -26 -24 -31 -41 -5 -16 -18 -39 -28 -51 -11 -11 -19 -25 -19 -31 0 -5 -9
-18 -20 -28 -11 -10 -20 -23 -20 -30 0 -7 -9 -20 -20 -30 -11 -10 -20 -23 -20
-30 0 -7 -9 -20 -20 -30 -11 -10 -20 -23 -20 -30 0 -6 -16 -26 -35 -45 -19
-19 -35 -39 -35 -44 0 -13 -121 -136 -134 -136 -6 0 -27 -16 -47 -36 -37 -36
-54 -48 -119 -80 -19 -9 -44 -25 -55 -34 -11 -10 -35 -23 -52 -31 -18 -8 -33
-17 -33 -21 0 -5 -9 -8 -20 -8 -11 0 -20 -4 -20 -10 0 -5 -9 -10 -20 -10 -11
0 -35 -9 -55 -20 -20 -11 -44 -20 -55 -20 -10 0 -21 -4 -24 -9 -4 -5 -29 -12
-56 -16 -27 -4 -52 -11 -56 -16 -3 -5 -18 -9 -34 -9 -16 0 -32 -4 -35 -10 -3
-5 -35 -10 -70 -10 -35 0 -67 -4 -70 -10 -3 -6 -50 -10 -105 -10 -55 0 -102
-4 -105 -10 -4 -6 -62 -10 -140 -10 -78 0 -136 4 -140 10 -3 6 -35 10 -70 10
-35 0 -67 5 -70 10 -3 6 -26 10 -51 10 -24 0 -44 5 -44 10 0 6 -11 10 -24 10
-14 0 -27 4 -30 9 -3 4 -30 11 -61 15 -54 6 -63 9 -112 34 -13 7 -29 12 -38
12 -8 0 -30 9 -50 20 -20 11 -42 20 -49 20 -8 0 -40 14 -71 30 -31 17 -66 30
-76 30 -10 0 -19 5 -19 10 0 6 -9 10 -20 10 -11 0 -20 3 -20 8 0 4 -15 13 -32
21 -69 28 -303 146 -306 153 -2 4 -12 8 -23 8 -10 0 -19 3 -19 8 0 4 -15 13
-32 21 -85 35 -237 113 -248 126 -7 8 -19 15 -26 15 -8 0 -14 5 -14 10 0 6 -9
10 -20 10 -11 0 -20 3 -20 8 0 7 -73 42 -89 42 -5 0 -14 6 -20 14 -7 8 -65 41
-129 72 -64 32 -124 65 -132 74 -8 8 -26 20 -40 27 -106 48 -306 149 -308 155
-2 4 -12 8 -23 8 -10 0 -19 4 -19 8 0 5 -17 15 -37 23 -20 8 -84 38 -142 67
-58 28 -113 52 -123 52 -10 0 -18 5 -18 10 0 6 -9 10 -20 10 -11 0 -20 3 -20
8 0 8 -49 32 -67 32 -7 0 -28 9 -48 20 -20 11 -43 20 -53 20 -9 0 -30 7 -46
15 -15 8 -37 15 -47 15 -10 0 -21 5 -24 10 -3 6 -17 10 -31 10 -13 0 -24 5
-24 10 0 6 -11 10 -24 10 -14 0 -28 5 -31 10 -3 6 -17 10 -30 10 -13 0 -27 5
-30 10 -3 6 -17 10 -30 10 -13 0 -27 5 -30 10 -3 6 -22 10 -41 10 -19 0 -34 5
-34 10 0 6 -15 10 -34 10 -19 0 -38 5 -41 10 -3 6 -21 10 -39 10 -17 0 -36 4
-42 10 -5 5 -60 12 -122 16 -62 4 -115 11 -118 16 -7 11 -361 11 -368 -1 -3
-4 -43 -11 -88 -15 -46 -4 -87 -11 -92 -16 -6 -6 -25 -10 -43 -10 -18 0 -33
-4 -33 -10 0 -5 -9 -10 -20 -10 -11 0 -35 -9 -55 -20 -20 -11 -41 -20 -48 -20
-17 0 -143 -64 -165 -83 -9 -9 -29 -18 -44 -22 -15 -4 -38 -20 -50 -36 -13
-16 -29 -29 -36 -29 -8 0 -26 -13 -42 -30 -15 -16 -30 -26 -34 -23 -11 11 -6
40 9 53 9 7 23 29 32 49 9 20 23 44 31 53 15 18 44 69 81 144 11 22 27 47 36
54 8 7 15 18 15 25 0 6 9 20 20 30 11 10 20 23 20 29 0 7 9 18 20 26 11 8 20
19 20 25 0 5 16 27 35 47 19 20 35 41 35 47 0 12 141 151 153 151 5 0 22 14
37 30 15 17 33 30 39 30 6 0 23 13 38 28 16 15 64 45 108 66 44 21 107 51 139
67 32 16 67 29 77 29 11 0 19 5 19 10 0 6 11 10 24 10 14 0 28 5 31 10 3 6 17
10 30 10 13 0 27 5 30 10 3 6 17 10 30 10 13 0 27 5 30 10 3 6 26 10 51 10 24
0 44 5 44 10 0 6 31 10 74 10 41 0 78 5 81 10 4 6 95 10 240 10 145 0 236 -4
240 -10z m-791 -1739 c3 -4 42 -12 86 -15 44 -4 82 -12 85 -17 4 -5 17 -9 31
-9 13 0 24 -4 24 -10 0 -5 15 -10 34 -10 19 0 38 -4 41 -10 3 -5 15 -10 25
-10 11 0 35 -9 55 -20 20 -11 44 -20 55 -20 10 0 22 -4 25 -10 3 -5 17 -10 31
-10 13 0 24 -4 24 -10 0 -5 9 -10 20 -10 11 0 20 -3 20 -7 0 -10 49 -33 69
-33 9 0 56 -20 106 -45 49 -25 97 -45 107 -45 10 0 18 -4 18 -10 0 -5 9 -10
19 -10 11 0 21 -4 23 -8 2 -4 37 -25 78 -46 170 -86 235 -121 238 -128 2 -5
12 -8 22 -8 10 0 20 -4 22 -8 2 -4 28 -20 59 -35 32 -15 62 -34 69 -42 7 -8
17 -15 23 -15 17 0 174 -80 187 -95 7 -8 19 -15 26 -15 8 0 14 -4 14 -10 0 -5
9 -10 20 -10 11 0 20 -4 20 -10 0 -5 9 -10 20 -10 11 0 20 -3 20 -8 0 -7 73
-42 89 -42 5 0 14 -7 21 -15 6 -8 46 -31 88 -52 43 -20 79 -41 80 -45 2 -4 12
-8 23 -8 10 0 19 -4 19 -10 0 -5 9 -10 20 -10 11 0 20 -3 20 -8 0 -4 15 -13
33 -21 68 -28 302 -146 305 -153 2 -4 12 -8 23 -8 10 0 19 -4 19 -10 0 -5 8
-10 18 -10 10 0 41 -11 68 -25 27 -14 57 -25 66 -25 10 0 33 -9 53 -20 20 -11
44 -20 55 -20 11 0 20 -4 20 -10 0 -5 9 -10 20 -10 11 0 20 -4 20 -10 0 -5 11
-10 24 -10 14 0 28 -4 31 -10 3 -5 15 -10 25 -10 11 0 35 -9 55 -20 20 -11 49
-20 65 -20 17 0 30 -4 30 -10 0 -5 11 -10 24 -10 14 0 27 -4 31 -10 3 -5 33
-12 66 -16 32 -4 62 -11 65 -15 3 -5 21 -9 40 -9 19 0 34 -4 34 -10 0 -5 20
-10 44 -10 25 0 48 -4 51 -10 3 -5 30 -10 60 -10 30 0 57 -4 60 -10 4 -6 95
-10 241 -10 149 0 234 4 234 10 0 6 20 10 44 10 25 0 48 5 51 10 3 6 21 10 40
10 19 0 37 5 40 10 3 6 19 10 35 10 16 0 31 4 35 9 3 5 20 12 38 16 42 8 238
104 258 127 9 10 24 18 33 18 9 0 16 4 16 8 0 4 15 16 33 27 17 10 39 27 48
37 19 21 49 24 49 4 0 -7 -7 -19 -15 -26 -9 -7 -25 -32 -36 -54 -36 -73 -66
-126 -81 -144 -7 -9 -20 -30 -28 -47 -8 -16 -21 -38 -29 -48 -8 -9 -19 -26
-25 -36 -34 -59 -92 -139 -117 -162 -16 -15 -29 -31 -29 -37 0 -11 -155 -165
-173 -171 -7 -2 -24 -17 -39 -33 -14 -15 -32 -28 -38 -28 -7 0 -20 -8 -29 -19
-9 -10 -27 -22 -41 -26 -14 -4 -33 -14 -42 -22 -22 -19 -108 -63 -123 -63 -10
0 -79 -31 -157 -71 -10 -5 -27 -9 -37 -9 -11 0 -23 -4 -26 -10 -3 -5 -16 -10
-29 -10 -12 0 -26 -4 -31 -9 -6 -6 -56 -13 -113 -17 -56 -4 -105 -11 -108 -15
-3 -5 -59 -9 -124 -9 -68 0 -121 -4 -125 -10 -3 -5 -44 -10 -91 -10 -49 0 -84
4 -84 10 0 6 -35 10 -84 10 -47 0 -87 4 -90 9 -3 5 -39 12 -81 16 -41 4 -77
11 -81 16 -3 5 -16 9 -29 9 -13 0 -27 5 -30 10 -3 6 -17 10 -31 10 -13 0 -24
5 -24 10 0 6 -11 10 -24 10 -14 0 -28 5 -31 10 -3 6 -17 10 -30 10 -13 0 -27
5 -30 10 -3 6 -15 10 -25 10 -11 0 -35 9 -55 20 -20 11 -42 20 -50 20 -15 0
-54 19 -65 31 -9 9 -78 39 -92 39 -16 0 -262 122 -266 132 -2 5 -12 8 -23 8
-10 0 -19 3 -19 8 0 4 -15 13 -32 21 -78 33 -158 72 -163 81 -3 5 -31 21 -63
36 -31 16 -58 32 -60 36 -2 4 -12 8 -22 8 -10 0 -20 3 -22 8 -4 9 -47 32 -205
112 -68 34 -125 65 -128 70 -3 5 -18 15 -33 23 -15 7 -36 18 -47 25 -11 6 -59
29 -107 52 -48 23 -90 45 -93 50 -3 4 -40 25 -83 46 -42 21 -78 42 -80 46 -2
4 -10 8 -17 8 -8 0 -53 20 -101 45 -47 25 -92 45 -99 45 -15 0 -139 62 -143
73 -2 4 -12 7 -23 7 -10 0 -19 5 -19 10 0 6 -10 10 -22 10 -13 0 -36 7 -52 15
-15 8 -34 15 -42 15 -7 0 -29 9 -49 20 -20 11 -44 20 -55 20 -11 0 -20 5 -20
10 0 6 -9 10 -20 10 -11 0 -20 5 -20 10 0 6 -11 10 -24 10 -14 0 -28 5 -31 10
-3 6 -17 10 -30 10 -13 0 -27 5 -30 10 -3 6 -17 10 -30 10 -13 0 -27 5 -30 10
-3 6 -17 10 -30 10 -13 0 -27 5 -30 10 -3 6 -19 10 -35 10 -16 0 -31 4 -34 9
-3 5 -37 12 -76 16 -39 4 -73 11 -76 16 -3 5 -25 9 -50 9 -24 0 -44 5 -44 10
0 6 -31 10 -74 10 -41 0 -78 5 -81 10 -4 6 -78 10 -190 10 -112 0 -186 -4
-190 -10 -3 -5 -31 -10 -61 -10 -30 0 -54 -4 -54 -10 0 -5 -15 -10 -34 -10
-19 0 -37 -4 -40 -9 -3 -4 -30 -11 -60 -15 -30 -3 -79 -19 -111 -36 -31 -16
-62 -30 -69 -30 -7 0 -21 -8 -32 -18 -10 -10 -44 -30 -75 -45 -32 -15 -62 -34
-69 -42 -7 -8 -18 -15 -25 -15 -6 0 -20 -9 -30 -20 -21 -24 -83 -55 -91 -47
-9 8 36 97 51 104 8 3 15 14 15 24 0 10 5 19 10 19 6 0 10 7 10 16 0 9 8 24
18 33 10 9 26 32 35 52 9 20 23 42 31 48 8 7 18 25 21 41 3 15 15 36 26 46 10
9 19 22 19 29 0 6 14 24 30 40 17 16 30 34 30 40 0 6 18 29 40 50 22 21 40 44
40 49 0 14 91 106 105 106 6 0 29 18 50 40 21 22 44 40 50 40 7 0 20 9 30 20
10 11 23 20 30 20 7 0 20 9 30 20 10 11 22 20 26 20 16 0 89 35 89 42 0 5 9 8
19 8 11 0 21 3 23 8 5 12 88 52 108 52 11 0 22 5 25 10 3 6 17 10 30 10 13 0
27 5 30 10 3 6 17 10 30 10 13 0 27 5 30 10 3 6 17 10 30 10 13 0 25 4 27 10
2 5 51 12 111 16 59 4 107 11 107 15 0 12 547 12 554 0z m8883 -1143 c28 -27
33 -39 33 -80 0 -73 -30 -118 -79 -118 -16 0 -33 -5 -37 -11 -4 -8 -9 -8 -17
0 -6 6 -19 11 -29 11 -10 0 -34 16 -53 35 -51 50 -48 106 9 173 16 18 30 22
80 22 54 0 63 -3 93 -32z m-3583 -110 c14 -29 26 -60 26 -70 0 -10 5 -18 10
-18 6 0 10 -6 10 -12 0 -7 50 -112 110 -233 60 -121 110 -225 110 -232 0 -6 3
-13 8 -15 9 -4 52 -87 52 -101 0 -23 125 -261 128 -244 2 9 8 17 13 17 5 0 9
13 9 29 0 16 3 31 8 33 12 5 130 250 137 286 4 17 11 32 16 32 5 0 9 9 9 19 0
11 3 21 8 23 9 4 72 127 72 143 0 6 25 60 55 120 30 61 55 114 55 120 0 5 16
43 36 83 l36 72 181 -2 c155 -3 182 -5 185 -18 2 -10 -10 -21 -30 -29 -33 -13
-58 -49 -58 -82 0 -10 -4 -21 -10 -24 -5 -3 -10 -26 -10 -50 0 -24 5 -47 10
-50 6 -4 10 -168 10 -461 0 -251 4 -454 9 -454 5 0 11 -17 15 -38 6 -42 24
-62 74 -83 21 -9 32 -21 32 -34 0 -20 -5 -20 -241 -17 -173 2 -245 0 -255 -9
-12 -9 -14 -6 -14 20 0 17 5 31 12 31 7 0 27 14 45 32 24 23 33 41 33 64 0 18
5 36 10 39 12 7 14 925 3 925 -9 -1 -103 -191 -103 -208 0 -7 -3 -12 -7 -12
-9 0 -33 -48 -33 -64 0 -13 -102 -219 -111 -226 -4 -3 -11 -18 -14 -33 -4 -15
-11 -30 -16 -33 -5 -3 -9 -13 -9 -23 0 -9 -31 -80 -70 -156 -38 -76 -70 -147
-70 -157 0 -10 -4 -18 -10 -18 -5 0 -10 -5 -10 -11 0 -7 -18 -49 -41 -95 -41
-86 -62 -102 -89 -69 -17 21 -80 146 -80 159 0 6 -29 69 -65 141 -36 71 -65
137 -65 147 0 10 -4 18 -10 18 -5 0 -10 9 -10 20 0 11 -4 20 -10 20 -5 0 -10
9 -10 20 0 11 -4 20 -10 20 -5 0 -10 6 -10 13 0 6 -16 43 -35 81 -19 39 -35
75 -35 82 0 15 -63 138 -72 142 -5 2 -8 12 -8 23 0 10 -3 19 -7 19 -10 0 -33
49 -33 68 0 19 -53 132 -62 132 -5 0 -8 -155 -8 -344 0 -219 -4 -347 -10 -351
-5 -3 -10 -40 -10 -81 0 -43 4 -74 10 -74 6 0 10 -18 10 -40 0 -53 45 -130 75
-130 7 0 20 -9 30 -20 10 -11 24 -20 32 -20 7 0 13 -10 13 -22 l0 -23 -200 0
-200 0 0 23 c0 15 6 22 19 22 10 0 21 7 25 15 3 8 17 20 31 25 14 5 25 14 25
20 0 6 7 18 15 26 8 9 15 24 15 34 0 10 5 22 10 25 6 4 10 127 10 335 0 208 4
331 10 335 15 9 13 310 -2 338 -7 12 -33 43 -57 69 -70 75 -64 78 148 78 l179
0 26 -52z m7143 35 c4 -10 9 -20 13 -23 9 -8 130 -254 130 -265 0 -6 54 -119
120 -250 66 -132 120 -245 120 -252 0 -6 3 -13 8 -15 10 -4 52 -87 52 -102 0
-15 23 -66 30 -66 8 0 80 156 80 172 0 19 23 68 33 68 4 0 7 9 7 19 0 11 3 21
8 23 9 4 72 127 72 142 0 7 15 41 33 77 17 36 38 82 46 102 8 20 18 37 23 37
4 0 8 8 8 18 0 10 32 81 70 157 39 76 70 147 70 157 0 17 11 18 187 16 170 -3
188 -5 191 -20 2 -12 -3 -18 -13 -18 -9 0 -32 -17 -51 -37 l-34 -38 0 -512 c0
-331 4 -514 10 -518 6 -3 10 -19 10 -34 0 -47 28 -90 71 -109 32 -14 39 -22
39 -46 0 -23 -3 -26 -14 -17 -10 9 -82 11 -255 9 l-241 -3 0 23 c0 12 6 22 13
22 7 0 31 18 52 40 l40 41 3 497 2 497 -45 -90 c-25 -49 -45 -94 -45 -101 0
-15 -63 -138 -72 -142 -5 -2 -8 -10 -8 -18 0 -7 -16 -43 -35 -80 -19 -36 -35
-71 -35 -77 0 -16 -102 -221 -112 -225 -5 -2 -8 -11 -8 -21 0 -9 -7 -26 -15
-37 -8 -10 -14 -26 -15 -34 0 -18 -121 -264 -132 -268 -5 -2 -8 -13 -8 -23 0
-16 -6 -20 -27 -17 -26 3 -61 46 -62 78 -1 18 -103 224 -113 228 -5 2 -8 12
-8 23 0 11 -4 27 -9 37 -34 64 -121 249 -121 258 0 16 -24 64 -32 64 -5 0 -8
9 -8 20 0 11 -4 20 -8 20 -5 0 -15 17 -23 37 -8 20 -24 57 -36 82 -13 24 -23
50 -23 56 0 16 -63 139 -72 143 -5 2 -8 12 -8 23 0 10 -4 19 -10 19 -5 0 -10
9 -10 21 0 11 -4 17 -10 14 -16 -10 -13 -904 3 -938 6 -15 15 -27 20 -27 4 0
7 -7 7 -16 0 -17 23 -44 38 -44 5 0 17 -9 27 -20 10 -11 28 -20 41 -20 32 0
39 -17 18 -41 -12 -13 -21 -16 -28 -9 -15 15 -329 13 -345 -2 -10 -11 -12 -6
-9 22 2 23 10 38 24 45 47 23 84 75 84 116 0 10 5 21 10 24 6 4 10 95 10 240
0 145 4 236 10 240 6 4 10 100 10 256 0 159 -4 249 -10 249 -5 0 -10 9 -10 20
0 11 -3 20 -8 20 -4 0 -13 14 -20 30 -8 17 -20 30 -29 30 -21 0 -46 28 -39 45
4 12 36 15 186 15 163 0 181 -2 187 -17z m-1462 -203 c3 -5 24 -10 45 -10 22
0 55 -9 75 -20 20 -11 44 -20 55 -20 11 0 20 -4 20 -10 0 -5 8 -10 18 -10 10
0 24 -9 32 -20 8 -11 19 -20 25 -20 13 0 145 -136 163 -167 6 -13 12 -32 12
-43 0 -11 5 -20 11 -20 6 0 9 -21 7 -52 l-3 -53 -445 -5 -445 -5 -3 -124 c-2
-76 1 -128 8 -135 5 -5 10 -25 10 -42 0 -18 5 -36 10 -39 6 -3 10 -17 10 -31
0 -13 5 -24 10 -24 6 0 10 -6 10 -13 0 -8 9 -22 20 -32 11 -10 20 -23 20 -29
0 -15 82 -96 96 -96 6 0 19 -9 29 -20 10 -11 29 -20 42 -20 12 0 23 -4 23 -10
0 -5 18 -10 40 -10 22 0 50 -6 61 -12 17 -10 23 -10 26 0 3 7 22 12 48 12 24
0 47 5 50 10 3 6 14 10 25 10 23 0 100 40 121 63 9 9 22 17 29 17 18 0 110 96
110 114 0 8 3 16 8 18 10 4 52 87 52 102 0 19 24 66 34 66 15 0 46 -32 46 -47
0 -7 -4 -21 -9 -31 -5 -9 -24 -48 -42 -87 -22 -48 -54 -92 -103 -142 -39 -40
-76 -73 -82 -73 -6 0 -19 -9 -29 -20 -10 -11 -24 -20 -32 -20 -7 0 -13 -4 -13
-10 0 -5 -11 -10 -24 -10 -14 0 -28 -4 -31 -10 -3 -5 -21 -10 -40 -10 -19 0
-37 -4 -40 -10 -4 -6 -62 -10 -140 -10 -78 0 -136 4 -140 10 -3 6 -19 10 -34
10 -30 0 -81 20 -81 33 0 4 -11 7 -23 7 -13 0 -32 9 -42 20 -10 11 -23 20 -30
20 -7 0 -20 9 -30 20 -10 11 -23 20 -29 20 -14 0 -76 61 -76 75 0 7 -9 20 -20
30 -11 10 -20 23 -20 30 0 7 -9 20 -20 30 -11 10 -20 28 -20 40 0 11 -6 27
-12 34 -10 9 -13 66 -13 213 0 152 3 202 13 206 6 2 12 12 12 23 0 10 4 19 8
19 5 0 14 15 22 34 16 42 163 188 208 207 17 8 32 17 32 21 0 5 9 8 20 8 11 0
20 5 20 10 0 6 11 10 24 10 14 0 28 5 31 10 3 6 26 10 50 10 24 0 47 5 50 10
3 6 44 10 90 10 46 0 87 -4 90 -10z m5895 0 c0 -5 20 -10 44 -10 25 0 48 -4
51 -10 3 -5 14 -10 25 -10 23 0 100 -40 121 -62 9 -10 21 -18 27 -18 17 0 152
-138 152 -155 0 -8 3 -15 8 -15 13 0 32 -53 32 -91 0 -21 5 -41 10 -44 6 -3
10 -13 10 -21 0 -12 -66 -14 -456 -14 l-457 0 5 -167 c3 -115 8 -168 16 -171
7 -2 12 -12 12 -22 0 -10 3 -20 8 -22 4 -1 18 -25 31 -53 34 -68 86 -121 151
-153 30 -14 57 -30 58 -34 2 -4 23 -8 47 -8 24 0 47 -4 50 -10 3 -5 17 -10 31
-10 13 0 24 5 24 10 0 6 17 10 38 10 57 0 204 77 269 142 29 29 53 58 53 64 0
6 7 17 15 24 19 16 45 68 45 91 0 10 5 21 10 24 6 3 10 17 10 31 0 33 32 32
50 -2 11 -20 12 -29 2 -44 -7 -11 -12 -29 -12 -40 0 -11 -4 -20 -10 -20 -5 0
-10 -9 -10 -20 0 -11 -4 -20 -10 -20 -5 0 -10 -9 -10 -20 0 -11 -4 -20 -9 -20
-5 0 -11 -6 -13 -14 -5 -22 -158 -176 -174 -176 -8 0 -14 -4 -14 -10 0 -5 -9
-10 -20 -10 -11 0 -20 -4 -20 -10 0 -5 -11 -10 -24 -10 -14 0 -28 -4 -31 -10
-3 -5 -21 -10 -40 -10 -19 0 -37 -4 -40 -10 -4 -6 -62 -10 -140 -10 -78 0
-136 4 -140 10 -3 6 -21 10 -40 10 -18 0 -35 4 -37 8 -1 4 -37 24 -79 45 -42
21 -85 47 -95 58 -11 12 -29 25 -42 30 -12 5 -26 19 -31 31 -5 13 -19 32 -31
43 -12 11 -30 40 -41 65 -11 25 -24 53 -29 62 -6 10 -10 31 -10 48 0 16 -4 30
-10 30 -6 0 -10 55 -10 145 0 90 4 145 10 145 6 0 10 14 10 30 0 17 4 38 10
48 5 9 17 35 26 57 18 41 150 185 170 185 6 0 17 7 24 15 16 19 109 65 132 65
10 0 18 5 18 10 0 6 20 10 44 10 25 0 48 5 51 10 3 6 46 10 96 10 53 0 89 -4
89 -10z m3325 0 c3 -5 21 -10 40 -10 19 0 37 -4 40 -10 3 -5 17 -10 31 -10 13
0 24 -4 24 -10 0 -5 6 -10 14 -10 7 0 27 -13 44 -30 18 -16 36 -30 41 -30 10
0 34 -38 47 -72 3 -10 10 -18 15 -18 5 0 9 -9 9 -20 0 -11 5 -20 10 -20 6 0
10 -35 10 -84 0 -47 5 -88 10 -91 6 -4 10 -111 10 -289 0 -305 2 -316 55 -366
26 -24 33 -54 15 -65 -5 -3 -10 -1 -10 4 0 16 -332 15 -348 -1 -9 -9 -12 -5
-12 18 0 21 10 40 35 64 29 28 35 41 35 76 0 24 5 46 10 49 6 3 10 42 10 85 0
43 -4 82 -10 85 -6 4 -10 88 -10 220 0 132 -4 216 -10 220 -5 3 -10 15 -10 25
0 41 -81 160 -108 160 -5 0 -17 9 -27 20 -10 11 -28 20 -41 20 -13 0 -26 5
-29 10 -3 6 -31 10 -61 10 -30 0 -54 -4 -54 -10 0 -5 -9 -10 -20 -10 -11 0
-20 -4 -20 -10 0 -5 -5 -10 -12 -10 -16 0 -78 -60 -78 -75 0 -7 -9 -20 -20
-30 -11 -10 -20 -24 -20 -32 0 -7 -4 -13 -10 -13 -5 0 -10 -9 -10 -20 0 -11
-4 -20 -10 -20 -5 0 -10 -15 -10 -34 0 -19 -4 -38 -10 -41 -6 -4 -10 -113 -10
-295 0 -182 4 -291 10 -295 6 -3 10 -20 10 -36 0 -32 38 -79 65 -79 17 0 21
-45 5 -55 -5 -3 -10 -1 -10 4 0 16 -352 15 -368 -1 -9 -9 -12 -5 -12 20 0 18
5 32 12 32 21 0 58 43 58 66 0 13 5 26 10 29 6 4 10 120 10 315 0 195 -4 311
-10 315 -5 3 -10 17 -10 30 0 13 -4 27 -10 30 -5 3 -10 17 -10 29 0 13 -7 29
-15 36 -8 7 -15 18 -15 24 0 19 -53 65 -106 92 -36 18 -63 24 -116 24 -37 0
-68 -3 -68 -8 0 -4 -15 -13 -32 -21 -39 -16 -78 -50 -78 -66 0 -7 -9 -20 -20
-30 -11 -10 -20 -24 -20 -32 0 -7 -4 -13 -10 -13 -5 0 -10 -9 -10 -20 0 -11
-4 -20 -10 -20 -5 0 -10 -13 -10 -30 0 -16 -4 -30 -10 -30 -5 0 -10 -20 -10
-44 0 -25 -4 -48 -10 -51 -6 -4 -10 -97 -10 -245 0 -148 4 -241 10 -245 6 -3
10 -20 10 -36 0 -23 11 -41 40 -69 22 -21 40 -47 40 -57 0 -17 -13 -18 -190
-18 -182 0 -190 1 -190 20 0 10 15 34 33 53 l32 33 -1 400 -1 400 -42 43 c-50
51 -52 66 -7 66 19 0 38 5 41 10 3 6 17 10 30 10 13 0 27 5 30 10 3 6 22 10
41 10 19 0 34 5 34 10 0 6 16 10 35 10 40 0 55 -21 37 -51 -15 -23 -16 -183
-2 -174 6 3 19 25 30 49 10 23 26 49 35 56 8 7 15 17 15 23 0 15 41 57 55 57
7 0 20 9 30 20 10 11 28 20 41 20 13 0 26 5 29 10 3 6 21 10 40 10 19 0 37 5
40 10 3 6 48 10 100 10 52 0 97 -4 100 -10 3 -5 17 -10 30 -10 13 0 27 -4 30
-10 3 -5 15 -10 26 -10 11 0 34 -13 52 -30 18 -16 38 -30 45 -30 6 0 12 -6 12
-13 0 -7 14 -26 30 -42 17 -16 30 -32 30 -36 0 -4 5 -20 11 -36 l11 -28 18 40
c41 88 202 215 272 215 15 0 28 5 28 10 0 6 33 10 79 10 44 0 83 -4 86 -10z
m-12920 -20 c3 -5 19 -10 35 -10 16 0 32 -4 35 -10 3 -5 14 -10 24 -10 23 0
75 -26 91 -45 7 -8 17 -15 23 -15 15 0 77 -61 77 -75 0 -7 9 -20 20 -30 11
-10 20 -28 20 -41 0 -13 5 -26 10 -29 6 -4 10 -123 10 -325 0 -202 4 -321 10
-325 6 -3 10 -23 10 -43 0 -27 8 -44 32 -69 18 -18 38 -33 46 -33 9 0 12 -9
10 -27 l-3 -28 -127 -3 -126 -3 -16 32 c-9 18 -16 46 -16 63 0 41 -10 76 -21
76 -5 0 -9 -5 -9 -11 0 -6 -21 -33 -47 -60 -50 -53 -131 -99 -174 -99 -15 0
-31 -4 -34 -10 -3 -6 -48 -10 -100 -10 -52 0 -97 4 -100 10 -3 6 -19 10 -34
10 -30 0 -81 20 -81 33 0 4 -9 7 -20 7 -11 0 -20 5 -20 10 0 6 -7 10 -15 10
-18 0 -115 98 -115 117 0 7 -4 13 -10 13 -5 0 -10 15 -10 34 0 19 -4 38 -10
41 -5 3 -10 30 -10 60 0 30 5 57 10 60 6 3 10 15 10 26 0 28 19 57 74 116 28
29 62 55 78 58 15 4 30 11 33 16 4 5 17 9 31 9 13 0 24 5 24 10 0 6 14 10 30
10 17 0 30 5 30 10 0 6 20 10 44 10 25 0 48 5 51 10 3 6 46 10 94 10 48 0 91
4 97 10 5 5 45 10 89 12 l80 3 3 53 c2 31 -1 52 -7 52 -6 0 -11 11 -11 24 0
14 -4 28 -10 31 -5 3 -10 16 -10 29 0 13 -9 31 -20 41 -11 10 -20 23 -20 28 0
15 -41 57 -55 57 -7 0 -20 9 -30 20 -11 12 -31 20 -52 20 -18 0 -33 5 -33 10
0 6 -24 10 -54 10 -30 0 -58 -4 -61 -10 -3 -5 -22 -10 -41 -10 -19 0 -34 -3
-34 -8 0 -4 -15 -13 -32 -21 -38 -16 -138 -109 -138 -128 0 -7 -4 -13 -9 -13
-5 0 -11 -12 -13 -27 -7 -58 -78 -29 -78 32 0 17 -4 35 -9 41 -14 15 -20 81
-8 93 6 6 21 11 34 11 13 0 23 5 23 10 0 6 9 10 20 10 11 0 20 5 20 10 0 6 11
10 24 10 14 0 28 5 31 10 3 6 17 10 30 10 13 0 27 5 30 10 3 6 35 10 71 10 36
0 64 4 64 10 0 6 46 10 119 10 69 0 122 -4 126 -10z m1250 1 c3 -5 1 -12 -5
-16 -5 -3 -10 -17 -10 -31 0 -13 -4 -24 -10 -24 -5 0 -10 -15 -10 -34 0 -19
-4 -38 -10 -41 -5 -3 -10 -14 -10 -24 0 -21 -22 -71 -32 -71 -4 0 -23 9 -43
20 -20 11 -48 20 -63 20 -40 0 -132 -48 -142 -74 -4 -12 -15 -28 -24 -35 -9
-7 -16 -24 -16 -37 0 -12 -4 -26 -10 -29 -5 -3 -10 -22 -10 -41 0 -19 -4 -34
-10 -34 -6 0 -10 -67 -10 -180 0 -113 4 -180 10 -180 6 0 10 -33 10 -78 0 -98
17 -136 71 -160 33 -14 39 -21 39 -46 0 -23 -3 -27 -12 -18 -15 15 -374 17
-383 2 -4 -6 -11 -8 -16 -5 -14 9 -11 41 6 55 24 20 45 71 45 111 0 21 5 41
10 44 6 4 10 88 10 220 0 132 -4 216 -10 220 -6 4 -10 59 -10 134 0 144 -9
173 -57 192 -26 10 -33 18 -33 41 0 26 2 28 44 28 25 0 48 5 51 10 3 6 22 10
41 10 19 0 34 5 34 10 0 6 11 10 24 10 14 0 28 5 31 10 10 16 65 12 82 -6 12
-11 13 -18 4 -27 -14 -14 -15 -213 -1 -222 6 -3 10 3 10 14 0 12 5 21 10 21 6
0 10 7 10 16 0 8 14 27 30 41 17 13 30 30 30 36 0 14 61 77 75 77 6 0 17 9 25
20 8 11 22 20 32 20 10 0 18 5 18 10 0 6 11 10 24 10 14 0 28 5 31 10 8 13
122 13 130 1z m1350 -1 c3 -5 14 -10 24 -10 22 0 116 -47 131 -65 7 -8 17 -15
22 -15 11 0 51 -39 61 -60 4 -8 16 -28 26 -45 11 -16 20 -40 20 -52 1 -12 6
-25 11 -28 6 -4 10 -53 10 -115 0 -62 4 -111 10 -115 6 -4 10 -92 10 -230 0
-138 4 -226 10 -230 6 -3 10 -16 10 -29 0 -22 31 -57 63 -69 18 -7 23 -42 7
-52 -5 -3 -10 -1 -10 4 0 17 -352 15 -369 -1 -10 -11 -12 -6 -9 22 2 24 10 38
23 44 22 10 45 49 45 77 0 10 5 21 10 24 6 4 10 78 10 190 0 112 -4 186 -10
190 -6 4 -10 57 -10 125 0 68 -4 121 -10 125 -5 3 -10 17 -10 30 0 13 -4 26
-9 29 -5 3 -12 18 -16 33 -9 38 -103 133 -132 133 -12 0 -25 5 -28 10 -3 6
-31 10 -61 10 -30 0 -54 -4 -54 -10 0 -5 -11 -10 -24 -10 -13 0 -30 -7 -37
-16 -7 -9 -24 -20 -36 -25 -13 -5 -27 -19 -32 -31 -5 -13 -21 -34 -35 -47 -14
-14 -26 -35 -26 -48 0 -13 -4 -23 -10 -23 -5 0 -10 -9 -10 -20 0 -11 -4 -20
-10 -20 -5 0 -10 -15 -10 -34 0 -19 -4 -38 -10 -41 -6 -4 -10 -107 -10 -275 0
-168 4 -271 10 -275 6 -3 10 -17 10 -31 0 -13 5 -24 10 -24 6 0 10 -7 10 -15
0 -9 8 -19 18 -22 26 -10 42 -29 42 -50 0 -17 -13 -18 -200 -18 l-200 0 0 23
c0 12 5 22 12 22 21 0 58 43 58 66 0 13 5 26 10 29 6 4 10 133 10 355 0 222
-4 351 -10 355 -5 3 -10 21 -10 39 0 24 -9 41 -35 66 -41 40 -45 60 -11 60 14
0 28 5 31 10 3 6 22 10 41 10 19 0 34 5 34 10 0 6 15 10 34 10 19 0 38 5 41
10 3 6 21 10 38 10 l32 0 -2 -117 c-2 -74 1 -110 6 -98 5 12 16 27 25 34 9 7
16 19 16 26 0 6 9 20 20 30 11 10 20 23 20 30 0 7 9 20 19 29 33 30 153 86
183 86 15 0 28 5 28 10 0 6 36 10 89 10 50 0 93 -4 96 -10z m5910 0 c3 -5 30
-10 60 -10 30 0 57 -4 60 -10 3 -5 19 -10 35 -10 16 0 32 -4 35 -10 3 -5 17
-10 30 -10 28 0 42 -17 26 -33 -6 -6 -11 -26 -11 -43 0 -18 -4 -36 -10 -39 -5
-3 -10 -17 -10 -31 0 -13 -4 -24 -10 -24 -5 0 -10 -9 -10 -20 0 -12 -7 -20
-16 -20 -20 0 -44 24 -44 44 0 9 -4 16 -10 16 -5 0 -10 5 -10 12 0 14 -40 58
-52 58 -5 0 -18 9 -30 20 -12 11 -28 20 -35 20 -7 0 -13 5 -13 10 0 6 -15 10
-34 10 -19 0 -38 5 -41 10 -3 6 -50 10 -105 10 -55 0 -102 -4 -105 -10 -3 -5
-16 -10 -29 -10 -13 0 -31 -9 -41 -20 -10 -11 -23 -20 -30 -20 -6 0 -21 -10
-32 -22 -65 -74 -70 -188 -9 -243 42 -38 71 -55 95 -55 11 0 23 -4 26 -10 3
-5 46 -10 95 -10 49 0 92 -4 95 -10 3 -5 40 -10 81 -10 43 0 74 -4 74 -10 0
-5 20 -10 44 -10 25 0 48 -4 51 -10 3 -5 14 -10 24 -10 50 0 118 -58 157 -136
18 -36 24 -63 24 -115 0 -37 -4 -71 -10 -74 -5 -3 -10 -14 -10 -24 0 -67 -168
-221 -241 -221 -10 0 -21 -4 -24 -10 -3 -5 -17 -10 -30 -10 -13 0 -27 -4 -30
-10 -3 -5 -24 -10 -45 -10 -21 0 -42 -4 -45 -10 -4 -6 -68 -10 -160 -10 -92 0
-156 4 -160 10 -3 6 -33 10 -65 10 -32 0 -62 5 -65 10 -3 6 -21 10 -40 10 -19
0 -37 5 -40 10 -3 6 -17 10 -30 10 -13 0 -27 5 -30 10 -3 6 -17 10 -31 10 -20
0 -24 5 -24 30 0 17 5 30 10 30 6 0 10 15 10 33 0 19 3 37 7 41 5 4 12 26 18
49 15 62 35 58 68 -13 16 -34 36 -64 45 -67 9 -3 25 -13 34 -21 32 -27 152
-82 180 -82 15 0 28 -4 28 -10 0 -6 40 -10 99 -10 56 0 103 4 106 10 3 6 17
10 30 10 13 0 27 5 30 10 3 6 17 10 31 10 13 0 24 5 24 10 0 6 7 10 15 10 17
0 71 50 98 92 23 37 23 139 0 176 -26 39 -40 52 -57 52 -9 0 -16 5 -16 10 0 6
-9 10 -20 10 -11 0 -20 5 -20 10 0 6 -28 10 -64 10 -36 0 -68 5 -71 10 -3 6
-50 10 -105 10 -55 0 -102 4 -105 10 -3 6 -22 10 -41 10 -19 0 -34 5 -34 10 0
6 -8 10 -18 10 -10 0 -41 11 -68 25 -27 14 -54 25 -60 25 -17 0 -54 44 -80 96
-34 67 -34 171 0 239 26 50 92 125 111 125 7 0 20 9 30 20 10 11 28 20 41 20
13 0 26 5 29 10 3 6 17 10 30 10 13 0 27 5 30 10 3 6 19 10 35 10 16 0 32 5
35 10 4 6 72 10 170 10 98 0 166 -4 170 -10z m-6877 -305 c1 -159 6 -273 12
-279 6 -6 10 -83 10 -182 0 -105 4 -175 10 -179 6 -3 10 -16 10 -28 0 -23 56
-87 77 -87 8 0 13 -12 13 -32 0 -25 -3 -29 -12 -20 -15 15 -394 17 -403 2 -9
-15 -25 -2 -25 21 0 13 13 25 38 36 21 9 43 27 50 41 9 19 12 131 12 407 0
412 -3 435 -54 455 -28 10 -50 36 -41 50 3 5 24 10 45 10 21 0 42 5 45 10 3 6
17 10 30 10 13 0 27 5 30 10 3 6 21 10 40 10 19 0 37 5 40 11 4 5 21 9 38 7
l32 -3 3 -270z m5132 -114 c0 -236 4 -372 10 -376 6 -3 10 -17 10 -31 0 -13 5
-24 10 -24 6 0 10 -12 10 -28 0 -16 8 -32 20 -40 11 -7 20 -17 20 -24 0 -16
40 -58 55 -58 7 0 20 -9 30 -20 10 -11 24 -20 32 -20 7 0 13 -4 13 -10 0 -6
35 -10 85 -10 47 0 85 3 85 8 0 4 15 13 33 21 36 15 117 89 117 107 0 6 9 19
20 29 11 10 20 24 20 32 0 7 5 13 10 13 6 0 10 15 10 34 0 19 5 38 10 41 6 4
10 108 10 279 0 294 -2 306 -55 356 -32 30 -32 50 -1 50 14 0 28 5 31 10 3 6
30 10 59 10 28 0 57 5 63 11 5 5 32 9 59 7 l49 -3 3 -310 c1 -186 6 -313 12
-319 6 -6 10 -65 10 -132 0 -71 4 -125 10 -129 6 -3 10 -16 11 -28 1 -38 33
-82 62 -85 21 -3 27 -9 27 -28 0 -29 -25 -42 -51 -26 -23 15 -151 16 -165 2
-14 -14 -66 12 -76 37 -3 10 -7 34 -7 54 -1 36 -20 89 -33 89 -5 0 -8 -6 -8
-13 0 -8 -12 -24 -26 -38 -14 -13 -30 -34 -35 -47 -5 -12 -20 -27 -33 -32 -13
-5 -27 -13 -30 -19 -9 -14 -66 -41 -87 -41 -10 0 -21 -4 -24 -10 -4 -6 -58
-10 -130 -10 -72 0 -126 4 -130 10 -3 6 -22 10 -41 10 -19 0 -34 4 -34 8 0 5
-16 14 -35 22 -20 8 -43 22 -52 32 -9 10 -21 18 -28 18 -33 0 -115 128 -115
182 0 15 -4 28 -10 28 -6 0 -10 112 -10 317 l0 317 -32 33 c-18 18 -38 33 -45
33 -7 0 -13 9 -13 20 0 17 7 20 45 20 25 0 45 5 45 10 0 6 24 10 54 10 30 0
58 5 61 10 3 6 26 10 51 10 l44 0 0 -369z m3630 295 c0 -41 -4 -78 -10 -81 -6
-4 -10 -75 -10 -180 0 -105 4 -176 10 -180 6 -4 10 -60 10 -136 0 -79 4 -129
10 -129 6 0 10 -8 10 -18 0 -49 92 -155 158 -183 17 -8 32 -17 32 -21 0 -5 34
-8 75 -8 43 0 75 4 75 10 0 6 11 10 24 10 13 0 30 7 37 16 7 9 24 20 36 25 13
5 27 19 32 31 5 13 21 34 35 47 14 14 26 30 26 38 0 7 5 13 10 13 6 0 10 14
10 30 0 17 5 30 10 30 6 0 10 15 10 34 0 19 5 38 10 41 6 4 10 93 10 235 0
142 -4 231 -10 235 -5 3 -10 19 -10 34 0 33 -21 81 -36 81 -17 0 -47 37 -39
49 3 6 19 11 35 11 16 0 32 5 35 10 3 6 25 10 49 10 23 0 47 5 53 11 5 5 37 9
69 7 57 -3 59 -4 62 -32 2 -16 -1 -33 -7 -39 -14 -14 -15 -243 -1 -252 6 -4
10 -107 10 -275 0 -168 4 -271 10 -275 6 -3 10 -15 10 -26 0 -35 52 -109 77
-109 8 0 13 -12 13 -30 0 -30 -21 -42 -35 -20 -3 6 -44 10 -91 10 -49 0 -84
-4 -84 -10 0 -17 -22 -11 -47 12 -13 12 -23 32 -23 44 0 13 -4 26 -10 29 -5 3
-10 26 -10 51 0 24 -3 44 -7 44 -11 0 -53 -43 -53 -55 0 -33 -145 -135 -191
-135 -10 0 -21 -4 -24 -10 -4 -6 -58 -10 -130 -10 -72 0 -126 4 -130 10 -3 6
-17 10 -31 10 -13 0 -24 5 -24 10 0 6 -11 10 -23 10 -13 0 -32 9 -42 20 -10
11 -23 20 -29 20 -20 0 -106 95 -132 145 -24 48 -24 49 -24 372 0 193 -4 323
-9 323 -5 0 -11 12 -13 27 -2 17 -13 32 -33 43 -16 9 -31 26 -33 38 -3 19 1
22 32 22 20 0 36 5 36 10 0 6 24 10 54 10 30 0 58 5 61 10 3 6 31 10 61 10
l54 0 0 -74z m-398 -1233 c13 -12 18 -31 18 -74 0 -32 -4 -61 -10 -64 -5 -3
-10 -17 -10 -30 0 -13 5 -27 10 -30 6 -4 10 -118 10 -309 0 -233 3 -310 13
-329 l14 -26 64 65 c35 35 68 64 74 64 6 0 37 27 70 60 33 33 64 60 70 60 13
0 85 75 103 109 12 20 11 26 -9 47 -12 13 -19 30 -15 39 5 13 32 15 208 13
184 -3 203 -5 206 -20 3 -14 -3 -18 -25 -18 -30 0 -224 -92 -257 -122 -11 -10
-26 -18 -33 -18 -8 0 -16 -7 -19 -15 -4 -8 -14 -15 -23 -15 -9 0 -27 -14 -40
-30 -13 -17 -29 -30 -35 -30 -7 0 -30 -18 -51 -40 -21 -22 -43 -40 -49 -40 -5
0 -20 -10 -32 -21 -13 -12 -33 -27 -45 -33 -33 -16 -35 -36 -5 -36 14 0 26 -4
26 -10 0 -5 24 -10 54 -10 30 0 58 -4 61 -10 3 -5 16 -10 28 -10 22 0 157
-125 157 -145 0 -6 14 -24 30 -40 17 -16 30 -34 30 -40 0 -6 14 -24 30 -40 17
-16 30 -34 30 -40 0 -6 14 -24 30 -40 17 -16 30 -34 30 -40 0 -19 126 -136
171 -158 29 -15 45 -30 47 -45 l3 -22 -182 0 c-156 0 -185 2 -201 17 -10 9
-18 21 -18 26 0 6 -7 19 -17 29 -19 21 -40 56 -49 81 -3 9 -10 17 -15 17 -5 0
-9 7 -9 16 0 9 -8 24 -18 33 -10 9 -26 32 -35 52 -9 20 -23 42 -32 49 -8 7
-15 18 -15 25 0 6 -9 20 -20 30 -11 10 -20 23 -20 29 0 14 -125 136 -157 154
-33 17 -54 15 -80 -10 -22 -21 -23 -27 -23 -190 0 -105 4 -168 10 -168 6 0 10
-15 10 -33 0 -26 10 -42 45 -77 80 -79 77 -80 -170 -80 -201 0 -215 1 -215 18
0 10 16 33 35 52 l35 34 0 422 c0 271 4 425 10 429 13 8 13 327 1 341 -5 5
-11 20 -13 34 -2 18 -15 31 -45 45 -54 26 -59 55 -9 55 19 0 38 5 41 10 3 6
22 10 41 10 19 0 34 5 34 10 0 6 14 10 30 10 17 0 30 5 30 10 0 6 11 10 24 10
14 0 28 5 31 10 9 14 16 13 37 -7z m-7617 -133 c3 -5 28 -10 55 -10 27 0 51
-4 54 -9 3 -5 37 -12 76 -16 39 -4 73 -11 76 -16 3 -5 16 -9 30 -9 13 0 24 -4
24 -10 0 -5 9 -10 20 -10 11 0 20 -4 20 -10 0 -5 6 -10 13 -10 8 0 22 -9 32
-20 10 -11 24 -20 31 -20 19 0 28 -20 15 -33 -6 -6 -11 -21 -11 -33 0 -13 -4
-26 -10 -29 -5 -3 -10 -17 -10 -30 0 -13 -4 -27 -10 -30 -5 -3 -10 -19 -10
-34 0 -15 -9 -36 -20 -46 -19 -17 -21 -17 -40 0 -11 10 -20 26 -20 36 0 46
-117 199 -153 199 -7 0 -19 9 -27 20 -8 11 -24 20 -37 20 -12 0 -25 5 -28 10
-3 6 -17 10 -30 10 -13 0 -27 5 -30 10 -4 6 -62 10 -140 10 -78 0 -136 -4
-140 -10 -3 -5 -17 -10 -31 -10 -13 0 -24 -3 -24 -8 0 -4 -15 -13 -32 -21 -18
-8 -46 -26 -63 -41 -16 -15 -38 -30 -48 -33 -9 -4 -20 -15 -24 -24 -3 -10 -18
-31 -33 -48 -15 -16 -33 -45 -41 -62 -8 -18 -17 -33 -21 -33 -5 0 -8 -11 -8
-24 0 -14 -4 -28 -10 -31 -5 -3 -10 -17 -10 -30 0 -13 -4 -27 -10 -30 -5 -3
-10 -21 -10 -40 0 -19 -4 -37 -10 -40 -6 -4 -10 -65 -10 -150 0 -85 4 -146 10
-150 6 -3 10 -19 10 -35 0 -16 5 -32 10 -35 6 -3 10 -17 10 -30 0 -13 5 -27
10 -30 6 -3 10 -14 10 -24 0 -23 26 -75 45 -91 8 -7 15 -18 15 -24 0 -6 28
-40 63 -74 62 -61 142 -112 178 -112 10 0 21 -4 24 -10 3 -5 22 -10 41 -10 19
0 34 -4 34 -10 0 -6 35 -10 85 -10 50 0 85 4 85 10 0 6 13 10 28 10 40 0 81
22 122 67 42 46 60 76 60 102 0 11 5 23 10 26 6 3 10 52 10 110 0 58 -4 107
-10 110 -5 3 -10 19 -10 34 0 74 -70 141 -148 141 -28 0 -45 7 -62 25 -18 19
-20 26 -9 30 27 10 614 1 613 -10 -1 -5 -11 -15 -24 -21 -12 -7 -39 -29 -61
-50 l-39 -38 -2 -215 c-3 -209 -4 -216 -24 -226 -12 -6 -29 -17 -38 -24 -27
-22 -148 -81 -167 -81 -10 0 -21 -4 -24 -10 -3 -5 -17 -10 -31 -10 -13 0 -24
-4 -24 -10 0 -5 -20 -10 -44 -10 -25 0 -48 -4 -51 -10 -4 -6 -82 -10 -201 -10
-123 0 -194 4 -194 10 0 6 -15 10 -34 10 -19 0 -38 5 -41 10 -3 6 -17 10 -30
10 -13 0 -27 5 -30 10 -3 6 -14 10 -25 10 -23 0 -100 40 -121 63 -9 9 -20 17
-25 17 -5 0 -26 16 -46 35 -20 19 -42 35 -48 35 -6 0 -14 8 -17 18 -4 9 -24
34 -45 54 -21 20 -38 40 -38 45 0 5 -16 40 -35 77 -19 38 -35 81 -35 97 0 15
-4 31 -10 34 -6 4 -10 70 -10 165 0 95 4 161 10 165 6 3 10 22 10 41 0 19 3
34 8 34 4 0 13 15 21 33 7 17 21 48 29 67 16 37 189 220 208 220 6 0 18 8 27
18 9 10 32 24 52 32 19 8 35 17 35 22 0 4 8 8 19 8 10 0 32 7 47 15 16 8 43
15 61 15 17 0 35 5 38 10 3 6 31 10 61 10 30 0 54 5 54 10 0 6 48 10 124 10
73 0 127 -4 131 -10z m4037 -42 c-7 -7 -12 -42 -12 -88 0 -47 -5 -81 -12 -88
-10 -10 -10 -17 0 -32 6 -11 12 -29 12 -40 0 -19 6 -20 98 -20 86 0 101 -3
117 -20 17 -19 17 -21 0 -40 -16 -17 -31 -20 -117 -20 l-98 0 0 -214 c0 -133
4 -217 10 -221 6 -4 10 -77 10 -186 0 -113 4 -179 10 -179 6 0 10 -5 10 -12 0
-17 101 -118 117 -118 7 0 13 -9 13 -20 0 -19 -7 -20 -148 -20 -142 0 -149 1
-168 23 -43 50 -44 56 -44 341 0 173 -4 277 -10 281 -6 4 -10 67 -10 155 l0
149 -82 3 c-82 3 -83 3 -86 31 -3 21 1 27 16 27 27 0 74 25 102 55 13 14 28
25 34 25 14 0 106 92 106 106 0 6 7 17 15 24 9 7 23 29 32 49 24 54 32 61 66
61 24 0 28 -3 19 -12z m1238 -1 c0 -8 -9 -22 -20 -32 -48 -44 -50 -58 -50
-401 0 -204 4 -325 10 -329 6 -4 10 -84 10 -208 l0 -201 32 -33 c25 -26 40
-33 69 -33 21 0 41 -4 44 -10 3 -6 48 -10 101 -10 56 0 94 4 94 10 0 6 24 10
54 10 30 0 58 5 61 10 3 6 21 10 40 10 19 0 37 5 40 10 3 6 17 10 31 10 13 0
24 5 24 10 0 6 9 10 21 10 31 0 101 35 128 64 14 14 29 26 35 26 13 0 56 41
56 54 0 17 43 56 62 56 14 0 18 -8 18 -34 0 -19 -4 -38 -10 -41 -5 -3 -10 -17
-10 -31 0 -13 -4 -24 -10 -24 -5 0 -10 -15 -10 -34 0 -19 -4 -38 -10 -41 -5
-3 -10 -21 -10 -40 0 -19 -4 -37 -10 -40 -5 -3 -10 -17 -10 -31 l0 -24 -605 0
c-598 0 -605 0 -605 20 0 11 5 20 12 20 7 0 32 19 55 42 l43 42 0 544 0 543
-50 50 c-27 27 -50 54 -50 59 0 6 84 10 210 10 169 0 210 -3 210 -13z m-3265
-197 c3 -5 19 -10 35 -10 16 0 32 -4 35 -10 3 -5 14 -10 23 -10 22 0 157 -67
172 -85 7 -8 18 -15 24 -15 34 0 146 -154 146 -201 0 -10 5 -21 10 -24 6 -3
10 -22 10 -41 l0 -34 -445 0 -445 0 0 -34 c0 -19 -4 -38 -10 -41 -5 -3 -10
-26 -10 -50 0 -24 5 -47 10 -50 6 -3 10 -35 10 -71 0 -36 4 -64 10 -64 6 0 10
-11 10 -24 0 -14 5 -28 10 -31 6 -3 10 -16 11 -28 0 -12 9 -35 20 -52 10 -16
23 -39 28 -50 16 -36 77 -86 147 -121 63 -31 75 -34 160 -34 51 0 96 4 99 10
3 6 17 10 31 10 13 0 24 5 24 10 0 6 11 10 23 10 13 0 32 9 42 20 10 11 23 20
29 20 14 0 156 141 156 155 0 5 11 32 25 59 14 27 25 56 25 63 0 21 32 51 38
35 2 -6 13 -12 25 -12 16 0 18 -3 9 -12 -7 -7 -12 -22 -12 -34 0 -13 -4 -26
-10 -29 -5 -3 -10 -14 -10 -24 0 -15 -21 -60 -65 -139 -18 -33 -87 -102 -101
-102 -6 0 -17 -7 -24 -15 -15 -18 -109 -65 -131 -65 -10 0 -21 -4 -24 -10 -3
-5 -24 -10 -45 -10 -21 0 -42 -4 -45 -10 -4 -6 -53 -10 -115 -10 -62 0 -111 4
-115 10 -3 6 -22 10 -41 10 -19 0 -34 5 -34 10 0 6 -8 10 -17 10 -28 0 -157
67 -183 95 -13 14 -29 25 -35 25 -20 0 -57 47 -84 105 -5 12 -16 27 -25 34 -9
7 -16 24 -16 37 0 12 -4 26 -10 29 -5 3 -10 17 -10 30 0 13 -4 27 -10 30 -5 3
-10 28 -10 55 0 27 -4 52 -10 55 -5 3 -10 31 -10 61 0 30 5 54 10 54 6 0 10
24 10 54 0 30 5 58 10 61 6 3 10 14 10 24 0 24 47 115 70 136 11 10 20 22 20
26 0 14 42 59 55 59 6 0 22 11 35 25 26 27 155 95 182 95 9 0 20 5 23 10 3 6
24 10 45 10 21 0 42 5 45 10 3 6 46 10 95 10 49 0 92 -4 95 -10z m7140 0 c3
-5 24 -10 45 -10 22 0 55 -9 75 -20 20 -11 43 -20 52 -20 8 0 23 -8 32 -18 9
-10 32 -25 51 -34 36 -17 155 -135 178 -175 6 -13 12 -32 12 -43 0 -11 5 -20
10 -20 6 0 10 -20 10 -45 l0 -45 -447 -2 -448 -3 -3 -134 c-2 -83 1 -138 8
-145 5 -5 10 -22 10 -36 0 -29 21 -80 33 -80 4 0 7 -9 7 -20 0 -11 5 -20 10
-20 6 0 10 -9 10 -20 0 -11 5 -20 10 -20 6 0 10 -5 10 -12 0 -15 60 -78 75
-78 6 0 17 -9 25 -20 8 -11 22 -20 32 -20 10 0 18 -4 18 -10 0 -5 11 -10 24
-10 14 0 28 -4 31 -10 3 -6 50 -10 105 -10 55 0 102 4 105 10 3 6 14 10 24 10
21 0 78 27 87 41 3 6 16 15 27 20 60 27 107 64 107 84 0 6 11 22 25 35 25 23
75 114 75 135 0 20 25 65 36 65 6 0 19 -9 29 -20 14 -16 16 -23 7 -32 -7 -7
-12 -19 -12 -28 0 -21 -23 -70 -32 -70 -5 0 -8 -9 -8 -20 0 -11 -3 -20 -8 -20
-4 0 -13 -15 -21 -32 -15 -36 -109 -138 -127 -138 -6 0 -19 -9 -29 -20 -10
-11 -24 -20 -32 -20 -7 0 -13 -4 -13 -10 0 -5 -9 -10 -20 -10 -11 0 -20 -4
-20 -10 0 -5 -11 -10 -24 -10 -14 0 -28 -4 -31 -10 -3 -5 -26 -10 -50 -10 -24
0 -47 -4 -50 -10 -3 -6 -52 -10 -110 -10 -58 0 -107 4 -110 10 -3 6 -21 10
-40 10 -19 0 -37 5 -40 10 -3 6 -17 10 -31 10 -13 0 -24 5 -24 10 0 6 -9 10
-20 10 -11 0 -20 3 -20 8 0 4 -15 13 -32 21 -44 18 -185 157 -205 201 -9 19
-26 49 -37 65 -19 28 -21 44 -21 220 l0 190 37 75 c50 101 164 213 263 259 39
18 78 37 87 42 10 5 36 9 57 9 22 0 43 5 46 10 3 6 44 10 90 10 46 0 87 -4 90
-10z m-7808 -26 c3 -8 1 -20 -6 -27 -6 -6 -11 -21 -11 -34 0 -13 -4 -23 -10
-23 -5 0 -10 -11 -10 -24 0 -14 -4 -28 -10 -31 -5 -3 -10 -14 -10 -24 0 -21
-22 -71 -32 -71 -4 0 -23 9 -43 20 -20 11 -48 20 -63 20 -33 0 -122 -41 -122
-56 0 -6 -7 -17 -15 -24 -29 -24 -65 -113 -65 -162 0 -26 -4 -48 -10 -48 -5 0
-10 -24 -10 -54 0 -30 5 -58 10 -61 6 -4 10 -78 10 -189 l0 -182 29 -28 c17
-16 40 -34 53 -40 13 -6 24 -22 26 -34 l3 -22 -205 0 c-197 0 -206 1 -206 19
0 11 4 22 9 26 14 8 41 65 41 86 0 10 5 21 10 24 16 10 13 719 -2 748 -24 42
-52 67 -75 67 -19 0 -23 5 -23 30 0 29 2 30 44 30 25 0 48 5 51 10 3 6 22 10
41 10 19 0 34 5 34 10 0 6 10 10 23 10 13 0 28 5 34 11 6 6 28 9 49 7 32 -2
40 -7 42 -27 2 -13 -1 -28 -7 -34 -14 -14 -15 -194 -1 -202 6 -3 10 0 10 8 0
8 9 22 20 32 11 10 20 23 20 30 0 7 9 20 20 30 11 10 20 23 20 29 0 14 61 76
76 76 6 0 17 7 24 15 16 19 68 45 91 45 10 0 21 5 24 10 3 6 31 10 61 10 40 0
56 -4 61 -16z m1858 6 c3 -5 21 -10 40 -10 19 0 37 -4 40 -10 3 -5 14 -10 24
-10 23 0 75 -26 91 -45 7 -8 18 -15 24 -15 19 0 65 -52 94 -106 l26 -49 4
-335 c2 -191 7 -339 13 -345 5 -5 9 -22 9 -38 0 -20 12 -40 41 -68 63 -60 52
-69 -82 -69 -128 0 -149 9 -149 67 0 18 -4 33 -10 33 -5 0 -10 17 -10 38 l0
37 -18 -35 c-18 -38 -55 -80 -70 -80 -5 0 -15 -7 -22 -15 -21 -25 -113 -65
-151 -65 -21 0 -41 -4 -44 -10 -3 -5 -33 -10 -66 -10 -33 0 -59 4 -59 10 0 6
-20 10 -44 10 -25 0 -48 5 -51 10 -3 6 -14 10 -24 10 -23 0 -75 26 -91 45 -7
8 -18 15 -24 15 -19 0 -70 60 -97 114 -19 40 -24 65 -24 131 0 52 5 93 14 111
25 50 104 124 161 152 30 14 57 30 58 34 2 4 19 8 37 8 19 0 37 5 40 10 3 6
21 10 40 10 19 0 37 5 40 10 3 6 42 10 85 10 43 0 82 5 85 10 3 6 51 10 107
10 l101 0 -7 74 c-9 98 -81 246 -121 246 -7 0 -20 9 -30 20 -10 11 -28 20 -41
20 -13 0 -26 5 -29 10 -3 6 -33 10 -65 10 -32 0 -62 -4 -65 -10 -3 -5 -19 -10
-34 -10 -30 0 -81 -20 -81 -32 0 -5 -7 -8 -15 -8 -19 0 -115 -97 -115 -116 0
-8 -4 -14 -9 -14 -5 0 -11 -12 -13 -27 -6 -57 -78 -34 -78 24 0 16 -4 33 -9
39 -8 8 -16 70 -12 102 0 6 14 12 31 12 17 0 30 3 30 8 0 10 50 32 71 32 10 0
21 5 24 10 3 6 17 10 30 10 13 0 27 5 30 10 3 6 31 10 61 10 30 0 54 5 54 10
0 6 48 10 124 10 73 0 127 -4 131 -10z m3610 0 c3 -5 19 -10 34 -10 41 0 158
-63 208 -112 53 -52 93 -129 93 -179 0 -21 5 -41 10 -44 6 -4 10 -121 10 -318
0 -338 2 -348 55 -377 17 -9 31 -26 33 -39 3 -21 3 -22 -130 -19 l-133 3 -3
25 c-2 14 -8 29 -13 35 -5 5 -9 26 -9 47 0 27 -4 38 -15 38 -8 0 -15 -6 -15
-13 0 -14 -93 -105 -127 -125 -13 -6 -32 -12 -42 -12 -11 0 -23 -4 -26 -10 -3
-5 -26 -10 -51 -10 -24 0 -44 -4 -44 -10 0 -5 -25 -10 -55 -10 -30 0 -55 5
-55 10 0 6 -20 10 -44 10 -25 0 -48 5 -51 10 -3 6 -14 10 -24 10 -58 0 -202
115 -216 173 -4 15 -11 30 -16 33 -5 3 -9 47 -9 99 0 52 4 96 9 99 5 3 12 18
16 33 7 31 58 90 90 104 11 5 34 18 50 28 17 11 40 20 52 20 12 1 25 6 28 11
3 6 17 10 31 10 13 0 24 5 24 10 0 6 20 10 44 10 25 0 48 5 51 10 3 6 37 10
75 10 38 0 72 5 75 10 3 6 52 10 111 10 l104 0 0 59 c0 33 -4 63 -10 66 -5 3
-10 14 -10 24 0 28 -46 110 -82 148 -36 37 -81 63 -109 63 -10 0 -21 5 -24 10
-3 6 -33 10 -65 10 -32 0 -62 -4 -65 -10 -3 -5 -17 -10 -31 -10 -13 0 -24 -4
-24 -10 0 -5 -12 -10 -28 -10 -16 0 -32 -8 -40 -20 -7 -11 -18 -20 -25 -20
-21 0 -72 -61 -98 -118 -21 -45 -28 -52 -49 -50 -19 2 -26 10 -28 31 -2 15 -8
27 -13 27 -5 0 -9 14 -9 30 0 17 -6 39 -12 50 -15 24 -3 50 30 65 12 5 22 13
22 17 0 5 9 8 20 8 11 0 20 5 20 10 0 6 11 10 24 10 14 0 28 5 31 10 3 6 21
10 40 10 19 0 37 5 40 10 3 6 30 10 60 10 30 0 57 5 60 10 4 6 57 10 125 10
68 0 121 -4 125 -10z m3650 0 c3 -5 30 -10 60 -10 30 0 57 -4 60 -10 3 -5 19
-10 36 -10 16 0 37 -4 47 -9 9 -5 25 -12 35 -15 18 -6 23 -41 7 -51 -5 -3 -10
-16 -10 -29 0 -12 -4 -26 -9 -31 -5 -6 -11 -25 -13 -44 -6 -65 -66 -61 -82 5
-12 48 -125 134 -176 134 -11 0 -22 5 -25 10 -4 6 -53 10 -116 10 -66 0 -109
-4 -109 -10 0 -5 -9 -10 -20 -10 -11 0 -20 -4 -20 -10 0 -5 -9 -10 -20 -10
-11 0 -20 -4 -20 -9 0 -5 -9 -11 -20 -14 -11 -3 -24 -16 -29 -29 -5 -13 -16
-30 -25 -37 -12 -10 -16 -32 -16 -87 0 -43 4 -74 10 -74 6 0 10 -6 10 -12 1
-20 36 -58 54 -58 9 0 16 -4 16 -10 0 -5 15 -10 34 -10 19 0 38 -4 41 -10 3
-6 50 -10 105 -10 55 0 102 -4 105 -10 3 -5 35 -10 71 -10 36 0 64 -4 64 -10
0 -5 15 -10 34 -10 19 0 38 -4 41 -10 3 -5 16 -10 28 -11 12 0 36 -9 52 -20
17 -10 40 -23 53 -29 12 -5 22 -16 22 -23 0 -8 9 -22 20 -32 11 -10 20 -28 20
-41 0 -13 5 -26 10 -29 6 -3 10 -35 10 -70 0 -35 -4 -67 -10 -70 -5 -3 -10
-15 -10 -26 0 -10 -6 -29 -12 -42 -19 -32 -110 -127 -124 -127 -6 0 -17 -7
-24 -15 -16 -19 -68 -45 -92 -45 -10 0 -18 -4 -18 -10 0 -5 -13 -10 -30 -10
-16 0 -30 -4 -30 -10 0 -5 -24 -10 -54 -10 -30 0 -58 -4 -61 -10 -3 -6 -52
-10 -110 -10 -58 0 -107 4 -110 10 -3 6 -42 10 -85 10 -43 0 -82 5 -85 10 -3
6 -26 10 -50 10 -24 0 -47 5 -50 10 -3 6 -17 10 -30 10 -13 0 -27 5 -30 10 -3
6 -15 10 -26 10 -25 0 -54 26 -39 35 5 3 10 21 10 40 0 19 5 37 10 40 6 3 10
17 10 30 0 13 5 27 10 30 6 3 10 17 10 31 0 47 40 23 70 -41 18 -38 60 -85 76
-85 6 0 17 -7 24 -15 16 -19 68 -45 91 -45 10 0 21 -4 24 -10 3 -5 22 -10 41
-10 19 0 34 -4 34 -10 0 -6 35 -10 85 -10 50 0 85 4 85 10 0 6 15 10 34 10 19
0 38 5 41 10 3 6 16 10 29 10 13 0 31 9 41 20 10 11 23 20 30 20 13 0 64 54
83 87 6 13 12 50 12 83 0 58 -2 64 -42 106 -25 27 -50 44 -64 44 -13 0 -26 5
-29 10 -3 6 -26 10 -50 10 -24 0 -47 5 -50 10 -4 6 -53 10 -115 10 -62 0 -111
4 -115 10 -3 6 -24 10 -45 10 -21 0 -42 5 -45 10 -3 6 -15 10 -27 10 -57 0
-198 111 -198 157 0 12 -4 25 -10 28 -5 3 -10 39 -10 80 0 41 5 77 10 80 6 3
10 17 10 31 0 13 5 24 10 24 6 0 10 6 10 13 1 18 78 97 95 97 8 0 15 5 15 10
0 6 9 10 20 10 11 0 20 3 20 8 0 10 50 32 71 32 10 0 21 5 24 10 3 6 21 10 40
10 19 0 37 5 40 10 4 6 70 10 165 10 95 0 161 -4 165 -10z m-14055 -174 c0
-14 -4 -28 -10 -31 -5 -3 -10 -17 -10 -31 0 -20 -5 -24 -28 -24 -16 0 -34 8
-42 20 -16 23 -46 26 -63 7 -28 -30 -37 -61 -37 -127 l0 -70 55 0 c54 0 55 0
55 -30 0 -30 -1 -30 -55 -30 l-55 0 0 -189 c0 -116 4 -192 10 -196 6 -3 10
-30 10 -59 0 -50 20 -108 41 -121 5 -4 9 -15 9 -26 0 -18 -8 -19 -110 -19
-101 0 -110 2 -110 19 0 10 7 24 15 31 13 11 15 55 15 286 l0 274 -45 0 c-37
0 -45 3 -45 18 0 27 20 42 55 42 43 0 55 16 55 76 0 29 3 54 8 56 4 2 16 21
27 43 20 38 87 85 123 85 6 0 12 5 12 10 0 6 27 10 60 10 57 0 60 -1 60 -24z
m830 -170 c0 -119 4 -197 10 -201 6 -3 10 1 10 10 0 20 85 105 105 105 8 0 15
5 15 10 0 6 11 10 24 10 14 0 28 5 31 10 3 6 42 10 85 10 43 0 82 -4 85 -10 3
-5 17 -10 31 -10 13 0 24 -4 24 -10 0 -5 6 -10 13 -10 19 0 87 -65 87 -84 0
-9 3 -16 8 -16 21 0 30 -71 35 -273 4 -205 5 -219 26 -240 11 -13 21 -31 21
-40 0 -16 -12 -17 -112 -15 -81 2 -113 7 -116 16 -2 7 4 16 14 18 37 10 44 49
44 259 0 196 -1 202 -26 252 -20 42 -35 57 -77 77 -85 43 -170 32 -226 -28
-32 -34 -71 -114 -71 -147 0 -15 -4 -31 -10 -34 -6 -4 -10 -68 -10 -161 0 -96
4 -154 10 -154 6 0 10 -6 10 -13 0 -8 9 -22 20 -32 11 -10 20 -27 20 -37 0
-17 -8 -18 -112 -16 -81 2 -113 7 -116 16 -2 7 4 16 14 18 41 11 44 41 44 423
l0 365 -31 32 c-39 41 -33 62 21 70 22 4 43 11 46 15 3 5 16 9 30 9 l24 0 0
-194z m-320 85 c0 -11 -4 -23 -10 -26 -5 -3 -10 -37 -10 -76 l0 -69 53 0 c41
0 58 -5 72 -20 26 -28 11 -38 -60 -42 l-60 -3 -3 -144 c-2 -89 1 -148 8 -155
5 -5 10 -47 10 -91 0 -91 12 -124 60 -170 16 -16 30 -32 30 -37 0 -13 -174
-10 -188 4 -7 7 -12 27 -12 44 0 18 -4 36 -10 39 -14 9 -13 408 1 422 6 6 9
28 7 49 l-3 39 -54 5 c-30 3 -56 10 -58 17 -2 6 13 20 34 30 66 31 133 107
133 151 0 20 29 52 47 52 7 0 13 -9 13 -19z m-1235 -141 c3 -5 16 -10 28 -10
13 0 29 -9 37 -20 8 -11 20 -20 27 -20 37 0 153 -153 153 -201 0 -10 5 -21 10
-24 6 -3 10 -44 10 -90 0 -46 -4 -87 -10 -90 -5 -3 -10 -14 -10 -24 0 -27 -29
-80 -51 -94 -10 -6 -19 -20 -19 -29 0 -10 -6 -18 -12 -18 -7 0 -27 -14 -45
-30 -18 -17 -39 -30 -47 -30 -9 0 -31 -9 -51 -20 -29 -16 -54 -20 -140 -20
-63 0 -105 4 -105 10 0 6 -9 10 -20 10 -11 0 -20 5 -20 10 0 6 -9 10 -20 10
-11 0 -20 5 -20 10 0 6 -6 10 -14 10 -7 0 -20 7 -27 16 -7 9 -24 20 -36 25
-13 5 -27 19 -32 31 -5 13 -21 34 -35 47 -14 14 -26 35 -26 48 0 13 -4 23 -10
23 -5 0 -10 15 -10 34 0 19 -4 38 -10 41 -5 3 -10 26 -10 51 0 24 5 44 10 44
6 0 10 13 10 28 0 42 44 122 93 170 46 45 127 92 159 92 10 0 18 5 18 10 0 6
43 10 109 10 63 0 112 -4 116 -10z m2680 0 c3 -5 17 -10 31 -10 13 0 24 -4 24
-10 0 -5 9 -10 20 -10 11 0 20 -4 20 -10 0 -5 6 -10 13 -10 20 0 105 -92 112
-122 4 -16 11 -28 16 -28 5 0 9 -18 9 -40 l0 -40 -282 -2 -283 -3 -3 -72 c-2
-46 1 -73 8 -73 5 0 10 -13 10 -28 0 -30 24 -87 41 -98 6 -3 14 -17 19 -30 5
-13 20 -28 33 -33 12 -5 29 -16 36 -25 8 -9 28 -16 47 -16 19 0 34 -4 34 -10
0 -5 11 -10 24 -10 14 0 28 5 31 10 3 6 19 10 34 10 31 0 83 23 101 45 7 8 17
15 23 15 15 0 57 41 57 56 0 6 7 17 15 24 8 7 15 22 15 33 0 24 27 57 47 57
15 0 18 -56 3 -65 -5 -3 -10 -17 -10 -31 0 -13 -5 -24 -10 -24 -6 0 -14 -8
-18 -19 -11 -28 -90 -111 -107 -111 -8 0 -15 -4 -15 -10 0 -5 -11 -10 -24 -10
-14 0 -28 -4 -31 -10 -3 -5 -26 -10 -50 -10 -24 0 -47 -4 -50 -10 -3 -5 -19
-10 -35 -10 -16 0 -32 5 -35 10 -3 6 -26 10 -51 10 -24 0 -44 5 -44 10 0 6 -9
10 -20 10 -11 0 -20 5 -20 10 0 6 -6 10 -14 10 -18 0 -136 120 -136 138 0 6
-4 12 -10 12 -5 0 -10 11 -10 24 0 14 -4 28 -10 31 -12 7 -14 255 -2 255 4 0
13 15 21 33 16 37 129 157 148 157 7 0 13 5 13 10 0 6 14 10 30 10 17 0 30 5
30 10 0 6 40 10 99 10 56 0 103 -4 106 -10z m-91 -1020 c22 0 60 -35 84 -77
14 -27 16 -73 2 -73 -5 0 -10 -7 -10 -15 0 -9 -11 -27 -25 -41 -23 -23 -31
-25 -97 -22 -68 3 -72 5 -89 33 -23 39 -23 121 0 160 13 23 26 31 52 33 19 2
38 8 44 13 6 6 11 6 13 -1 2 -5 14 -10 26 -10z m4256 -145 c0 -37 -4 -65 -10
-65 -15 0 -13 -145 3 -158 7 -6 58 -13 113 -14 l99 -3 0 -35 0 -35 -102 -3
-103 -3 0 -274 c0 -172 4 -276 10 -280 6 -4 10 -57 10 -126 0 -73 4 -119 10
-119 6 0 10 -7 10 -15 0 -32 50 -95 74 -95 9 0 16 -4 16 -9 0 -5 9 -11 20 -14
11 -3 20 -12 20 -21 0 -14 -19 -16 -148 -16 -142 0 -149 1 -168 23 -33 38 -44
65 -44 107 0 22 -4 40 -10 40 -6 0 -10 137 -10 390 l0 390 -85 0 -85 0 0 28
c0 23 8 31 58 54 31 14 68 38 81 52 14 14 30 26 36 26 14 0 65 52 65 66 0 6 9
19 20 29 11 10 20 23 20 30 0 7 9 20 20 30 11 10 20 28 20 40 0 26 18 45 42
45 15 0 18 -9 18 -65z m-5460 32 c0 -8 -9 -22 -20 -32 -47 -42 -50 -64 -50
-322 l0 -243 25 0 c16 0 25 6 25 16 0 16 47 64 63 64 4 0 77 69 161 154 84 84
157 155 163 157 22 8 93 80 93 94 0 8 5 15 10 15 6 0 10 15 10 34 0 25 -5 35
-20 39 -11 3 -20 12 -20 21 0 14 24 16 200 16 173 0 200 -2 200 -15 0 -9 -12
-20 -27 -25 -52 -19 -118 -55 -134 -72 -9 -10 -23 -18 -30 -18 -8 0 -21 -9
-29 -20 -8 -11 -19 -20 -25 -20 -6 0 -24 -13 -40 -30 -16 -16 -34 -30 -40 -30
-6 0 -26 -16 -45 -35 -19 -19 -39 -35 -45 -35 -6 0 -33 -22 -60 -50 -27 -27
-54 -50 -60 -50 -6 0 -40 -29 -75 -65 -35 -36 -69 -65 -75 -65 -16 0 -78 -67
-68 -73 4 -2 51 -8 103 -11 78 -6 107 -13 160 -39 65 -32 130 -86 130 -108 0
-6 14 -24 30 -39 17 -15 30 -32 30 -37 0 -5 11 -20 25 -33 14 -13 25 -29 25
-35 0 -7 9 -20 20 -30 11 -10 20 -23 20 -30 0 -6 14 -24 30 -40 17 -16 30 -34
30 -40 0 -6 11 -22 25 -35 14 -13 25 -28 25 -35 0 -19 116 -126 161 -148 29
-15 45 -30 47 -45 l3 -22 -192 0 c-184 0 -194 1 -216 22 -13 12 -23 27 -23 33
0 7 -9 20 -20 30 -11 10 -20 23 -20 30 0 7 -9 20 -20 30 -11 10 -20 24 -20 32
0 7 -4 13 -10 13 -5 0 -10 8 -10 18 0 10 -9 24 -20 32 -11 8 -20 21 -20 30 0
8 -9 21 -19 27 -11 7 -22 25 -26 41 -3 17 -15 38 -26 48 -10 9 -19 22 -19 29
0 7 -9 20 -20 30 -11 10 -20 23 -20 30 0 7 -9 20 -20 30 -11 10 -20 23 -20 30
0 30 -127 115 -174 115 -11 0 -35 -14 -53 -32 l-33 -32 0 -167 c0 -92 4 -170
9 -173 4 -3 11 -40 13 -81 5 -70 7 -78 37 -102 17 -14 31 -34 31 -44 0 -18
-12 -19 -204 -19 -135 0 -207 4 -211 11 -4 6 1 20 11 32 31 36 44 65 44 96 0
17 5 33 10 36 6 4 10 183 10 506 0 326 -3 499 -10 499 -5 0 -10 11 -10 24 0
13 -7 29 -15 36 -15 13 -45 67 -45 82 0 4 86 8 190 8 152 0 190 -3 190 -13z
m3878 -66 c2 -13 -1 -28 -7 -34 -6 -6 -11 -21 -11 -34 0 -13 -4 -23 -10 -23
-5 0 -10 -11 -10 -24 0 -14 -4 -28 -10 -31 -5 -3 -10 -17 -10 -31 0 -19 -5
-24 -24 -24 -15 0 -26 7 -28 18 -11 39 -155 91 -173 62 -3 -5 -16 -10 -29 -10
-24 0 -46 -17 -46 -35 0 -6 16 -17 35 -25 20 -8 43 -22 52 -32 9 -10 21 -18
27 -18 14 0 105 -95 124 -127 6 -13 12 -32 12 -42 0 -11 5 -23 10 -26 6 -3 10
-39 10 -80 0 -41 -4 -77 -10 -80 -5 -3 -10 -14 -10 -24 0 -47 -102 -191 -135
-191 -7 0 -20 -9 -30 -20 -10 -11 -26 -20 -36 -20 -10 0 -34 -9 -54 -20 -20
-11 -46 -20 -60 -20 -13 0 -27 -4 -30 -10 -4 -6 -61 -10 -139 -10 -136 0 -190
-12 -203 -46 -7 -18 20 -44 46 -44 11 0 23 -4 26 -10 4 -6 57 -10 125 -10 68
0 121 -4 125 -10 3 -5 37 -10 75 -10 38 0 72 -4 75 -10 3 -5 26 -10 50 -10 24
0 47 -4 50 -10 3 -5 22 -10 41 -10 19 0 34 -4 34 -10 0 -5 9 -10 20 -10 11 0
20 -4 20 -10 0 -5 6 -10 13 -10 18 0 77 -59 77 -76 0 -8 5 -14 10 -14 6 0 10
-15 10 -34 0 -19 5 -38 10 -41 6 -3 10 -17 10 -30 0 -13 -4 -27 -10 -30 -5 -3
-10 -19 -10 -34 0 -39 -23 -79 -70 -125 -43 -41 -121 -86 -151 -86 -10 0 -21
-4 -24 -10 -3 -5 -17 -10 -30 -10 -13 0 -27 -4 -30 -10 -3 -5 -22 -10 -41 -10
-19 0 -34 -4 -34 -10 0 -6 -31 -10 -74 -10 -41 0 -78 -4 -81 -10 -3 -5 -46
-10 -96 -10 -53 0 -89 4 -89 10 0 6 -31 10 -74 10 -41 0 -78 5 -81 10 -3 6
-21 10 -40 10 -19 0 -37 5 -40 10 -3 6 -17 10 -30 10 -13 0 -25 4 -27 8 -1 4
-28 20 -58 35 -55 26 -93 60 -117 104 -15 27 -18 173 -3 173 6 0 10 7 10 16 0
20 24 44 43 44 9 0 17 3 19 8 6 15 91 52 118 52 16 0 32 5 35 10 3 6 22 10 42
10 30 0 34 2 23 15 -7 8 -25 15 -40 15 -70 0 -125 66 -99 118 20 41 51 72 70
72 10 0 34 9 54 20 20 11 44 20 55 20 37 0 20 15 -55 50 -41 19 -75 38 -75 43
0 4 -7 7 -15 7 -21 0 -87 69 -112 119 -19 36 -23 59 -23 142 0 59 4 99 10 99
6 0 10 9 10 20 0 11 6 30 12 43 18 32 130 147 144 147 6 0 19 9 29 20 10 11
29 20 42 20 12 0 23 5 23 10 0 6 10 10 23 10 13 0 29 6 36 13 9 9 63 12 201
12 l189 0 53 50 c60 56 89 75 117 75 11 0 23 5 26 10 3 6 17 10 30 10 13 0 27
5 30 10 4 7 38 10 83 8 72 -3 77 -4 80 -27z m2600 -151 c2 -5 11 -10 20 -10
22 0 157 -67 172 -85 7 -8 17 -15 23 -15 15 0 117 -101 117 -116 0 -6 9 -19
19 -28 11 -10 23 -31 26 -47 4 -16 11 -31 16 -34 5 -4 9 -17 9 -30 0 -13 5
-27 10 -30 6 -3 10 -19 10 -35 0 -16 5 -32 10 -35 6 -3 10 -44 10 -90 0 -46
-4 -87 -10 -90 -5 -3 -10 -21 -10 -40 0 -19 -4 -37 -10 -40 -5 -3 -10 -17 -10
-31 0 -13 -4 -24 -9 -24 -5 0 -12 -13 -16 -29 -3 -16 -15 -37 -26 -47 -10 -9
-19 -22 -19 -28 0 -14 -101 -116 -116 -116 -6 0 -19 -9 -29 -20 -10 -11 -24
-20 -32 -20 -7 0 -13 -4 -13 -10 0 -5 -9 -10 -20 -10 -11 0 -20 -3 -20 -7 0
-13 -51 -33 -81 -33 -15 0 -31 -4 -34 -10 -3 -5 -26 -10 -50 -10 -24 0 -47 -4
-50 -10 -3 -5 -37 -10 -75 -10 -38 0 -72 5 -75 10 -3 6 -24 10 -45 10 -21 0
-42 5 -45 10 -3 6 -19 10 -34 10 -32 0 -147 55 -172 82 -9 10 -20 18 -26 18
-15 0 -113 97 -113 112 0 7 -9 20 -20 28 -11 8 -20 22 -20 32 0 10 -3 18 -7
18 -15 0 -34 56 -40 118 -3 34 -10 65 -14 68 -12 7 -12 131 0 138 4 3 11 31
14 63 5 58 44 150 72 173 8 7 15 17 15 23 0 15 101 117 116 117 6 0 17 7 24
15 10 12 104 61 185 96 32 14 92 17 235 13 81 -2 136 -7 138 -14z m-4210 1 c9
-5 42 -21 72 -35 91 -42 210 -182 210 -248 0 -10 5 -18 10 -18 6 0 10 -91 10
-254 0 -159 4 -257 10 -261 6 -3 10 -39 10 -79 0 -76 14 -118 50 -151 11 -10
20 -26 20 -37 0 -17 -12 -18 -184 -18 -123 0 -187 4 -192 11 -3 6 12 30 35 53
37 38 41 46 41 93 0 29 5 55 10 58 6 3 10 19 10 35 0 16 -4 32 -10 35 -6 4
-10 95 -10 241 0 149 -4 234 -10 234 -5 0 -10 18 -10 40 0 22 -4 40 -8 40 -5
0 -14 16 -22 35 -16 41 -83 107 -127 126 -18 8 -33 17 -33 21 0 5 -29 8 -65 8
-37 0 -65 -4 -65 -10 0 -5 -9 -10 -20 -10 -11 0 -20 -4 -20 -10 0 -5 -5 -10
-12 -10 -16 0 -98 -81 -98 -97 0 -7 -4 -13 -10 -13 -5 0 -10 -9 -10 -20 0 -11
-3 -20 -7 -20 -11 0 -33 -50 -33 -71 0 -10 -4 -21 -10 -24 -5 -3 -10 -40 -10
-81 0 -51 -4 -74 -12 -74 -9 0 -9 -3 0 -12 9 -9 12 -74 12 -230 0 -156 4 -225
13 -241 21 -38 41 -59 65 -68 13 -5 22 -15 19 -22 -5 -16 -385 -23 -401 -7 -7
7 3 24 32 53 32 32 42 51 42 75 0 18 5 32 10 32 6 0 10 63 10 169 0 103 -4
172 -10 176 -6 4 -10 76 -10 184 0 191 -5 214 -55 261 -14 13 -25 27 -25 31 0
13 62 39 92 39 15 0 28 5 28 10 0 6 15 10 34 10 19 0 38 5 41 10 3 6 22 10 41
10 l34 0 0 -106 c0 -118 9 -129 47 -55 44 88 165 181 235 181 15 0 28 5 28 10
0 13 184 13 208 1z m2447 -1 c3 -5 28 -10 55 -10 27 0 52 -4 55 -10 3 -5 19
-10 34 -10 31 0 91 -27 91 -40 0 -5 -4 -12 -10 -15 -5 -3 -10 -17 -10 -30 0
-13 -4 -27 -10 -30 -5 -3 -10 -19 -10 -34 0 -15 -6 -39 -12 -54 -19 -40 -48
-31 -74 21 -12 24 -32 54 -45 68 -25 27 -114 74 -140 74 -10 0 -21 5 -24 10
-3 6 -52 10 -110 10 -58 0 -107 -4 -110 -10 -3 -5 -15 -10 -26 -10 -25 0 -55
-18 -93 -55 -57 -56 -94 -153 -66 -170 6 -3 10 -16 10 -29 0 -40 87 -106 139
-106 17 0 33 -4 36 -10 3 -6 50 -10 105 -10 55 0 102 -4 105 -10 3 -5 33 -10
65 -10 32 0 62 -4 65 -10 3 -5 21 -10 40 -10 19 0 37 -4 40 -10 3 -5 17 -10
31 -10 13 0 24 -4 24 -10 0 -5 6 -10 13 -10 24 -1 117 -100 117 -126 0 -13 5
-24 10 -24 6 0 10 -31 10 -74 0 -41 -4 -78 -10 -81 -5 -3 -10 -15 -10 -26 0
-10 -6 -29 -12 -42 -19 -33 -100 -117 -114 -117 -6 0 -17 -7 -24 -15 -16 -19
-68 -45 -91 -45 -10 0 -21 -4 -24 -10 -3 -5 -17 -10 -30 -10 -13 0 -27 -4 -30
-10 -3 -5 -28 -10 -55 -10 -27 0 -52 -4 -55 -10 -4 -6 -60 -10 -136 -10 -79 0
-129 4 -129 10 0 6 -31 10 -74 10 -41 0 -78 5 -81 10 -3 6 -26 10 -51 10 -24
0 -44 5 -44 10 0 6 -11 10 -24 10 -14 0 -28 5 -31 10 -3 6 -17 10 -31 10 -20
0 -24 5 -24 30 0 17 4 30 9 30 4 0 11 24 15 53 6 59 31 117 49 117 7 0 18 -15
26 -32 16 -38 109 -138 128 -138 7 0 13 -4 13 -10 0 -5 9 -10 20 -10 11 0 20
-4 20 -10 0 -5 11 -10 24 -10 14 0 28 -4 31 -10 3 -5 21 -10 40 -10 19 0 37
-4 40 -10 3 -5 42 -10 85 -10 43 0 82 5 85 10 3 6 21 10 40 10 19 0 37 5 40
10 3 6 16 10 29 10 13 0 31 9 41 20 10 11 23 20 30 20 13 0 53 43 73 77 28 51
9 169 -34 204 -32 26 -109 59 -140 59 -18 0 -36 5 -39 10 -4 6 -53 10 -115 10
-60 0 -111 4 -114 9 -3 4 -34 11 -68 14 -62 6 -118 25 -118 40 0 4 -8 7 -18 7
-10 0 -24 9 -32 20 -8 11 -20 20 -28 20 -7 0 -16 8 -19 18 -4 9 -15 26 -25 36
-10 11 -18 26 -18 33 0 7 -4 13 -10 13 -16 0 -12 182 5 216 34 69 182 184 236
184 10 0 21 5 24 10 3 6 21 10 40 10 19 0 37 5 40 10 4 6 77 10 185 10 108 0
181 -4 185 -10z m3083 1 c9 -5 40 -19 67 -32 51 -23 155 -114 155 -135 0 -6 9
-19 20 -29 11 -10 20 -29 20 -42 0 -12 5 -23 10 -23 6 0 10 -15 10 -34 0 -19
5 -38 10 -41 6 -4 10 -115 10 -301 0 -189 4 -294 10 -294 6 0 10 -14 10 -32 0
-24 10 -43 41 -74 23 -23 38 -47 35 -53 -10 -15 -372 -15 -382 0 -3 6 8 25 25
43 17 18 31 42 31 53 0 12 5 25 10 28 6 4 10 113 10 295 0 182 -4 291 -10 295
-5 3 -10 26 -10 51 0 24 -4 44 -10 44 -5 0 -10 9 -10 20 0 11 -3 20 -8 20 -4
0 -13 15 -21 33 -16 38 -70 97 -88 97 -7 0 -13 5 -13 10 0 6 -9 10 -20 10 -11
0 -20 5 -20 10 0 6 -28 10 -65 10 -37 0 -65 -4 -65 -10 0 -5 -10 -10 -22 -10
-24 0 -148 -115 -148 -137 0 -7 -4 -13 -10 -13 -5 0 -10 -9 -10 -20 0 -11 -4
-20 -10 -20 -5 0 -10 -13 -10 -30 0 -16 -4 -30 -10 -30 -5 0 -10 -20 -10 -44
0 -25 -4 -48 -10 -51 -6 -4 -10 -78 -10 -190 0 -112 4 -186 10 -190 6 -3 10
-45 10 -94 l0 -87 45 -44 c25 -24 45 -48 45 -52 0 -4 -88 -8 -195 -8 -181 0
-195 1 -195 18 0 10 16 33 35 52 l35 34 0 382 c0 245 -4 385 -10 389 -5 3 -10
16 -10 29 0 12 -11 33 -25 46 -14 13 -25 31 -25 39 0 19 44 41 81 41 15 0 31
5 34 10 3 6 19 10 35 10 16 0 32 5 35 10 3 6 22 10 41 10 l34 0 0 -105 c0 -58
4 -105 8 -105 5 0 14 15 22 34 30 77 183 196 251 196 15 0 31 5 34 10 8 12
179 13 203 1z m-6504 -44 c8 -12 7 -22 -2 -37 -15 -24 -17 -196 -2 -205 6 -4
10 -91 10 -229 0 -122 4 -226 9 -232 5 -5 11 -66 13 -135 4 -131 13 -159 52
-159 9 0 16 -4 16 -9 0 -5 9 -11 20 -14 11 -3 20 -12 20 -21 0 -14 -25 -16
-220 -16 -191 0 -220 2 -220 15 0 9 8 19 17 22 21 8 53 40 71 71 9 16 12 115
12 398 l0 377 -42 42 c-24 23 -51 45 -61 48 -30 11 -13 32 29 35 21 2 43 8 49
13 5 5 24 9 41 9 18 0 36 5 39 10 3 6 16 10 29 10 12 0 26 4 32 9 9 9 51 19
68 16 5 0 14 -9 20 -18z m-2244 -238 c0 -10 -4 -21 -10 -24 -5 -3 -10 -33 -10
-66 l0 -59 52 0 c34 0 58 -6 70 -17 34 -31 22 -42 -49 -45 l-68 -3 -3 -104
c-2 -63 1 -108 8 -115 6 -6 10 -61 10 -131 0 -134 7 -160 60 -210 16 -16 30
-32 30 -37 0 -14 -176 -9 -189 5 -7 9 -12 110 -13 303 l-3 289 -40 3 c-22 2
-44 7 -49 12 -11 11 20 50 38 50 14 0 85 75 104 107 6 13 12 31 12 41 0 10 5
23 12 30 15 15 38 -3 38 -29z m-555 -119 c3 -5 19 -10 34 -10 62 0 181 -83
181 -126 0 -13 5 -26 10 -29 6 -4 10 -75 10 -180 0 -105 4 -176 10 -180 6 -3
10 -24 10 -45 0 -22 9 -56 21 -76 12 -22 17 -40 11 -46 -5 -5 -36 -8 -68 -6
l-59 3 -3 38 c-2 20 -8 37 -14 37 -6 0 -28 -18 -49 -40 -21 -22 -45 -40 -54
-40 -8 0 -15 -4 -15 -10 0 -6 -41 -10 -103 -10 -97 0 -107 2 -170 34 -36 18
-73 39 -81 46 -31 25 -46 73 -46 144 0 72 0 72 43 111 49 47 79 65 106 65 11
0 23 5 26 10 3 6 23 10 44 10 20 0 41 4 47 10 5 5 59 11 119 12 l110 3 3 49
c2 27 0 52 -5 55 -4 3 -17 24 -28 45 -21 42 -65 74 -102 75 -13 1 -23 6 -23
11 0 6 -13 10 -29 10 -17 0 -33 -4 -36 -10 -3 -5 -14 -10 -24 -10 -9 0 -41
-12 -69 -26 -41 -20 -57 -35 -72 -68 -34 -75 -70 -86 -70 -20 0 19 -5 34 -11
34 -6 0 -9 16 -7 38 3 32 7 37 31 40 15 2 27 8 27 13 0 5 11 9 24 9 14 0 28 5
31 10 3 6 26 10 50 10 24 0 47 5 50 10 3 6 35 10 70 10 35 0 67 -4 70 -10z
m15303 -1766 c9 -2 12 -53 12 -209 l0 -205 50 0 50 0 0 -40 0 -40 -50 0 -50 0
0 -75 0 -75 -50 0 -50 0 0 75 0 74 -147 3 -148 3 -3 34 c-3 29 16 63 142 251
l145 218 43 -5 c24 -2 49 -6 56 -9z m-14890 -18 c48 -25 72 -70 72 -136 0 -66
-24 -111 -71 -136 l-33 -16 30 -13 c104 -43 122 -180 35 -266 -68 -69 -217
-88 -329 -44 -46 19 -46 19 -31 62 l10 31 60 -19 c147 -46 244 -5 244 102 0
69 -61 109 -167 109 -48 0 -48 0 -48 34 l0 33 63 5 c35 3 77 12 94 21 59 31
68 116 16 157 -20 16 -41 20 -94 20 -79 0 -99 -13 -99 -66 0 -35 -1 -35 -37
-32 l-38 3 -3 71 -3 71 53 16 c71 22 229 18 276 -7z m3835 4 l37 -11 0 -80 0
-80 -32 3 c-29 3 -34 8 -47 50 -16 53 -26 58 -113 58 -46 0 -62 -5 -87 -26
-21 -17 -31 -35 -31 -54 0 -47 34 -76 133 -115 116 -44 159 -73 182 -121 21
-45 15 -126 -13 -163 -62 -83 -151 -113 -282 -93 -119 17 -120 18 -120 113 l0
80 37 -3 c37 -3 38 -5 46 -50 8 -40 13 -48 39 -57 97 -34 208 12 208 86 0 47
-31 72 -133 111 -136 52 -184 94 -194 170 -11 81 36 159 114 188 43 16 193 13
256 -6z m6043 -8 c112 -58 172 -208 144 -362 -21 -115 -75 -192 -170 -241 -37
-20 -60 -24 -130 -24 -77 0 -90 3 -140 31 -71 40 -114 107 -130 206 -33 195
47 359 200 409 47 16 181 4 226 -19z m3799 18 c4 -6 4 -24 0 -40 -6 -30 -8
-30 -71 -30 -101 0 -162 -39 -203 -130 -26 -57 -27 -85 -3 -75 131 51 241 31
297 -53 65 -99 29 -238 -78 -294 -59 -32 -165 -31 -225 0 -167 88 -156 456 17
577 22 14 59 33 83 40 51 16 174 19 183 5z m623 -14 l52 -17 0 -43 c0 -24 -3
-58 -6 -75 -5 -26 -11 -31 -34 -31 -24 0 -29 6 -40 46 -16 57 -38 67 -140 62
-91 -4 -127 -25 -161 -95 -31 -63 -38 -188 -15 -265 28 -98 107 -146 220 -135
99 9 97 8 94 95 l-3 76 -37 9 c-31 7 -38 13 -38 33 0 22 4 24 53 24 28 0 82 3
120 7 l67 6 0 -31 c0 -27 -5 -33 -32 -40 l-33 -8 -3 -102 -3 -101 -57 -22
c-69 -27 -233 -33 -296 -10 -48 17 -112 73 -136 121 -44 87 -48 230 -10 334
28 72 71 120 143 156 59 30 66 31 152 27 50 -3 114 -12 143 -21z m-14742 -8
c-3 -13 -6 -28 -6 -35 0 -9 -35 -13 -127 -15 l-128 -3 -3 -86 -3 -86 66 -5
c136 -11 225 -86 225 -191 0 -60 -11 -87 -56 -137 -61 -67 -179 -87 -304 -50
-60 17 -64 23 -49 64 10 27 17 35 29 30 64 -28 101 -35 153 -32 48 4 63 9 88
34 35 36 47 90 29 134 -19 47 -75 70 -181 77 l-89 6 0 121 c0 67 3 138 6 159
l7 37 174 0 175 0 -6 -22z m1054 -3 c0 -18 -8 -28 -29 -37 l-29 -13 59 -125
60 -125 64 120 c36 66 63 124 62 130 -2 5 -14 12 -28 15 -17 4 -25 14 -27 33
l-3 27 110 0 c109 0 111 0 111 -23 0 -17 -9 -27 -32 -38 -28 -12 -47 -40 -120
-174 l-88 -160 0 -87 0 -86 38 -9 c30 -7 38 -14 40 -36 l3 -27 -131 0 -131 0
3 28 c2 22 10 29 41 36 l37 10 0 83 0 84 -87 164 c-77 145 -92 166 -118 173
-23 6 -31 15 -33 35 l-3 27 115 0 116 0 0 -25z m4490 1 c0 -25 -4 -27 -62 -40
l-28 -6 0 -100 0 -100 43 0 43 0 78 135 78 135 75 0 74 0 -3 -27 c-3 -23 -9
-29 -44 -36 -40 -7 -44 -12 -108 -118 -36 -61 -66 -115 -66 -121 0 -5 42 -68
93 -138 84 -118 95 -129 130 -135 33 -6 37 -10 37 -36 l0 -29 -130 0 -130 0 0
29 c0 25 5 30 35 35 19 4 35 9 35 12 0 4 -33 53 -72 110 l-73 103 -47 1 -48 0
0 -109 0 -108 43 -9 c36 -8 42 -13 45 -36 l3 -28 -136 0 -136 0 3 27 c2 22 10
29 41 36 l37 9 0 249 0 248 -40 11 c-33 9 -40 15 -40 35 l0 25 135 0 135 0 0
-24z m5363 -209 c75 -128 143 -242 152 -252 13 -18 14 3 15 197 l0 218 -27 6
c-49 10 -53 13 -53 39 l0 25 120 0 120 0 0 -25 c0 -20 -7 -26 -40 -35 l-40
-11 0 -284 0 -285 -59 0 -59 0 -138 233 c-75 127 -143 241 -151 252 -11 16
-13 -13 -13 -196 l0 -216 43 -9 c36 -8 42 -13 45 -36 l3 -28 -125 0 -126 0 0
29 c0 26 4 30 40 36 l40 7 0 249 0 249 -27 6 c-49 10 -53 13 -53 39 l0 25 98
0 97 0 138 -233z m887 209 c0 -25 -4 -27 -62 -40 l-28 -6 0 -100 0 -100 44 0
44 0 78 135 79 135 78 0 c75 0 77 -1 77 -24 0 -25 -6 -29 -65 -41 -25 -5 -40
-23 -99 -121 l-69 -115 43 -62 c127 -182 148 -206 185 -213 30 -5 35 -10 35
-35 l0 -29 -130 0 -130 0 0 29 c0 25 5 29 39 37 l39 9 -76 108 -76 107 -48 0
-48 0 0 -109 0 -110 45 -7 c41 -6 45 -9 45 -35 l0 -29 -130 0 -130 0 0 29 c0
25 5 30 35 35 l35 7 0 249 0 249 -32 9 c-26 6 -34 14 -36 35 l-3 27 130 0 131
0 0 -24z m810 -6 c0 -17 -55 -161 -122 -320 l-123 -290 -54 0 c-38 0 -52 3
-48 13 3 6 51 118 107 247 56 129 109 250 116 268 l14 32 -123 0 -123 0 -10
-42 c-8 -39 -12 -43 -41 -46 l-33 -3 0 85 0 86 220 0 220 0 0 -30z m349 -147
c43 -95 80 -175 82 -178 3 -2 43 77 89 175 l85 180 98 0 c96 0 97 0 97 -25 0
-20 -7 -26 -40 -35 l-40 -11 0 -249 0 -248 40 -7 c36 -6 40 -10 40 -36 l0 -29
-131 0 -130 0 3 28 c3 23 9 28 46 36 l42 9 0 226 0 225 -87 -177 -87 -177 -36
0 c-36 0 -36 0 -84 103 -27 56 -64 136 -82 177 l-34 75 0 -226 0 -226 43 -9
c36 -8 42 -13 45 -36 l3 -28 -125 0 -126 0 0 29 c0 26 4 30 40 36 l40 7 0 249
0 249 -27 6 c-49 10 -53 13 -53 39 l0 26 105 -3 106 -3 78 -172z m-8349 87 l0
-70 65 0 65 0 0 -35 0 -35 -65 0 -65 0 0 -165 c0 -155 1 -165 20 -175 16 -8
31 -8 57 1 32 10 38 9 50 -7 19 -26 17 -30 -23 -49 -81 -38 -163 -24 -184 31
-6 14 -10 101 -10 194 l0 169 -47 3 c-46 3 -48 4 -48 33 0 28 3 30 45 35 l45
5 3 57 c3 54 5 58 30 64 15 3 32 7 37 9 6 2 13 4 18 4 4 1 7 -30 7 -69z m3495
-70 l65 0 0 -35 0 -35 -65 0 -65 0 0 -159 c0 -199 3 -204 102 -175 10 3 21 -3
29 -17 14 -27 -3 -43 -61 -59 -46 -13 -73 -13 -105 2 -48 22 -55 51 -55 238
l0 170 -46 0 c-45 0 -45 0 -42 33 3 30 6 32 46 35 l42 3 0 59 0 59 43 8 42 9
3 -68 3 -68 64 0z m-6337 5 c61 -19 113 -74 132 -140 18 -63 9 -180 -18 -232
-50 -98 -162 -144 -274 -113 -200 56 -192 422 11 484 60 19 87 19 149 1z m646
-10 c48 -32 60 -77 64 -247 l4 -157 29 -10 c22 -7 29 -16 29 -35 l0 -26 -110
0 -110 0 0 26 c0 19 7 28 30 35 l30 11 0 149 c0 146 -1 151 -25 174 -13 14
-32 25 -42 25 -37 0 -89 -20 -115 -45 -28 -26 -28 -26 -28 -164 l0 -139 30
-11 c23 -7 30 -16 30 -35 l0 -26 -116 0 -115 0 3 27 c2 21 10 29 36 35 l32 9
0 173 0 174 -35 6 c-28 6 -35 12 -35 30 0 20 6 24 46 30 87 11 104 9 104 -17
0 -36 10 -39 48 -15 81 50 162 58 216 23z m584 9 c98 -6 103 -7 100 -28 -2
-16 -13 -23 -46 -30 -35 -7 -41 -12 -35 -25 4 -9 8 -46 8 -83 0 -80 -19 -111
-85 -145 -33 -17 -61 -23 -112 -23 l-68 0 0 -39 0 -39 113 -3 c95 -4 118 -8
148 -27 104 -64 65 -219 -65 -257 -66 -20 -179 -18 -241 3 -55 19 -95 66 -95
111 0 35 34 89 65 103 l24 11 -24 19 c-31 24 -31 30 -1 95 19 39 21 53 11 56
-21 9 -55 91 -55 135 0 52 19 99 53 131 33 30 110 52 162 46 22 -3 86 -8 143
-11z m491 -9 c59 -30 91 -95 91 -185 l0 -60 -161 0 -161 0 7 -37 c16 -86 56
-125 129 -125 49 0 73 6 124 29 30 15 34 14 47 -3 21 -27 15 -36 -46 -67 -107
-54 -221 -45 -289 23 -60 60 -81 177 -50 285 18 63 88 137 146 153 46 13 126
7 163 -13z m3191 -3 c51 -37 60 -73 60 -243 l0 -156 33 -9 c25 -8 33 -16 35
-37 l3 -27 -110 0 -111 0 0 26 c0 19 7 28 30 35 l30 11 0 149 c0 146 -1 151
-25 174 -13 14 -36 25 -50 25 -36 0 -90 -24 -120 -54 -24 -24 -25 -30 -25
-155 l0 -130 30 -16 c21 -11 30 -23 30 -40 l0 -25 -115 0 -115 0 0 25 c0 20 7
26 40 36 l40 12 0 174 c0 168 -1 173 -21 173 -31 0 -59 18 -59 39 0 14 10 20
46 25 26 3 62 6 80 6 31 0 34 -3 34 -30 0 -36 3 -36 42 -9 69 49 165 58 218
21z m583 12 c92 -6 97 -7 97 -29 0 -19 -7 -24 -41 -29 -34 -5 -40 -10 -34 -24
4 -9 10 -39 12 -67 3 -39 -1 -60 -19 -95 -32 -62 -88 -90 -179 -90 -61 0 -67
-2 -73 -22 -15 -57 -13 -58 87 -58 50 0 110 -5 132 -11 156 -42 129 -243 -37
-279 -172 -36 -318 19 -318 120 0 42 35 94 71 105 19 6 19 7 -6 27 -31 24 -31
39 -4 95 l21 44 -20 22 c-30 31 -42 71 -42 131 0 109 90 182 210 170 25 -2 89
-7 143 -10z m465 -3 c25 -7 27 -11 30 -74 l3 -67 -30 0 c-27 0 -31 4 -37 36
-8 42 -39 58 -99 51 -42 -6 -65 -28 -65 -63 0 -29 36 -54 120 -83 73 -26 125
-69 133 -111 15 -71 -42 -148 -125 -171 -42 -11 -166 -7 -200 6 -15 6 -18 20
-18 76 l0 69 29 0 c27 0 31 -4 38 -42 8 -41 10 -43 48 -46 87 -7 135 17 135
68 0 35 -21 51 -103 79 -110 38 -147 75 -147 148 0 67 41 116 111 133 35 9
129 4 177 -9z m863 -12 c144 -73 140 -359 -6 -444 -26 -16 -67 -29 -98 -32
-146 -15 -237 76 -236 237 0 84 14 134 53 185 62 81 188 105 287 54z m606 6
c48 -32 58 -68 61 -242 l4 -162 34 -11 c26 -9 34 -17 34 -36 0 -24 0 -24 -110
-24 l-110 0 0 25 c0 17 9 29 31 41 l31 16 -4 141 c-3 78 -8 149 -12 159 -4 9
-21 22 -37 29 -38 15 -94 0 -139 -37 l-30 -26 0 -138 0 -138 30 -11 c23 -7 30
-16 30 -35 l0 -26 -116 0 -115 0 3 27 c2 22 10 29 41 36 l37 9 -2 171 -3 171
-37 9 c-30 7 -38 14 -38 32 0 19 7 23 46 29 89 12 102 9 109 -24 8 -36 8 -36
44 -9 66 49 163 59 218 24z m-3077 -194 l0 -209 35 -12 c27 -9 35 -17 35 -36
l0 -24 -121 0 -120 0 3 27 c2 21 10 29 36 35 l32 9 0 173 0 174 -35 6 c-28 6
-35 11 -35 31 0 26 15 30 118 33 l52 2 0 -209z m3414 -183 c9 -12 16 -34 16
-48 0 -33 -41 -117 -78 -160 -29 -35 -30 -35 -51 -16 l-20 19 21 30 c22 31 25
66 13 125 -6 25 -3 38 10 52 25 27 70 26 89 -2z m-7288 -718 l34 0 0 -210 0
-210 55 0 55 0 0 -40 0 -40 -55 0 -55 0 0 -75 0 -75 -45 0 -45 0 0 75 0 75
-149 0 -149 0 -4 35 c-4 31 5 50 60 133 177 265 234 343 249 338 8 -3 30 -6
49 -6z m-2196 -40 l0 -40 -70 0 c-87 0 -138 -23 -180 -82 -30 -41 -58 -113
-48 -123 3 -3 18 -1 34 5 168 65 314 -15 314 -170 0 -179 -229 -278 -366 -158
-60 53 -77 99 -82 216 -4 87 -1 113 19 175 19 60 32 82 79 129 67 66 118 86
228 87 l72 1 0 -40z m930 18 c112 -57 121 -200 18 -267 l-38 -24 39 -17 c106
-48 108 -215 3 -285 -74 -48 -197 -56 -304 -19 -27 9 -48 18 -48 20 0 3 6 20
14 38 l14 34 53 -19 c97 -33 196 -20 233 32 9 13 16 42 16 65 0 73 -62 114
-172 114 l-48 0 0 35 0 35 48 0 c105 0 162 39 162 109 -1 63 -38 91 -122 91
-80 0 -98 -8 -98 -40 0 -47 -10 -60 -45 -60 l-33 0 -4 71 c-2 59 0 73 14 80
32 17 93 27 173 28 65 1 89 -3 125 -21z m1840 -4 c51 -29 72 -72 71 -145 0
-95 -33 -153 -166 -286 l-111 -113 148 0 148 0 0 -40 0 -40 -215 0 -215 0 0
39 c0 36 6 45 63 98 199 184 247 248 247 326 0 40 -5 53 -29 78 -26 25 -37 29
-88 29 -91 0 -101 -5 -105 -54 -3 -40 -4 -41 -40 -44 l-38 -3 0 75 0 75 43 11
c23 6 47 13 52 15 6 3 53 3 105 2 74 -2 103 -7 130 -23z m740 4 c68 -35 85
-66 85 -151 0 -101 -31 -153 -169 -289 l-108 -108 151 0 151 0 0 -40 0 -40
-220 0 -220 0 0 36 c0 33 12 47 140 172 141 138 179 193 180 254 0 40 -20 78
-51 94 -30 15 -136 19 -157 5 -8 -4 -16 -27 -19 -50 -6 -40 -7 -41 -44 -41
l-39 0 0 75 c0 41 3 75 8 75 4 1 30 7 57 15 28 7 86 14 130 14 65 1 89 -3 125
-21z m544 -4 c22 -11 47 -35 58 -54 21 -40 24 -119 7 -171 -20 -57 -94 -152
-185 -238 l-87 -81 152 0 151 0 0 -40 0 -40 -220 0 -220 0 0 36 c0 33 11 46
131 162 145 140 189 202 189 270 0 35 -6 49 -29 73 -26 25 -37 29 -88 29 -80
0 -103 -8 -103 -34 0 -50 -11 -66 -45 -66 l-32 0 -7 71 c-4 39 -6 73 -4 75 2
2 29 10 59 18 79 22 222 17 273 -10z m611 16 c4 -6 4 -24 0 -40 -6 -30 -8 -30
-71 -30 -101 0 -162 -39 -203 -130 -26 -57 -27 -85 -3 -75 131 51 241 31 297
-53 65 -99 29 -238 -78 -294 -59 -32 -165 -31 -225 0 -167 88 -156 456 17 577
22 14 59 33 83 40 51 16 174 19 183 5z m-4255 -280 l0 -280 70 0 70 0 0 -40 0
-40 -191 0 -190 0 3 38 3 37 73 3 72 3 0 224 c0 124 -3 225 -7 225 -3 0 -40
-21 -80 -46 -41 -25 -76 -45 -77 -43 -2 2 -10 18 -19 34 l-15 30 101 67 c84
55 110 67 145 67 l42 1 0 -280z m1320 245 l0 -35 -130 0 -130 0 0 -59 c0 -32
-3 -73 -6 -90 l-6 -31 49 0 c181 0 295 -129 238 -268 -20 -47 -50 -78 -100
-105 -53 -29 -187 -31 -257 -4 -53 20 -53 21 -37 65 l10 30 54 -19 c110 -39
201 -16 231 58 44 104 -42 173 -218 173 l-61 0 7 53 c3 28 6 100 6 160 l0 107
175 0 175 0 0 -35z m3350 -245 l0 -279 68 -3 67 -3 3 -37 3 -38 -190 0 -191 0
0 40 0 40 70 0 70 0 0 225 c0 124 -3 225 -6 225 -3 0 -37 -20 -75 -45 -38 -25
-72 -45 -74 -45 -11 0 -36 63 -28 70 4 5 51 35 103 69 78 50 103 61 138 61
l42 0 0 -280z"/>
<path d="M17110 10510 c0 -5 -11 -10 -23 -10 -13 0 -32 -9 -42 -20 -10 -11
-23 -20 -30 -20 -14 0 -75 -62 -75 -77 0 -6 -7 -16 -15 -23 -19 -16 -45 -68
-45 -92 0 -10 -4 -18 -10 -18 -5 0 -10 -11 -10 -25 l0 -25 305 0 305 0 0 34
c0 19 -4 38 -10 41 -5 3 -10 17 -10 31 0 13 -4 24 -9 24 -5 0 -11 6 -13 14 -5
22 -117 136 -134 136 -8 0 -14 5 -14 10 0 6 -11 10 -24 10 -14 0 -28 5 -31 10
-3 6 -31 10 -61 10 -30 0 -54 -4 -54 -10z"/>
<path d="M22972 10495 c-23 -12 -50 -29 -60 -37 -9 -8 -25 -18 -35 -21 -9 -4
-20 -15 -24 -24 -3 -10 -13 -26 -21 -35 -19 -23 -82 -149 -82 -165 0 -10 61
-13 305 -13 l305 0 0 38 c0 39 -19 92 -32 92 -5 0 -8 8 -8 18 0 10 -26 42 -59
72 -66 63 -93 80 -120 80 -11 0 -23 5 -26 10 -11 18 -98 9 -143 -15z"/>
<path d="M13455 10030 c-3 -5 -22 -10 -41 -10 -19 0 -34 -4 -34 -9 0 -5 -12
-12 -27 -16 -16 -3 -36 -14 -46 -22 -9 -9 -27 -21 -39 -27 -12 -6 -35 -36 -52
-66 -26 -48 -30 -65 -30 -141 -1 -98 8 -123 69 -184 61 -61 165 -108 165 -75
0 6 13 10 28 10 32 0 84 23 102 45 7 8 18 15 24 15 15 0 56 42 56 57 0 6 7 16
15 23 22 18 45 70 45 102 0 15 5 28 10 28 6 0 10 53 10 140 l0 140 -124 0
c-73 0 -127 -4 -131 -10z"/>
<path d="M17795 8760 c-3 -5 -15 -10 -26 -10 -10 0 -29 -6 -41 -12 -30 -18
-100 -85 -114 -111 -42 -75 -64 -123 -64 -138 0 -10 -5 -21 -10 -24 -33 -20
27 -25 307 -25 l306 0 -7 49 c-3 26 -17 70 -31 96 -25 51 -91 125 -110 125 -7
0 -20 9 -30 20 -10 11 -28 20 -41 20 -13 0 -26 5 -29 10 -3 6 -28 10 -55 10
-27 0 -52 -4 -55 -10z"/>
<path d="M24945 8760 c-3 -5 -16 -10 -29 -10 -13 0 -31 -9 -41 -20 -10 -11
-23 -20 -30 -20 -14 0 -75 -62 -75 -77 0 -6 -7 -16 -15 -23 -17 -14 -45 -67
-45 -87 0 -7 -5 -22 -12 -32 -6 -10 -8 -26 -5 -35 6 -15 35 -16 304 -14 l298
3 3 38 c2 21 -1 37 -7 37 -6 0 -11 14 -11 30 0 17 -4 30 -10 30 -5 0 -10 6
-10 13 0 16 -121 137 -138 137 -6 0 -12 5 -12 10 0 6 -11 10 -24 10 -14 0 -28
5 -31 10 -3 6 -28 10 -55 10 -27 0 -52 -4 -55 -10z"/>
<path d="M19200 8300 c0 -6 -31 -10 -74 -10 -41 0 -78 -4 -81 -10 -3 -5 -22
-10 -41 -10 -19 0 -34 -4 -34 -10 0 -5 -8 -10 -17 -10 -10 0 -29 -9 -43 -20
-14 -11 -30 -20 -36 -20 -13 0 -54 -43 -54 -56 0 -5 -9 -16 -20 -24 -12 -8
-20 -26 -20 -42 0 -15 -4 -28 -10 -28 -6 0 -10 -26 -10 -59 0 -33 5 -63 10
-66 6 -3 10 -14 10 -24 0 -43 65 -124 127 -159 39 -21 134 -15 188 12 62 32
129 98 162 161 25 47 27 60 31 218 l4 167 -46 0 c-25 0 -46 -4 -46 -10z"/>
<path d="M22790 8301 c0 -7 -29 -11 -74 -11 -41 0 -78 -4 -81 -10 -3 -5 -16
-10 -29 -10 -58 0 -188 -96 -221 -164 -32 -62 -14 -237 26 -262 6 -3 14 -17
19 -30 5 -13 20 -28 33 -33 12 -5 29 -16 36 -25 10 -12 32 -16 86 -16 72 0
120 15 145 45 7 8 18 15 24 15 31 0 116 127 116 172 0 10 5 18 10 18 7 0 10
55 8 158 l-3 157 -47 3 c-29 2 -48 -1 -48 -7z"/>
<path d="M11465 8360 c-3 -5 -17 -10 -31 -10 -13 0 -29 -9 -36 -20 -7 -11 -21
-20 -30 -20 -10 0 -18 -7 -18 -16 0 -9 -8 -24 -18 -33 -40 -37 -47 -69 -47
-212 0 -97 4 -142 13 -151 6 -6 12 -21 12 -33 0 -28 99 -125 127 -125 12 0 25
-4 28 -10 3 -5 28 -10 55 -10 27 0 52 5 55 10 3 6 16 10 28 10 30 0 127 98
127 127 0 12 5 25 10 28 6 3 10 22 10 41 0 19 5 34 10 34 6 0 10 32 10 75 0
43 -4 75 -10 75 -5 0 -10 13 -10 28 0 35 -42 121 -74 151 -59 55 -191 93 -211
61z"/>
<path d="M14165 8360 c-3 -5 -16 -10 -29 -10 -13 0 -38 -17 -61 -42 -51 -55
-65 -80 -65 -118 l0 -30 210 0 c176 0 210 2 210 14 0 8 -4 18 -10 21 -5 3 -10
14 -10 24 0 23 -26 75 -46 92 -56 47 -181 78 -199 49z"/>
<path d="M16220 7010 c0 -5 -8 -10 -18 -10 -48 0 -136 -74 -163 -137 -8 -18
-17 -33 -21 -33 -5 0 -8 -15 -8 -34 0 -19 -4 -38 -10 -41 -5 -3 -10 -39 -10
-80 0 -41 5 -77 10 -80 6 -3 10 -17 10 -30 0 -13 5 -27 10 -30 6 -3 10 -16 10
-29 0 -12 11 -33 25 -46 14 -13 25 -29 25 -37 0 -7 8 -13 18 -13 10 0 24 -9
32 -20 8 -11 22 -20 32 -20 10 0 18 -4 18 -10 0 -6 38 -10 93 -10 79 0 101 4
141 24 54 27 86 54 86 71 0 7 9 20 20 30 11 10 20 28 20 41 0 13 5 26 10 29 6
3 10 26 10 51 0 24 6 54 13 65 10 17 10 23 0 26 -8 3 -13 23 -13 52 0 69 -79
221 -115 221 -7 0 -20 9 -30 20 -10 11 -28 20 -41 20 -13 0 -26 5 -29 10 -3 6
-33 10 -66 10 -33 0 -59 -4 -59 -10z"/>
<path d="M16235 6020 c-3 -5 -37 -10 -75 -10 -38 0 -72 -4 -75 -10 -3 -5 -15
-10 -26 -10 -38 0 -110 -55 -134 -103 -8 -17 -15 -53 -15 -81 0 -49 3 -54 53
-104 32 -31 61 -52 75 -52 12 0 22 -4 22 -10 0 -5 14 -10 30 -10 17 0 30 -4
30 -10 0 -6 31 -10 73 -10 40 0 78 -5 84 -11 8 -8 13 -8 17 0 4 6 40 11 86 11
43 0 82 5 85 10 3 6 19 10 35 10 16 0 49 11 74 25 25 14 50 25 57 25 15 0 59
51 59 68 0 6 5 12 10 12 19 0 10 76 -16 127 -20 42 -35 57 -77 77 -28 14 -59
26 -68 26 -10 0 -21 5 -24 10 -3 6 -37 10 -75 10 -38 0 -72 5 -75 10 -3 6 -33
10 -65 10 -32 0 -62 -4 -65 -10z"/>
<path d="M19245 7010 c-3 -5 -14 -10 -24 -10 -47 0 -191 -102 -191 -135 0 -7
-9 -20 -20 -30 -11 -10 -20 -28 -20 -41 0 -13 -4 -26 -10 -29 -5 -3 -10 -17
-10 -31 0 -13 -4 -24 -10 -24 -5 0 -10 -15 -10 -34 0 -19 -4 -38 -10 -41 -6
-4 -10 -55 -10 -120 0 -65 4 -116 10 -120 6 -3 10 -21 10 -40 0 -19 5 -37 10
-40 6 -3 10 -19 10 -35 0 -27 37 -112 53 -118 4 -2 7 -10 7 -18 0 -18 117
-134 136 -134 8 0 14 -4 14 -10 0 -5 11 -10 24 -10 14 0 28 -4 31 -10 3 -5 35
-10 70 -10 35 0 67 5 70 10 3 6 16 10 29 10 25 0 82 26 92 41 3 6 17 14 30 19
14 6 27 18 31 27 3 10 14 27 23 38 9 11 23 35 31 53 8 17 17 32 21 32 5 0 8
15 8 33 0 18 5 38 12 45 18 18 18 404 1 409 -7 3 -13 12 -13 22 0 35 -71 156
-122 208 -54 55 -97 83 -129 83 -10 0 -21 5 -24 10 -3 6 -30 10 -60 10 -30 0
-57 -4 -60 -10z"/>
<path d="M11520 6320 c0 -6 -23 -10 -54 -10 -30 0 -58 -4 -61 -10 -3 -5 -16
-10 -29 -10 -12 0 -38 -17 -60 -39 l-38 -39 3 -74 c4 -70 6 -76 41 -111 21
-20 46 -37 57 -37 11 0 23 -4 26 -10 17 -28 126 9 182 61 44 43 54 77 51 185
l-3 99 -57 3 c-36 2 -58 -1 -58 -8z"/>
<path d="M26627 4619 l-98 -144 97 -3 c53 -1 98 -1 101 1 2 2 2 68 1 147 l-3
142 -98 -143z"/>
<path d="M21574 4792 c-73 -46 -100 -122 -92 -262 8 -134 56 -205 146 -217
133 -18 210 62 220 227 6 111 -13 182 -63 230 -33 32 -41 35 -108 38 -58 2
-78 -1 -103 -16z"/>
<path d="M25390 4554 c-8 -3 -32 -12 -52 -21 -34 -14 -38 -20 -38 -52 0 -96
47 -160 123 -168 81 -9 137 42 137 124 0 55 -31 100 -77 112 -40 11 -68 13
-93 5z"/>
<path d="M13091 4634 c-36 -30 -51 -77 -51 -156 0 -111 43 -169 125 -170 88
-2 128 56 128 182 0 120 -37 170 -124 170 -36 0 -55 -6 -78 -26z"/>
<path d="M14253 4655 c-47 -33 -54 -129 -13 -173 46 -49 133 -39 163 18 26 50
18 117 -18 147 -31 27 -99 31 -132 8z"/>
<path d="M14226 4218 c-37 -34 -42 -70 -14 -102 19 -23 34 -28 85 -33 114 -10
173 17 173 80 0 18 -4 37 -8 44 -13 21 -62 33 -137 33 -62 0 -78 -3 -99 -22z"/>
<path d="M14784 4626 c-21 -21 -34 -44 -34 -60 l0 -26 105 0 105 0 0 25 c0 33
-25 81 -45 89 -9 3 -35 6 -57 6 -32 0 -47 -7 -74 -34z"/>
<path d="M18515 4647 c-56 -47 -41 -160 24 -187 33 -13 87 -7 115 13 42 31 38
150 -7 182 -33 23 -101 19 -132 -8z"/>
<path d="M18487 4210 c-68 -80 -3 -140 139 -128 71 6 108 32 112 80 5 57 -22
72 -132 76 l-93 4 -26 -32z"/>
<path d="M19884 4641 c-41 -25 -59 -76 -58 -166 1 -114 43 -169 129 -167 90 1
120 44 120 172 0 99 -15 145 -56 165 -39 21 -98 19 -135 -4z"/>
<path d="M13570 3357 c-52 -78 -96 -145 -98 -149 -2 -5 42 -8 97 -8 l101 0 0
150 c0 83 -1 150 -2 150 -2 0 -46 -65 -98 -143z"/>
<path d="M11315 3283 c-11 -2 -37 -11 -59 -21 l-38 -16 5 -52 c11 -105 64
-158 151 -151 40 4 55 11 78 36 23 26 28 40 28 85 0 65 -24 101 -78 116 -38
10 -52 11 -87 3z"/>
<path d="M15980 3284 c-8 -3 -32 -12 -52 -21 -34 -14 -38 -20 -38 -52 0 -96
47 -160 123 -168 81 -9 137 42 137 124 0 55 -31 100 -77 112 -40 11 -68 13
-93 5z"/>
</g>
</svg>
