<?xml version="1.0" encoding="utf-8"?>
<!-- Generator: Adobe Illustrator 16.0.4, SVG Export Plug-In . SVG Version: 6.00 Build 0)  -->
<!DOCTYPE svg PUBLIC "-//W3C//DTD SVG 1.1//EN" "http://www.w3.org/Graphics/SVG/1.1/DTD/svg11.dtd">
<svg version="1.1" id="Layer_1" xmlns="http://www.w3.org/2000/svg" xmlns:xlink="http://www.w3.org/1999/xlink" x="0px" y="0px"
	 width="750px" height="525px" viewBox="0 0 750 525" enable-background="new 0 0 750 525" xml:space="preserve">
<g>
	<text transform="matrix(1 0 0 1 265.8457 371.5283)" fill="#FFFFFF" font-family="'RobotoCondensed-Regular'" font-size="74.5715">Research Portal</text>
</g>
<g>
	<g>
		<path fill="#FFFFFF" d="M537.143,263.158c-10.325,16.813-15.788,31.724-45.001,39.616c-5.312,1.025-11.509,1.609-18.593,1.756
			c-48.545,1.023-128.372-85.227-183.262-47.946c-1.474,1.023-3.099,2.192-4.427,3.509c10.33-16.812,15.641-31.725,45.007-39.619
			c5.309-1.023,11.504-1.609,18.587-1.753c48.249-1.171,128.225,85.227,183.112,47.8
			C534.195,265.643,535.67,264.474,537.143,263.158L537.143,263.158L537.143,263.158z"/>
		<path fill="#FFFFFF" d="M293.384,250.151c-10.327,16.809-15.785,31.719-45.002,39.613c-5.459,1.024-11.656,1.607-18.592,1.755
			c-48.544,1.024-128.52-85.226-183.409-47.945c-1.625,1.019-3.101,2.193-4.575,3.505c10.327-16.811,15.789-31.723,45.003-39.617
			c5.459-1.023,11.511-1.608,18.591-1.754c48.545-1.171,128.521,85.225,183.413,47.804c1.474-1.025,3.097-2.049,4.426-3.362
			C293.384,250.151,293.384,250.151,293.384,250.151L293.384,250.151z"/>
		<path fill="#FFFFFF" d="M261.629,316.322c-10.327,16.667-15.789,31.576-45.002,39.473c-5.459,1.024-11.51,1.61-18.592,1.754
			c-48.544,1.171-128.52-85.23-183.412-47.805c-1.477,1.023-3.099,2.046-4.572,3.365c10.327-16.813,15.786-31.729,45.003-39.621
			c5.46-1.024,11.655-1.607,18.591-1.753c48.545-1.024,128.52,85.229,183.409,47.951
			C258.679,318.662,260.155,317.494,261.629,316.322c0,0,0,0,0-0.146C261.629,316.322,261.629,316.322,261.629,316.322z"/>
	</g>
	<g>
		<g>
			<path fill="#FFFFFF" d="M589.345,149.686c-10.326,16.665-15.79,31.723-45.007,39.472c-5.455,1.023-11.653,1.754-18.588,1.9
				c-48.544,1.023-128.519-85.376-183.408-47.951c-1.627,1.022-3.1,2.046-4.575,3.361c10.328-16.665,15.79-31.724,45-39.617
				c5.462-0.877,11.511-1.608,18.593-1.755c48.546-1.023,128.521,85.231,183.409,47.951c1.475-1.023,3.103-2.193,4.428-3.361
				C589.345,149.686,589.345,149.686,589.345,149.686L589.345,149.686z"/>
			<path fill="#FFFFFF" d="M560.276,204.799c-10.328,16.814-15.791,31.723-45,39.618c-5.463,1.023-11.511,1.609-18.595,1.754
				c-48.544,1.024-128.521-85.23-183.408-47.95c-1.48,1.023-3.1,2.192-4.575,3.508c10.328-16.812,15.79-31.723,45.006-39.618
				c5.458-1.022,11.653-1.608,18.587-1.753c48.546-1.17,128.521,85.23,183.409,47.804
				C557.329,207.284,558.801,206.116,560.276,204.799L560.276,204.799L560.276,204.799z"/>
		</g>
		<path fill="#FFFFFF" d="M328.027,180.093c-10.327,16.811-15.641,31.723-45.002,39.618c-5.314,1.023-11.511,1.608-18.594,1.754
			c-48.25,1.023-128.225-85.228-183.113-47.951c-1.624,1.024-3.098,2.192-4.575,3.509c10.33-16.813,15.789-31.723,45.003-39.617
			c5.459-1.024,11.51-1.609,18.594-1.902c48.545-1.021,128.372,85.378,183.26,47.952
			C325.074,182.432,326.554,181.408,328.027,180.093L328.027,180.093L328.027,180.093z"/>
	</g>
</g>
</svg>
