<svg xmlns="http://www.w3.org/2000/svg" width="2400" height="3300" viewBox="0 0 2400 3300">
  <defs>
    <style>
      .cls-1 {
        fill-rule: evenodd;
      }
    </style>
  </defs>
  <path id="Full_Rig_Ship_1" data-name="Full Rig Ship 1" class="cls-1" d="M1046.91,1380.04h0.2l309.53-.06,309.51-.06h0.2v-76.44l-0.25.08-17.54,5.59-17.51,5.56h-37.69v-0.02l0.11-8.74,80.18-20.97,6.23-1.62,13.14-3.42a14.382,14.382,0,0,1,2.55-.37c1.83-.16,3.56-0.3,4.31-1.9a1.772,1.772,0,0,0-.26-2c-0.6-1.06-2.23-1.21-3.92-1.21-0.34,0-.68.01-1.02,0.01s-0.68.01-1.01,0.01a9.832,9.832,0,0,1-1.61-.09l-6.76-.36-6.73-.36-3.35.06-3.23.06c-1.29-.72-1.75-2.57-2.18-4.37-0.13-.52-0.25-1.02-0.39-1.49l-4.14-13.2c-1.05-2.61-2.17-5.27-3.25-7.84-1.48-3.51-3.01-7.15-4.43-10.78l-10.35-28.94-3.47-9.7c-4.63-12.11-8.84-24.65-12.93-36.77s-8.3-24.64-12.94-36.8l-12.41-35.52-8.73-24.97-13.46-54.95-7.38-31.979-7.38-31.979-2.54-11.818-2.54-11.822-0.01-.031-0.01-.028a5.325,5.325,0,0,0-1.63-1.624,9.4,9.4,0,0,1-.91-0.732l0.96-2.636,1-2.762a9.518,9.518,0,0,1,1.09-1.629c0.81-1.054,1.72-2.251,1.64-3.373s-0.93-2.079-2.59-2.926l-0.09-.043-0.08.043-0.06.031-0.18.094-0.05.026-0.03.046-13.74,23.98-31.2-11.705-31.24-11.712,0.05-3.437,0.54-48.871,0.24-14.521a9.368,9.368,0,0,0-.03-1.89,4.939,4.939,0,0,1,.19-2.626,5.245,5.245,0,0,1,.54-0.1,1.338,1.338,0,0,0,1.07-.366,0.282,0.282,0,0,0-.04-0.291l-0.03-.057-0.06-.023-0.89-.294-0.75-.263,0.56-31.325,0.27-14.973v-4.806c0.47-3.022.9-7.306-.68-9.178a2.581,2.581,0,0,0-2.07-.926,5.692,5.692,0,0,0-2.01.438l-0.12.053v0.128l-0.86,55.351-0.08,5.335-137.27,19.651-12.89-4.849-12.81-4.8,0.28-8.805,1.37-44.588,0.36-12.835c0.12-.726.27-3.5-0.58-3.907a1.645,1.645,0,0,0-.69-0.149,4.723,4.723,0,0,0-2.41,1.054c-0.11.071-.2,0.14-0.28,0.186l-0.08.057-0.02.1-0.34,9.173-112.66-1.082v-9.362h-6.29V809.09c-1.43.013-2.94,0.08-4.54,0.151-1.81.082-3.69,0.169-5.5,0.169a28.388,28.388,0,0,1-6.19-.54c-1.13-1.608-.09-3.125,1.02-4.731,0.27-.4.56-0.818,0.81-1.23l5.2-8.922,0.82-1.4c0.21-.322.47-0.637,0.74-0.985,0.9-1.125,1.91-2.4,1.64-4.186l-0.01-.1-0.08-.046a3.586,3.586,0,0,0-1.72-.494,2.286,2.286,0,0,0-1.06.248l-0.05.021-0.03.043-7.2,10.807-7.15,10.711-6.27.056-6.38.064h-0.21l0.02,0.207,0.11,1.923,0.02,0.169,0.17,0.015,10.32,0.691-0.06.053-12,15.562-11.98,15.543c-2.97,4.1-5.78,8.493-8.49,12.744-2.18,3.411-4.44,6.938-6.76,10.3l-27.99,39.723-9.63,13.8-9.63,13.8c-4.51,6.514-8.78,13.3-12.9,19.871-4.08,6.483-8.29,13.188-12.73,19.61-15.79,22.837-30.49,45.327-43.71,66.857l-11.81,22.04-11.816,22.02-37.675,68.05c-1.744,2.97-3.728,5.74-5.65,8.42-1.6,2.23-3.256,4.53-4.744,6.93-0.082.13-.168,0.28-0.269,0.43-0.973,1.52-2.575,4.05-1.557,5.91l-44.65,79.36a11.858,11.858,0,0,1-2.118-.5,9.5,9.5,0,0,0-2.661-.53,3.792,3.792,0,0,0-.828.09l-0.069.02-0.05.06c-1.051,1.57-.436,3.98-0.03,5.56l0.03,0.11,0.1,0.04,76.069,23.52,75.926,23.48a32.05,32.05,0,0,1-.71,5.78c-0.08.42-.16,0.83-0.23,1.24-0.67,3.83.42,10.34,0.83,12.79,0.76,4.54,1.27,8.76,1.76,12.84,0.42,3.44.85,7,1.42,10.79v9.34l-0.24,8.4-0.23,8.15-0.35,5.88-0.01.21h0Zm428.18-60.87-13.78,1.32-14.99,1.43-0.5.08a56.276,56.276,0,0,1-8.62.96,14.137,14.137,0,0,1-2.52-.2,29.826,29.826,0,0,1-6.43-2.18c-1.12-.48-2.28-0.98-3.46-1.37l-0.69-9.59-0.02-.18h-0.16l-107.69-6.12c-0.27-2.2,1.49-4.69,2.78-6.53,0.26-.36.5-0.7,0.71-1.01l33.25-3.07,66.69-6.16,11.64-1.03,11.64-1.01a21.594,21.594,0,0,1,2.81-.22c2.51-.09,4.89-0.18,5.74-2.18a1.92,1.92,0,0,0-.91-2.29,3.849,3.849,0,0,0-2.35-.5c-1.03,0-2.24.12-3.41,0.24h-0.05c-1.18.12-2.31,0.23-3.24,0.23a6.36,6.36,0,0,1-1.18-.09l-1.72-5.06-1.32-3.84c-0.49-1.44-1-2.88-1.51-4.33-2.98-8.45-6.07-17.18-7.29-26.98l48.47,19.39-1.89,60.29h0Zm28.44-3.01h-15.65l-0.16-11.33-0.19-14.21q100.02-5.16,200.08-10.33l-60.04,15.56-34.09,8.84,0.11-11.38v-0.2h-0.19l-45.96-.36-46.29-.36h-0.21l0.01,0.22,1.3,11.89,1.28,11.66h0ZM1308.9,1191.55l-2.84,80.51-0.93,26.69-54.85-1.86-54.85-1.85,1.65-41.81,1.64-41.87,29.47-11.66,29.6-11.7,6.28-2.5,9.42-3.74c0.27-.11.69-0.32,1.18-0.56,1.32-.64,3.3-1.61,4.29-1.61a0.682,0.682,0,0,1,.21.02l29.73,11.94h0Zm-111.27-165.14-7.08,135.29-7.08,135.11-61.04-5.02-58.06-4.78,14.45-.59,31.97-1.32,30.47-1.55a75.333,75.333,0,0,1,10-.72,70.1,70.1,0,0,0,9.86-.73c0.76-.12,1.62-0.17,2.46-0.22,2.08-.13,4.23-0.26,5.23-1.53l0.04-.05v-0.54l-0.09-.05a25.073,25.073,0,0,0-4.01-2.07c-2.46-1.08-4.77-2.1-6.2-4.71-1.08-1.96-1.28-5.52-1.47-8.97a44.45,44.45,0,0,0-.52-5.62l-5.55-35.03c-0.78-4.02-1.21-8.3-1.65-12.43-0.36-3.49-.73-7.1-1.3-10.61l-0.47-7.91a59.839,59.839,0,0,1-.01-16.75l0.92-4.88,7.47-40c1.46-6.79,2.61-13.71,3.71-20.4,1.37-8.29,2.78-16.84,4.8-25.08,1.67-6.89,3.65-13.02,5.74-19.5,0.91-2.82,1.85-5.74,2.75-8.69l3.14-11.35,3.12-11.34,0.09-.32-0.32.07c-3.41.86-5.01,4.01-6.55,7.07-0.38.76-.74,1.47-1.13,2.15l-5.67,11.23-5.67,11.22-16.07,32.77-16.06,32.77-6.91,14.33-5.85,12.14,5.86-19.62,6.55-21.96c1.36-4.37,2.65-8.87,3.9-13.23,2.89-10.07,5.88-20.49,9.91-29.95,2.5-5.87,5.31-11.87,8.03-17.66,2.5-5.34,5.08-10.86,7.45-16.3l8.61-19.68,8.58-19.578,10.59-.706,1.67,5.614,1.72,5.76,0.01,0.04,0.03,0.03,2.48,2.77c0.22,0.28.45,0.59,0.68,0.9,2.61,3.41,5.57,7.28,6.47,12.18h0Zm-102.06,174.26-6.1,13.37-18.32,40.18c-1.4,3.23-2.95,6.42-4.46,9.5-1.5,3.05-3.04,6.2-4.4,9.35l-0.57,1.32a42.061,42.061,0,0,1-4.25,8.24c-1.98,2.68-4.79,4.68-7.5,6.59a40.034,40.034,0,0,0-6.22,5.07l-42.77-12.27-42.555-12.21,7.562-7.69,11.219-11.58,11.137-11.49a4.331,4.331,0,0,0,1.427.23c1.99,0,4.227-1.13,5.86-1.95,0.457-.23.887-0.45,1.242-0.61a159.987,159.987,0,0,0,20.928-11.53c1.68-1.07,3.35-2.21,4.97-3.32a74.529,74.529,0,0,1,11.66-6.99c9.29-4.13,19.71-6.33,30.75-8.67,2.68-.56,5.45-1.15,8.2-1.76l15.58-2.76,3.48-.54,3.13-.48h0ZM987.65,1238l-0.427.43-30.292,30.9-17.225-4.87-31.676-8.95,2.589-4.59,0.579-1.03,1.869-3.35,4.195-1.78,9.931-5.04,6.271-3.45,12.044-6.63a103.845,103.845,0,0,1,14.07-4.18c2.307-.57,4.692-1.15,7.03-1.81,10.513-2.95,21.62-5.4,32.36-7.77,2.232-.48,4.462-0.98,6.682-1.47a88.061,88.061,0,0,1-6.307,7.16,83.932,83.932,0,0,0-6.6,7.53l-2.074,3.01-2.062,3-0.021.03-0.006.02-0.93,2.84h0Zm491.22-52.81c0.04,12.86-.47,25.88-0.95,38.47-0.43,11.07-.88,22.52-0.94,33.71l-48.89-19.65-12.15-59.78-1.47-7.33-1.48-7.32c-0.04-.19-0.11-0.43-0.18-0.71-0.29-1.14-.87-3.44-0.63-4.16l66.69,26.77h0Zm-567.551,62.18-4.268,7.78-3.7-1.04-3.6-1.01,44.742-79.8,1.723-1.35,1.433-1.14,5.339-5.42,5.315-5.39q1.923-1.965,3.837-3.95c6.268-6.45,12.747-13.13,20.116-18.48,17.49-12.7,38.867-22.61,59.537-32.19,1.32-.61,2.62-1.22,3.93-1.83l-2.84,3.12-3.48,3.84c-6.42,8.08-14.88,15.25-22.3,21.34l-9.59,9.68-9.561,9.66-9.51,9.72-9.511,9.72-0.053.06-9.162,9.18-27.661,28.78-2.339,2.43-12.875,13.38-12.878,13.39c-0.51.41-1.2,0.91-2,1.49-3.373,2.43-7.993,5.76-8.1,9.32l0,0.11,0.092,0.06,0.355,0.24,0.013,0.01,0.017,0.01a3.29,3.29,0,0,0,1.288.24,12.177,12.177,0,0,0,4.72-1.51c0.352-.17.674-0.32,0.96-0.45h0Zm365.241-68.61-77.81,30.97,0.93-22.39,0.94-22.68c0.16-1.07.18-3.73,0.2-6.54,0.03-3.69.06-8.69,0.51-9.67l59.85,24.12,15.38,6.19h0Zm33.16-11.41q-0.4,11.28-.81,22.58l-27.98-11.23,25.57-10.09,3.22-1.26h0Zm169.85-13.85-0.35,15.11-0.34,14.96-33.53-13.4-33.68-13.46-2.75-13.94-2.75-13.87,6.39-2.32,29.48,11.84,37.53,15.08h0Zm-200.53,24.41a2.832,2.832,0,0,1-.3.02,9.889,9.889,0,0,1-3.86-1.48c-0.54-.29-1-0.54-1.38-0.7l-7.03-2.82-7.03-2.82-29.18-11.7-29.04-11.65,1.47-35.81,1.46-35.75h0.25l53.54,21.46,53.44,21.44-0.27,7.75-1.38,39.87-28.69,11.39-2,.8h0Zm201.71-78.61-0.64,26.28-0.64,26.3-24.16-9.74-40.92-16.49,46.08-18.3,20.28-8.05h0Zm-70.57,26.36-4.31,1.8c-0.05-.34-0.16-0.77-0.27-1.22a7.533,7.533,0,0,1-.38-2.62l3.31,1.36,1.65,0.68h0Zm70.7-27.99-68.55,27.29-2.86-1.12-4.65-1.82-1.87-9.42-2.83-14.35-0.42-2.3-6.08-33.35-2.71-38.38-1.53-23.5-0.25-3.859-0.57-10.856,93.97,37.4-0.83,37.13-0.82,37.13h0Zm-168.68-3.37-0.69,22.18-107.22-42.81,1.06-23.38a14.43,14.43,0,0,0-.01-2.63c-0.08-1.51-.17-3.22.35-3.98l10.38,4.14,10.51,4.21,58.92,23.63,10.03,7.09,2.35,1.66,11.6,8.02,2.72,1.87h0Zm0.12-7.88-0.11,6.09-10.86-7.59-9.75-6.82,17.83,7.15,2.89,1.17h0Zm2.95-86.923-2.7,85.463-26.89-10.73-57.28-39.66-21.16-14.63,0.3-4.23,0.27-3.88h16c0.48,0,1.01.02,1.58,0.04,0.61,0.03,1.25.05,1.87,0.05a6.557,6.557,0,0,0,3.39-.6l0.09-.06v-0.88l-0.03-.06-1.42-2.15-0.06-.09h-21.4l0.11-7.78,16.32-.925,17.28-.99a24.376,24.376,0,0,1,3.5-.187c0.71,0,1.45.008,2.2,0.021,0.78,0.015,1.54.028,2.29,0.028,2.39,0,5.03-.11,6.51-0.967l0.06-.036,0.02-.064a5.427,5.427,0,0,0,.12-3.373l-0.04-.14-0.15.007-24.39.719-24.17.711,0.1-1.217,0.11-1.282,92.74-13.937,7.5-1.128c-0.17,4.286-.45,8.345-1.62,11.089a7.536,7.536,0,0,1-.54.984c-0.63,1.056-1.35,2.253-.63,3.519l0.03,0.067,0.08,0.023c2.67,0.723,5.04,2.534,7.32,4.286,0.93,0.716,1.8,1.4,2.69,1.989h0Zm-108.06,22.093,36.81,25.43,36.06,24.92-74.37-29.71,1.5-20.64h0Zm157.45-45.027-19.58,27.337-19.45,27.15,1.53-18.97,1.37-16.958c2.42-.4,4.78-1.036,7.27-1.7a82.488,82.488,0,0,1,8.05-1.875c0.71-.11,1.49-0.153,2.24-0.2,1.79-.1,3.48-0.187,4.28-1.22a2.762,2.762,0,0,0,.37-2.289l-0.03-.171-0.16.008-12.23.36-12.02.351,0.54-7.161,0.51-6.626,6.22-.908,17.43-2.539,3.65,1.447,10.01,3.964h0Zm183.46-45.958-53.56,93.945,1.88-18.3,1.95-18.959a33.951,33.951,0,0,0,.24-6.109,37.21,37.21,0,0,1,.23-6.483l-0.05-10.534-0.07-10.5a71.985,71.985,0,0,1-.34-10.1c0.05-6.447.11-13.124-1.94-15.827l-0.06-.085-0.11.008a14.543,14.543,0,0,1-1.6.09,23.153,23.153,0,0,1-7.06-1.376c-0.51-.164-1.01-0.315-1.52-0.463l0.12-13.053,0.11-2.877,0.11-2.606,12.24,4.611,49.43,18.615h0Zm-65,64.9-0.29,13.042-0.29,13.12-46.99-18.56-47.13-18.617-0.29-6.892-0.3-7.022c0-.345-0.05-0.824-0.1-1.373-0.13-1.256-.31-2.969.13-3.6l68.06-10.268,21.52-3.248-0.29,7.2-0.29,7.44c-0.85,5.495-1.8,13.457-.23,18.909,1.17,4.061,3.37,6.454,5.69,8.991,0.26,0.284.53,0.573,0.8,0.87h0Zm-175.04-19.689-50.16,7.472-50.07,7.47,0.19-2.273L1209.59,970c0.33-2.02.97-6.945-.26-8.769-1.92-2.843-7.1-3.209-11.4-3.209-0.13,0-.25,0-0.37,0l1.87-46.85,84.87,33.554,25.06,9.9-0.21,3.549-1.07,17.636h0Zm62.59-7.608-5.06,7.061-7.3-2.87-4.39-1.728,6.92-1.018,9.83-1.445h0Zm-23.22,1.685-8.59,1.276-11.5,1.709v-0.589a29.4,29.4,0,0,0,.26-4.3c0.03-2.3.08-5.122,0.56-5.931l2.73,1.108,16.54,6.723h0Zm24.61-3.693-21.6,3.223-17.19-6.806-5.08-2,0.73-11.385,0.68-10.672,0.01-.2-0.19-.007-8.74-.481-4.18-.23,1.23-39.473,1.24-39.5,16.03-2.243,11.16-1.57,40.37,15.163,93.39,35.058-1.8,33.2-0.66,12.1-13.08,1.949-76.67,11.436,0.12-7.938v-0.227a17.71,17.71,0,0,1,.72-2.614c0.78-2.35,1.34-4.048-2.1-6.319l-0.11-.074-0.1.074-0.36.243-0.03.015-0.02.034-6.91,9.659-6.86,9.592h0Zm-58.33-106.761-1.52,39.127-0.12,6.01-0.63,11.582-0.67,12.414-1.07,18.6a15.016,15.016,0,0,0-.03,2.45,7.768,7.768,0,0,1-.32,3.562l-13.04-5.163-96.77-38.3,0.48-11.9,0.46-11.3h42.64V883.5h-40.16v-8.158l108.72-15.607,2.03-.294h0ZM1482.17,835.2l-0.23,17.712-0.24,17.95-0.88,16.426-0.88,16.183-131.08-49.055,66.51-9.588,66.8-9.628h0Zm-168.46,22.151-110.73,15.92v-61.5h20c0.95,0,2.06-.076,3.15-0.15s2.2-.151,3.15-0.151c0.48,0,.88.023,1.22,0.056l83.95,31.509c0.03,3.337-.14,13.278-0.74,14.318h0Zm28.37-4.012L1330.62,855l-11.76,1.706,0.35-11.93h0.13l22.74,8.562h0ZM1316.69,785l-1.1,27.8-1.13,28.652-42.04-15.733-42.03-15.735V808.61h-26.23V783.921l56.27,0.542L1316.69,785h0Z"/>
</svg>
